<svg height="681pt" viewBox="-21 -43 681.33431 681" width="681pt" xmlns="http://www.w3.org/2000/svg"><path d="m85.878906 39.566406c-35.722656 26.023438-46.003906 66.519532-51.902344 107.875-5.394531 37.820313-51.007812 79.71875-27.085937 117.40625 15.484375 24.398438 59.628906 21.328125 83.488281 12.796875l106.542969-233.789062c-33.824219-23.820313-76.359375-29.550781-111.042969-4.289063zm0 0" fill="#f8b459"/><path d="m552.875 39.566406c35.71875 26.023438 46.003906 66.519532 51.898438 107.875 5.390624 37.820313 51.007812 79.71875 27.085937 117.40625-15.488281 24.398438-59.632813 21.328125-83.488281 12.796875l-106.539063-233.789062c33.816407-23.820313 76.359375-29.550781 111.042969-4.289063zm0 0" fill="#f8b459"/><path d="m588.226562 283.828125c-7.351562-54.359375-21.746093-116.152344-49.230468-172.214844-16.714844-34.097656-36.667969-62.664062-59.523438-85.46875-13.132812 3.375-25.910156 9.449219-37.640625 17.710938l106.539063 233.789062c10.683594 3.820313 25.433594 6.53125 39.855468 6.183594zm0 0" fill="#f39c18"/><path d="m99.757812 111.613281c-27.480468 56.066407-41.878906 117.855469-49.230468 172.222657 14.417968.34375 29.171875-2.371094 39.851562-6.191407l106.542969-233.789062c-11.730469-8.261719-24.507813-14.335938-37.644531-17.710938-22.855469 22.808594-42.804688 51.375-59.519532 85.46875zm0 0" fill="#f39c18"/><path d="m319.375-1.328125c-176.660156 0-237.503906 215.34375-237.503906 393.292969-.867188 118.234375 161.765625 181.035156 218.367187 199.304687 12.453125 4.023438 25.824219 4.023438 38.273438 0 56.605469-18.269531 219.234375-81.070312 218.367187-199.304687 0-177.949219-60.84375-393.292969-237.503906-393.292969zm0 0" fill="#f9e09d"/><path d="m338.292969-.472656c-6.152344-.558594-12.457031-.855469-18.917969-.855469-176.660156 0-237.503906 215.34375-237.503906 393.292969-.273438 36.902344 15.390625 68.410156 38.78125 94.847656 3.949218-297.839844 61.886718-473.875 217.640625-487.285156zm0 0" fill="#f8b459"/><g fill="#423e4f"><path d="m353.375 334.847656c-.003906-3.328125-2.820312-5.980468-6.152344-5.980468h-55.691406c-3.335938 0-6.148438 2.652343-6.15625 5.980468v.0625c0 14.882813 15.222656 26.949219 34 26.949219 18.78125 0 34.007812-12.066406 34.007812-26.949219-.007812-.019531-.007812-.039062-.007812-.0625zm0 0"/><path d="m221.316406 286.675781c-5.324218 0-9.640625 4.316407-9.640625 9.640625v17.746094c0 5.328125 4.316407 9.640625 9.640625 9.640625 5.324219 0 9.636719-4.3125 9.636719-9.640625v-17.746094c0-5.324218-4.3125-9.640625-9.636719-9.640625zm0 0"/><path d="m427.070312 314.0625v-17.746094c0-5.324218-4.3125-9.640625-9.640624-9.640625-5.320313 0-9.632813 4.316407-9.632813 9.640625v17.746094c0 5.328125 4.3125 9.640625 9.632813 9.640625 5.328124 0 9.640624-4.3125 9.640624-9.640625zm0 0"/></g><path d="m216.335938 333.546875h-24.007813c-5.324219 0-9.636719 4.316406-9.636719 9.640625s4.3125 9.636719 9.636719 9.636719h24.007813c5.324218 0 9.636718-4.3125 9.636718-9.636719s-4.3125-9.640625-9.636718-9.640625zm0 0" fill="#ff889e"/><path d="m446.421875 333.546875h-24.011719c-5.320312 0-9.636718 4.316406-9.636718 9.640625s4.316406 9.636719 9.636718 9.636719h24.011719c5.320313 0 9.640625-4.3125 9.640625-9.636719s-4.320312-9.640625-9.640625-9.640625zm0 0" fill="#ff889e"/><path d="m367.410156 383.960938c-4.007812-3.5-10.101562-3.09375-13.601562.917968-3.292969 3.765625-8.242188 5.925782-13.589844 5.925782-5.339844 0-10.292969-2.160157-13.585938-5.925782-1.902343-2.179687-4.835937-3.417968-7.726562-3.28125-2.570312.125-5.089844 1.335938-6.785156 3.28125-3.296875 3.765625-8.246094 5.925782-13.589844 5.925782s-10.296875-2.160157-13.589844-5.925782c-3.503906-4.011718-9.589844-4.417968-13.601562-.914062-4.003906 3.503906-4.414063 9.59375-.910156 13.601562 6.953124 7.953125 17.195312 12.515625 28.101562 12.515625 7.558594 0 14.796875-2.191406 20.84375-6.1875 6.046875 3.996094 13.285156 6.1875 20.84375 6.1875 10.90625 0 21.148438-4.5625 28.105469-12.515625 3.503906-4.007812 3.09375-10.097656-.914063-13.605468zm0 0" fill="#423e4f"/></svg>