<svg height="681pt" viewBox="-21 -67 681.33421 681" width="681pt" xmlns="http://www.w3.org/2000/svg"><path d="m518.007812 141.316406c77.640626 0 87.09375 74.757813 87.09375 113.433594 0 24.136719 15.0625 46.433594 26.386719 59.78125 8.007813 9.4375 9.539063 22.832031 3.867188 33.835938-20.71875 40.210937-60.296875 62.828124-105.121094 62.828124l-27.398437-14.652343-40.378907-204.53125zm0 0" fill="#b2b0bc"/><path d="m120.746094 141.316406c-77.640625 0-87.09375 74.757813-87.09375 113.433594 0 24.136719-15.070313 46.433594-26.390625 59.78125-8.007813 9.4375-9.535157 22.832031-3.871094 33.835938 20.722656 40.210937 60.300781 62.828124 105.128906 62.828124l27.398438-14.652343 40.378906-204.53125zm0 0" fill="#b2b0bc"/><path d="m50.925781 322.640625c0 27.726563 4.441407 54.785156 12.964844 80.421875 13.839844 5.347656 28.90625 8.140625 44.628906 8.140625l27.398438-14.660156 40.378906-204.527344-52.515625-47.929687c-47.042969 48.519531-72.855469 111.582031-72.855469 178.554687zm0 0" fill="#938ea3"/><path d="m514.957031 144.097656-52.5 47.917969 40.378907 204.527344 27.398437 14.660156c15.707031 0 30.765625-2.789063 44.597656-8.128906 8.523438-25.640625 12.964844-52.699219 12.964844-80.433594.003906-66.96875-25.804687-130.023437-72.839844-178.542969zm0 0" fill="#938ea3"/><path d="m549.242188 322.640625c0-122.691406-102.921876-222.144531-229.878907-222.144531-126.960937 0-229.878906 99.453125-229.878906 222.144531 0 122.683594 102.917969 222.144531 229.878906 222.144531 126.957031 0 229.878907-99.460937 229.878907-222.144531zm0 0" fill="#e7e7e7"/><path d="m506.125 236.539062c5.667969-7.039062 9.980469-15.246093 12.792969-24.246093-39.636719-66.796875-114.15625-111.796875-199.554688-111.796875-85.679687 0-160.40625 45.300781-199.941406 112.464844 7.527344 24.878906 29.179687 43.644531 56.273437 47.394531 1.667969.234375 6.738282.933593 13.332032 10.136719 12.585937 17.585937 32.59375 27.667968 54.902344 27.667968 7.035156 0 14.125-1.003906 21.074218-2.972656 1.28125-.363281 2.503906-.539062 3.738282-.539062 3.683593 0 7.96875 1.644531 12.734374 4.898437 11.214844 7.648437 24.3125 11.695313 37.886719 11.695313s26.675781-4.046876 37.886719-11.691407c4.417969-3.015625 8.664062-4.480469 12.984375-4.480469 2.042969 0 4.210937.324219 6.457031.960938 5.96875 1.691406 12.054688 2.554688 18.09375 2.554688 22.125 0 43.097656-11.578126 57.546875-31.769532 2.515625-3.507812 6.828125-5.921875 11.828125-6.613281 16.867188-2.335937 31.378906-10.515625 41.964844-23.664063zm0 0" fill="#c7c5cb"/><path d="m507.269531 113.453125c-7.371093-8.148437-9.945312-17.882813-11.003906-28.542969-1.894531-19.085937-16.621094-34.394531-35.621094-37.019531-13.824219-1.910156-23.929687-9.742187-31.84375-20.796875-10.195312-14.242188-28.242187-20.554688-45.097656-15.769531-14.726563 4.183593-28.273437 1.628906-40.941406-7.011719-14.113281-9.628906-32.683594-9.628906-46.796875 0-12.515625 8.539062-26.382813 11.144531-40.945313 7.011719-16.855469-4.78125-34.898437 1.53125-45.097656 15.773437-7.796875 10.894532-18.351563 18.925782-31.835937 20.792969-19 2.625-33.730469 17.925781-35.625 37.019531-1.0625 10.691406-3.597657 20.355469-11.007813 28.542969-14.308594 15.816406-14.308594 39.902344 0 55.71875 7.382813 8.15625 9.949219 17.894531 11.007813 28.542969 1.941406 19.539062 17.644531 34.535156 36.765624 37.179687 13.234376 1.835938 23.140626 10.078125 30.695313 20.636719 11.183594 15.617188 30.28125 19.972656 48.066406 14.925781 13.738281-3.898437 26.574219.078125 37.976563 7.855469 14.113281 9.628906 32.683594 9.628906 46.796875 0 12.566406-8.574219 26.339843-11.15625 40.945312-7.011719 19.371094 5.496094 36.632813-3.949219 47.726563-19.445312 6.878906-9.617188 17.601562-15.511719 29.203125-17.117188 21.820312-3.019531 34.058593-21.234375 36.101562-41.8125.882813-8.839843 4.570313-17.167969 10.535157-23.753906 14.308593-15.816406 14.308593-39.902344-.003907-55.71875zm0 0" fill="#e7e7e7"/><path d="m355.6875 331.066406c24.8125 5.179688 47.246094 15.726563 65.199219 30.925782 27.1875 22.980468 30.578125 63.648437 7.59375 90.824218-20.109375 23.78125-53.761719 29.363282-80.074219 14.980469-8.585938-4.695313-18.136719-7.375-27.933594-7.359375h-2.011718c-9.707032.007812-19.269532 2.460938-27.765626 7.175781-9.730468 5.414063-20.496093 8.085938-31.207031 8.085938-18.304687 0-36.492187-7.773438-49.246093-22.84375-22.992188-27.175781-19.574219-67.867188 7.609374-90.847657 17.957032-15.203124 40.382813-25.761718 65.199219-30.941406zm0 0" fill="#c7c5cb"/><path d="m355.6875 331.066406c-1.84375 18.421875-17.402344 32.804688-36.3125 32.804688-18.921875 0-34.480469-14.382813-36.324219-32.804688 11.652344-2.453125 23.835938-3.699218 36.324219-3.699218 12.476562 0 24.660156 1.246093 36.3125 3.699218zm0 0" fill="#423e4f"/><path d="m208.738281 330.582031c-5.320312 0-9.640625-4.316406-9.640625-9.636719v-17.617187c0-5.328125 4.320313-9.640625 9.640625-9.640625 5.320313 0 9.640625 4.3125 9.640625 9.640625v17.617187c0 5.320313-4.320312 9.636719-9.640625 9.636719zm0 0" fill="#423e4f"/><path d="m186.472656 351.398438h-20.347656c-5.320312 0-9.636719-4.320313-9.636719-9.640626 0-5.328124 4.316407-9.640624 9.636719-9.640624h20.347656c5.320313 0 9.636719 4.3125 9.636719 9.640624 0 5.320313-4.316406 9.640626-9.636719 9.640626zm0 0" fill="#ffb2c1"/><path d="m430.015625 330.582031c-5.328125 0-9.640625-4.316406-9.640625-9.636719v-17.617187c0-5.328125 4.3125-9.640625 9.640625-9.640625 5.320313 0 9.636719 4.3125 9.636719 9.640625v17.617187c0 5.320313-4.316406 9.636719-9.636719 9.636719zm0 0" fill="#423e4f"/><path d="m472.625 351.398438h-20.34375c-5.324219 0-9.640625-4.320313-9.640625-9.640626 0-5.328124 4.316406-9.640624 9.640625-9.640624h20.34375c5.328125 0 9.640625 4.3125 9.640625 9.640624 0 5.320313-4.3125 9.640626-9.640625 9.640626zm0 0" fill="#ffb2c1"/></svg>