<svg height="682pt" viewBox="-52 -21 682 682.66553" width="682pt" xmlns="http://www.w3.org/2000/svg"><path d="m65.058594 1.222656c-3.945313.519532-7.578125 2.390625-10.355469 5.234375-20.421875 20.957031-100.46875 117.082031-24.066406 270.382813l204.660156-170.726563c-28.917969-84.601562-111.347656-112.605469-170.238281-104.890625zm0 0" fill="#5c586f"/><path d="m55.804688 164.328125c-17.796876 19.425781-32.894532 40.800781-45.121094 63.589844 4.921875 15.585937 11.464844 31.898437 19.953125 48.917969l204.660156-170.722657c-4.554687-13.328125-10.4375-25.242187-17.34375-35.835937-62.023437 13.910156-118.566406 46.488281-162.148437 94.050781zm0 0" fill="#4f4c5f"/><path d="m100.34375 72.519531c-5.710938-.671875-11.285156 1.984375-14.441406 6.789063-5.65625 8.632812-11.761719 19.875-16.488282 33.472656-15.671874 45.101562-9.714843 95.875 17.710938 150.910156l96.507812-125.527344c-15.0625-44.050781-52.207031-62-83.289062-65.644531zm0 0" fill="#ffb2c1"/><path d="m508.480469 1.222656c3.945312.519532 7.578125 2.390625 10.359375 5.234375 20.417968 20.957031 100.46875 117.082031 24.066406 270.378907l-204.664062-170.722657c28.917968-84.601562 111.34375-112.605469 170.238281-104.890625zm0 0" fill="#5c586f"/><path d="m562.855469 227.917969c-12.226563-22.789063-27.324219-44.164063-45.121094-63.589844-43.578125-47.5625-100.121094-80.140625-162.148437-94.050781-6.902344 10.59375-12.789063 22.507812-17.34375 35.835937l204.664062 170.726563c8.480469-17.023438 15.027344-33.335938 19.949219-48.921875zm0 0" fill="#4f4c5f"/><path d="m473.199219 72.519531c5.707031-.671875 11.285156 1.984375 14.433593 6.789063 5.664063 8.632812 11.765626 19.875 16.492188 33.472656 15.675781 45.101562 9.71875 95.875-17.707031 150.910156l-96.511719-125.527344c15.058594-44.050781 52.207031-62 83.292969-65.644531zm0 0" fill="#ffb2c1"/><path d="m512.554688 158.816406c-26.390626-27.464844-57.230469-49.613281-90.957032-65.710937-13.371094 10.351562-24.828125 24.984375-31.691406 45.058593l96.511719 125.527344c18.457031-37.03125 27.171875-72.128906 26.136719-104.875zm0 0" fill="#ff889e"/><path d="m183.628906 138.164062c-6.859375-20.074218-18.316406-34.714843-31.683594-45.058593-33.726562 16.097656-64.566406 38.246093-90.957031 65.710937-1.042969 32.746094 7.679688 67.84375 26.136719 104.875zm0 0" fill="#ff889e"/><path d="m261.027344 102.484375c-139.550782 12.972656-248.808594 130.414063-248.808594 273.363281 0 80.683594 34.804688 153.246094 90.222656 203.476563h368.652344c55.425781-50.230469 90.226562-122.792969 90.226562-203.476563 0-142.949218-109.253906-260.390625-248.808593-273.363281l-25.738281 16.902344zm0 0" fill="#5c586f"/><path d="m50.851562 375.847656c0-132.039062 93.226563-242.3125 217.433594-268.597656l-7.253906-4.765625c-139.554688 12.972656-248.8125 130.414063-248.8125 273.363281 0 80.679688 34.804688 153.242188 90.222656 203.476563h38.632813c-55.425781-50.230469-90.222657-122.792969-90.222657-203.476563zm0 0" fill="#4f4c5f"/><path d="m393.609375 229.738281c-2.398437 26.945313-19.738281 48.523438-35.960937 68.882813-17.296876 21.710937-34.332032 46.617187-26.652344 75.738281l22.203125 69.832031-66.429688 20.890625-73.527343-16.527343 29.300781-74.195313c7.675781-29.121094-9.359375-54.027344-26.652344-75.738281-16.226563-20.359375-33.5625-41.9375-35.964844-68.882813-2.519531-28.246093 11.53125-55.667969 29.152344-76.777343 15.476563-18.546876 33.738281-34.695313 51.949219-50.476563h.011718c8.472657-.78125 17.050782-1.1875 25.730469-1.1875 8.679688 0 17.257813.40625 25.730469 1.1875h.011719c18.210937 15.78125 36.472656 31.929687 51.953125 50.476563 17.621094 21.109374 31.667968 48.53125 29.144531 76.777343zm0 0" fill="#e7e7e7"/><path d="m415.128906 579.320312c0-33.511718-57.46875-60.679687-128.359375-60.679687s-128.355469 27.167969-128.355469 60.679687c0 33.511719 57.464844 60.679688 128.355469 60.679688s128.359375-27.167969 128.359375-60.679688zm0 0" fill="#e7e7e7"/><path d="m330.996094 374.359375c23.46875 3.980469 46.152344 11.132813 67.089844 21.210937 35.40625 17.058594 65.191406 42.125 86.167968 72.484376 30.726563 44.496093 19.570313 105.472656-24.933594 136.203124-16.964843 11.71875-36.351562 17.34375-55.539062 17.34375-22.390625 0-44.5-7.664062-62.214844-22.21875-7.753906-6.367187-16.433594-11.382812-25.6875-14.800781-9.253906-3.429687-19.085937-5.257812-29.109375-5.257812-20.058593 0-39.289062 7.320312-54.785156 20.058593-17.726563 14.554688-39.839844 22.21875-62.222656 22.21875-19.191407 0-38.558594-5.625-55.542969-17.34375-44.488281-30.730468-55.660156-91.707031-24.929688-136.1875 20.976563-30.375 50.761719-55.441406 86.160157-72.5 20.9375-10.078124 43.628906-17.230468 67.09375-21.210937zm0 0" fill="#ffb2c1"/><path d="m194.222656 604.863281c-19.183594 0-38.558594-5.625-55.539062-17.351562-44.484375-30.726563-55.660156-91.699219-24.933594-136.183594 11.875-17.195313 26.582031-32.683594 43.519531-45.984375-27.445312 16.304688-50.707031 37.707031-67.980469 62.726562-30.730468 44.488282-19.558593 105.457032 24.929688 136.1875 16.984375 11.71875 36.351562 17.34375 55.542969 17.34375 22.382812 0 44.496093-7.664062 62.222656-22.214843 2.519531-2.070313 5.140625-3.976563 7.839844-5.753907-14.097657 7.382813-29.773438 11.230469-45.601563 11.230469zm0 0" fill="#ff889e"/><path d="m330.996094 374.359375c-1.894532 22.761719-20.964844 40.648437-44.226563 40.648437-23.257812 0-42.332031-17.886718-44.226562-40.648437 14.53125-2.480469 29.332031-3.734375 44.226562-3.734375s29.695313 1.253906 44.226563 3.734375zm0 0" fill="#423e4f"/><path d="m135.585938 362.074219c-5.332032 0-9.65625-4.328125-9.65625-9.660157v-21.757812c0-5.332031 4.324218-9.65625 9.65625-9.65625 5.332031 0 9.660156 4.324219 9.660156 9.65625v21.757812c0 5.332032-4.328125 9.660157-9.660156 9.660157zm0 0" fill="#423e4f"/><path d="m127.398438 387.0625h-20.605469c-5.332031 0-9.652344-4.324219-9.652344-9.65625s4.320313-9.660156 9.652344-9.660156h20.605469c5.332031 0 9.65625 4.328125 9.65625 9.660156s-4.324219 9.65625-9.65625 9.65625zm0 0" fill="#ffb2c1"/><path d="m437.953125 362.074219c-5.335937 0-9.65625-4.328125-9.65625-9.660157v-21.757812c0-5.332031 4.320313-9.65625 9.65625-9.65625 5.332031 0 9.660156 4.324219 9.660156 9.65625v21.757812c0 5.332032-4.328125 9.660157-9.660156 9.660157zm0 0" fill="#423e4f"/><path d="m466.742188 387.0625h-20.597657c-5.332031 0-9.660156-4.324219-9.660156-9.65625s4.328125-9.660156 9.660156-9.660156h20.597657c5.339843 0 9.660156 4.328125 9.660156 9.660156s-4.320313 9.65625-9.660156 9.65625zm0 0" fill="#ffb2c1"/></svg>