<svg height="682pt" viewBox="-21 -53 682.66727 682" width="682pt" xmlns="http://www.w3.org/2000/svg"><path d="m4.195312 55.589844c.328126-3.136719 1.707032-6.054688 3.933594-8.285156 10.886719-10.917969 49.375-39.128907 136.910156-9.566407l-112.367187 144.605469s-35.136719-63.21875-28.476563-126.753906zm0 0" fill="#f8b459"/><path d="m67.886719 168.5c-.289063-.519531-26.15625-48.324219-24.785157-96.382812 3.003907-1.734376 7.214844-3.648438 12.871094-5.140626 5.59375-1.476562 12.949219-2.613281 22.304688-2.613281 14.492187 0 33.789062 2.734375 58.824218 11.1875zm0 0" fill="#f9e09d"/><path d="m635.804688 55.589844c-.328126-3.136719-1.707032-6.054688-3.929688-8.285156-10.890625-10.917969-49.375-39.128907-136.914062-9.566407l112.367187 144.605469s35.136719-63.21875 28.476563-126.753906zm0 0" fill="#f8b459"/><path d="m621.890625 149.050781c-9.425781-21.957031-20.9375-43.265625-35.289063-62.847656-16.464843-22.46875-35.957031-41.722656-58.246093-57.578125-10.238281 2.078125-21.351563 5.046875-33.394531 9.113281l112.367187 144.605469s7.261719-13.066406 14.5625-33.292969zm0 0" fill="#f39c18"/><path d="m18.117188 149.050781c7.292968 20.226563 14.554687 33.292969 14.554687 33.292969l112.367187-144.605469c-12.039062-4.066406-23.148437-7.035156-33.394531-9.113281-22.289062 15.855469-41.78125 35.109375-58.246093 57.578125-14.351563 19.582031-25.863282 40.890625-35.28125 62.847656zm0 0" fill="#f39c18"/><path d="m572.117188 168.5c.285156-.519531 26.152343-48.324219 24.78125-96.382812-3.003907-1.734376-7.214844-3.648438-12.867188-5.140626-5.597656-1.476562-12.953125-2.613281-22.308594-2.613281-14.492187 0-33.789062 2.734375-58.816406 11.1875zm0 0" fill="#f9e09d"/><path d="m586.601562 86.203125c-5.546874-7.578125-11.464843-14.757813-17.695312-21.601563-2.25-.148437-4.632812-.238281-7.175781-.238281-14.5 0-33.789063 2.734375-58.824219 11.1875l69.210938 92.949219c.230468-.421875 17.410156-32.171875 23.058593-69.886719-2.746093-4.207031-5.597656-8.347656-8.574219-12.410156zm0 0" fill="#f8b459"/><path d="m44.824219 98.613281c5.648437 37.714844 22.828125 69.464844 23.0625 69.886719l69.214843-92.949219c-25.035156-8.453125-44.332031-11.1875-58.824218-11.1875-2.542969 0-4.925782.089844-7.183594.238281-6.230469 6.84375-12.144531 14.023438-17.695312 21.601563-2.976563 4.0625-5.828126 8.203125-8.574219 12.410156zm0 0" fill="#f8b459"/><path d="m638.347656 310.96875c-25.609375-141.824219-61.652344-312.71875-318.347656-312.71875-256.6875 0-292.734375 170.894531-318.347656 312.71875-3.429688 18.980469-1.515625 38.554688 5.695312 56.441406 21.542969 53.414063 88.300782 156.832032 289.199219 204.476563 15.410156 3.65625 31.496094 3.65625 46.90625 0 200.898437-47.644531 267.65625-151.0625 289.199219-204.476563 7.210937-17.886718 9.125-37.460937 5.695312-56.441406zm0 0" fill="#f8b459"/><path d="m45.980469 377.964844c-7.210938-18.402344-9.125-38.527344-5.695313-58.054688 24.960938-142.164062 59.835938-312.714844 299.160156-321.3125-6.339843-.226562-12.8125-.347656-19.445312-.347656-256.6875 0-292.734375 170.894531-318.34375 312.71875-3.433594 18.984375-1.519531 38.554688 5.691406 56.445312 18.839844 46.710938 72.257813 131.652344 219.707032 184.101563-118.417969-54.003906-163.984376-129.964844-181.074219-173.550781zm0 0" fill="#f39c18"/><path d="m507.515625 292.386719c-19.152344-35.519531-63.574219-48.410157-98.707031-28.835938-21.421875 11.933594-54.617188 19.058594-88.808594 19.058594-34.1875 0-67.382812-7.125-88.804688-19.058594-34.832031-19.40625-78.800781-6.902343-98.210937 27.9375-19.410156 34.832031-6.90625 78.800781 27.929687 98.210938 20.367188 11.34375 43.6875 20.285156 68.871094 26.5625 8.84375 2.207031 16.136719 8.449219 19.84375 16.773437 11.992188 26.9375 38.980469 45.722656 70.371094 45.722656 31.457031 0 58.492188-18.863281 70.445312-45.894531 3.652344-8.257812 10.914063-14.394531 19.671876-16.578125 24.640624-6.136718 47.496093-14.816406 67.542968-25.800781 34.972656-19.164063 48.777344-63 29.855469-98.097656zm0 0" fill="#f9e09d"/><g fill="#423e4f"><path d="m229.425781 321.394531c-5.339843 0-9.660156 4.324219-9.660156 9.65625v16.394531c0 5.335938 4.320313 9.65625 9.660156 9.65625 5.332031 0 9.65625-4.320312 9.65625-9.65625v-16.394531c0-5.332031-4.324219-9.65625-9.65625-9.65625zm0 0"/><path d="m420.238281 347.445312v-16.394531c0-5.332031-4.324219-9.65625-9.65625-9.65625-5.335937 0-9.660156 4.324219-9.660156 9.65625v16.394531c0 5.335938 4.324219 9.65625 9.660156 9.65625 5.332031 0 9.65625-4.320312 9.65625-9.65625zm0 0"/><path d="m297.054688 373.914062c6.972656 3.003907 14.753906 4.683594 22.945312 4.683594 8.199219 0 15.972656-1.679687 22.945312-4.683594 7.324219-3.15625 5.09375-14.074218-2.882812-14.074218h-40.125c-7.96875 0-10.199219 10.917968-2.882812 14.074218zm0 0"/><path d="m353.984375 390.925781c-4.011719-3.511719-10.113281-3.105469-13.628906.914063-1.554688 1.785156-3.945313 2.8125-6.542969 2.8125s-4.980469-1.027344-6.542969-2.8125c-1.789062-2.066406-4.542969-3.300782-7.273437-3.292969-2.757813.011719-5.445313 1.210937-7.265625 3.292969-1.5625 1.785156-3.949219 2.8125-6.546875 2.8125s-4.980469-1.027344-6.542969-2.8125c-3.511719-4.015625-9.609375-4.425782-13.628906-.914063-4.015625 3.511719-4.425781 9.609375-.914063 13.628907 5.230469 5.980468 12.914063 9.414062 21.085938 9.414062 4.925781 0 9.671875-1.261719 13.8125-3.5625 4.144531 2.304688 8.890625 3.5625 13.816406 3.5625 8.171875 0 15.855469-3.433594 21.085938-9.414062 3.515624-4.019532 3.105468-10.117188-.914063-13.628907zm0 0"/></g><path d="m224.820312 364.691406h-22.179687c-5.332031 0-9.652344 4.320313-9.652344 9.65625 0 5.332032 4.320313 9.660156 9.652344 9.660156h22.179687c5.335938 0 9.65625-4.328124 9.65625-9.660156 0-5.335937-4.320312-9.65625-9.65625-9.65625zm0 0" fill="#ff889e"/><path d="m437.359375 364.691406h-22.179687c-5.332032 0-9.65625 4.320313-9.65625 9.65625 0 5.332032 4.324218 9.660156 9.65625 9.660156h22.179687c5.332031 0 9.65625-4.328124 9.65625-9.660156 0-5.335937-4.324219-9.65625-9.65625-9.65625zm0 0" fill="#ff889e"/></svg>