<svg height="682pt" viewBox="-64 -21 682 682.66565" width="682pt" xmlns="http://www.w3.org/2000/svg"><path d="m507.085938.160156c4.050781-.945312 7.777343 2.4375 7.214843 6.558594-9.542969 69.6875 47.433594 131.136719 35.839844 218.894531-12.035156 91.128907-80.78125 129.820313-80.78125 129.820313l-59.707031-199.976563s17.886718-136.710937 97.433594-155.296875zm0 0" fill="#de8957"/><path d="m508.238281 321.230469c-.503906-16.070313-1.90625-33.453125-4.738281-51.367188-8.78125-55.527343-28.832031-100.777343-59.59375-134.503906-7.671875-8.40625-15.933594-16.027344-24.761719-22.871094-7.054687 24.390625-9.492187 42.96875-9.492187 42.96875l59.707031 199.976563s19.070313-10.738282 38.878906-34.203125zm0 0" fill="#c76d33"/><path d="m474.152344 104.980469c2.238281-3.082031 7.035156-2.265625 8.15625 1.382812 2.226562 7.238281 4.605468 14.382813 6.964844 21.484375 10.257812 30.828125 19.945312 59.949219 15.621093 92.734375-8.046875 60.921875-52.535156 87.53125-52.980469 87.78125l-11-68.894531c2.164063-15.984375 2.34375-92.011719 33.238282-134.488281zm0 0" fill="#ffb2c1"/><path d="m351.546875 595.722656c0-24.453125-34.445313-44.273437-76.941406-44.273437-42.496094 0-76.945313 19.820312-76.945313 44.273437s34.449219 44.277344 76.945313 44.277344c42.496093 0 76.941406-19.824219 76.941406-44.277344zm0 0" fill="#9f5424"/><path d="m42.125.160156c-4.054688-.945312-7.777344 2.4375-7.21875 6.558594 9.542969 69.6875-47.433594 131.136719-35.84375 218.894531 12.035156 91.128907 80.785156 129.820313 80.785156 129.820313l59.703125-199.976563c.003907 0-17.878906-136.710937-97.425781-155.296875zm0 0" fill="#de8957"/><path d="m105.304688 135.359375c-30.761719 33.722656-50.8125 78.976563-59.597657 134.503906-2.835937 17.914063-4.230469 35.296875-4.734375 51.367188 19.808594 23.464843 38.875 34.203125 38.875 34.203125l59.703125-199.976563s-2.4375-18.578125-9.488281-42.96875c-8.832031 6.84375-17.089844 14.464844-24.757812 22.871094zm0 0" fill="#c76d33"/><path d="m75.058594 104.980469c-2.242188-3.082031-7.039063-2.265625-8.160156 1.382812-2.226563 7.238281-4.601563 14.382813-6.964844 21.484375-10.253906 30.828125-19.949219 59.949219-15.617188 92.734375 8.046875 60.921875 52.53125 87.53125 52.980469 87.78125l11-68.894531c-2.164063-15.984375-2.34375-92.011719-33.238281-134.488281zm0 0" fill="#ffb2c1"/><path d="m114.0625 525.878906c7.457031 14.832032 16.816406 29.121094 28.707031 42.792969.386719.433594.777344.871094 1.160157 1.3125 26.632812 30.191406 68.476562 41.277344 107 29.570313 7.550781-2.296876 15.613281-3.832032 23.675781-3.832032 8.054687 0 16.117187 1.535156 23.671875 3.832032 38.519531 11.707031 80.371094.621093 106.996094-29.570313.386718-.441406.777343-.878906 1.164062-1.3125 11.886719-13.671875 21.25-27.960937 28.703125-42.792969l-13.097656-58.683594h-291.441407zm0 0" fill="#de8957"/><path d="m498.902344 246.210938c-8.878906-38.632813-23.800782-71.621094-44.574219-98.429688-11.335937 38.476562-11.875 80.304688-13.414063 91.679688l11 68.902343c.375-.214843 32.316407-19.328125 46.988282-62.152343zm0 0" fill="#ff889e"/><path d="m50.308594 246.210938c14.671875 42.824218 46.605468 61.9375 46.988281 62.152343l11-68.894531c-1.542969-11.382812-2.082031-53.210938-13.417969-91.6875-20.773437 26.808594-35.695312 59.792969-44.570312 98.429688zm0 0" fill="#ff889e"/><path d="m468.011719 375.0625c-4.933594 53.660156-9.734375 104.804688-32.871094 150.816406-30.214844-15.359375-84.375-34.429687-126.53125-2.746094h-68.011719c-42.15625-31.683593-96.320312-12.613281-126.535156 2.746094-23.132812-46.011718-27.929688-97.15625-32.871094-150.816406-6.097656-66.230469-8.171875-268.089844 193.414063-268.089844 201.585937 0 199.507812 201.859375 193.40625 268.089844zm0 0" fill="#5c586f"/><path d="m143.910156 570c1.085938 1.183594 2.183594 2.355469 3.296875 3.503906 12.191407 12.554688 27.6875 21.769532 44.492188 26.605469 4.625 1.328125 9.347656 2.332031 14.113281 3 8.128906 1.136719 16.445312 1.308594 24.617188.507813 3.070312-.296876 6.136718-.722657 9.195312-1.300782-21.679688-4.089844-41.851562-15.089844-57.0625-32.332031-.382812-.441406-.773438-.878906-1.160156-1.3125-11.890625-13.671875-21.25-27.960937-28.707032-42.789063-9.433593-18.769531-15.820312-38.390624-20.40625-58.6875h-1.6875l-16.539062 58.6875c1.867188 3.707032 3.847656 7.378907 5.960938 11.019532 6.796874 11.714844 14.726562 23.046875 23.886718 33.097656zm0 0" fill="#c76d33"/><path d="m119.824219 375.0625c-5.898438-64.042969-8.027344-254.890625 174.085937-267.4375-3.015625-.203125-6.082031-.363281-9.199218-.472656-3.285157-.117188-10.027344-.179688-10.105469-.179688-72.445313 0-118.589844 26.074219-147.695313 62.546875-57.707031 72.316407-51.660156 173.664063-39.925781 259.882813 4.171875 30.648437 10.53125 60.097656 22.953125 87.792968 1.304688 2.914063 2.679688 5.8125 4.125 8.6875 9.019531-4.585937 20.171875-9.503906 32.5-13.300781-17.914062-42.484375-22.269531-88.976562-26.738281-137.519531zm0 0" fill="#4f4c5f"/><path d="m308.609375 523.132812c-.011719-3.335937-2.824219-5.984374-6.15625-5.984374h-55.699219c-3.332031 0-6.144531 2.648437-6.152344 5.984374v.058594c0 14.882813 15.222657 26.953125 34.003907 26.953125 18.785156 0 34.003906-12.070312 34.003906-26.953125 0-.019531 0-.039062 0-.058594zm0 0" fill="#423e4f"/><path d="m181.988281 411.964844c-5.335937 0-9.660156-4.320313-9.660156-9.65625v-20.207032c0-5.332031 4.324219-9.65625 9.660156-9.65625 5.332031 0 9.65625 4.324219 9.65625 9.65625v20.207032c0 5.335937-4.324219 9.65625-9.65625 9.65625zm0 0" fill="#423e4f"/><path d="m177.765625 440.527344h-20.351563c-5.339843 0-9.660156-4.324219-9.660156-9.660156 0-5.332032 4.320313-9.65625 9.660156-9.65625h20.351563c5.332031 0 9.65625 4.324218 9.65625 9.65625 0 5.335937-4.324219 9.660156-9.65625 9.660156zm0 0" fill="#ffb2c1"/><path d="m367.222656 411.964844c-5.335937 0-9.660156-4.320313-9.660156-9.65625v-20.207032c0-5.332031 4.324219-9.65625 9.660156-9.65625 5.332032 0 9.65625 4.324219 9.65625 9.65625v20.207032c0 5.335937-4.324218 9.65625-9.65625 9.65625zm0 0" fill="#423e4f"/><path d="m391.796875 440.527344h-20.351563c-5.335937 0-9.65625-4.324219-9.65625-9.660156 0-5.332032 4.320313-9.65625 9.65625-9.65625h20.351563c5.335937 0 9.660156 4.324218 9.660156 9.65625 0 5.335937-4.328125 9.660156-9.660156 9.660156zm0 0" fill="#ffb2c1"/></svg>