<svg height="681pt" viewBox="-21 -71 681.33428 681" width="681pt" xmlns="http://www.w3.org/2000/svg"><path d="m178.273438 21.195312c-33.3125-16.265624-77.898438-32.914062-115.019532-19.589843-23.890625 8.582031-34.472656 31.378906-33.378906 55.648437.492188 10.921875 3.890625 22.558594-.253906 33.171875-4.25 10.875-15.179688 16.886719-21.539063 26.308594-9.503906 14.074219-12.308593 35.800781.898438 48.582031 15.722656 15.210938 42.21875 6.171875 59.773437-.445312zm0 0" fill="#4f4c5f"/><path d="m460.476562 21.195312c33.308594-16.265624 77.898438-32.914062 115.019532-19.589843 23.894531 8.582031 34.472656 31.378906 33.382812 55.648437-.492187 10.921875-3.894531 22.558594.253906 33.171875 4.246094 10.875 15.179688 16.886719 21.539063 26.308594 9.5 14.074219 12.304687 35.800781-.902344 48.582031-15.722656 15.210938-42.21875 6.171875-59.769531-.445312zm0 0" fill="#4f4c5f"/><path d="m549.570312 416.484375c99.394532-171.847656-11.558593-463.097656-218.300781-408.480469-7.804687 2.066406-15.984375 2.066406-23.789062 0-206.738281-54.617187-317.695313 236.632813-218.300781 408.480469zm0 0" fill="#e8a882"/><path d="m127.738281 416.476562c-87.679687-151.582031-11.679687-396.074218 149.363281-414.125-186.964843-20.019531-282.332031 250.910157-187.921874 414.125h460.390624zm0 0" fill="#de8957"/><path d="m159.277344 491.886719c40.527344 27.207031 93.40625 43.722656 160.097656 43.722656 66.675781 0 119.550781-16.503906 160.074219-43.707031v-62.171875h-320.171875zm0 0" fill="#e8a882"/><path d="m197.835938 479.035156v-49.304687h-38.558594v62.15625c40.527344 27.207031 93.40625 43.722656 160.097656 43.722656 7.492188 0 14.789062-.21875 21.933594-.628906-58.917969-4.335938-106.371094-31.035157-143.472656-55.945313zm0 0" fill="#de8957"/><path d="m319.375 166.078125c-13.921875 0-27.84375-3.21875-40.539062-9.664063-19.917969-10.105468-43.703126-10.105468-63.625 0-4.75 2.414063-10.550782.519532-12.960938-4.226562-2.40625-4.753906-.511719-10.550781 4.234375-12.960938 25.386719-12.878906 55.695313-12.878906 81.078125 0 19.917969 10.109376 43.703125 10.109376 63.625 0 25.386719-12.878906 55.699219-12.878906 81.078125 0 4.746094 2.410157 6.640625 8.207032 4.234375 12.960938-2.414062 4.746094-8.210938 6.640625-12.957031 4.226562-19.921875-10.105468-43.710938-10.105468-63.632813 0-12.6875 6.445313-26.613281 9.664063-40.535156 9.664063zm0 0" fill="#de8957"/><path d="m319.375 100.207031c-10.285156 0-20.570312-2.378906-29.949219-7.132812-13.289062-6.75-29.164062-6.75-42.453125 0-4.746094 2.40625-10.546875.511719-12.957031-4.234375-2.40625-4.75-.511719-10.550782 4.234375-12.960938 18.753906-9.515625 41.144531-9.515625 59.902344 0 13.289062 6.746094 29.15625 6.746094 42.449218 0 18.753907-9.515625 41.148438-9.515625 59.898438 0 4.746094 2.410156 6.644531 8.210938 4.234375 12.960938-2.410156 4.746094-8.210937 6.640625-12.957031 4.234375-13.289063-6.75-29.160156-6.746094-42.449219 0-9.378906 4.753906-19.664063 7.132812-29.953125 7.132812zm0 0" fill="#de8957"/><path d="m251.875 259.988281c0-37.460937-32.210938-67.828125-71.949219-67.828125-39.730469 0-71.945312 30.367188-71.945312 67.828125 0 37.464844 32.214843 67.832031 71.945312 67.832031 39.738281 0 71.949219-30.367187 71.949219-67.832031zm0 0" fill="#5c586f"/><path d="m530.769531 259.988281c0-37.460937-32.214843-67.828125-71.945312-67.828125-39.738281 0-71.949219 30.367188-71.949219 67.828125 0 37.464844 32.210938 67.832031 71.949219 67.832031 39.730469 0 71.945312-30.367187 71.945312-67.832031zm0 0" fill="#5c586f"/><path d="m360.734375 258.914062c79.078125 11.53125 147.265625 55.707032 180.09375 119.042969 19.902344 38.40625 4.90625 85.664063-33.5 105.574219-25.4375 13.179688-54.765625 11.050781-77.464844-3.046875-32.519531-20.222656-70.277343-30.453125-108.582031-30.453125h-3.8125c-38.820312 0-76.523438 11.378906-109.875 31.234375-12.113281 7.210937-26.035156 11.066406-40.195312 11.066406-12.140626 0-24.460938-2.835937-35.976563-8.800781-38.40625-19.910156-53.40625-67.167969-33.496094-105.582031 32.824219-63.328125 101.011719-107.507813 180.089844-119.035157zm0 0" fill="#4f4c5f"/><path d="m360.734375 258.914062c-1.535156 21.496094-19.453125 38.464844-41.359375 38.464844-21.890625 0-39.824219-16.96875-41.359375-38.464844 13.515625-1.980468 27.34375-3 41.359375-3s27.847656 1.019532 41.359375 3zm0 0" fill="#423e4f"/><path d="m179.925781 264.359375c-5.320312 0-9.636719-4.316406-9.636719-9.640625v-20.734375c0-5.320313 4.316407-9.640625 9.636719-9.640625 5.328125 0 9.640625 4.320312 9.640625 9.640625v20.734375c0 5.324219-4.3125 9.640625-9.640625 9.640625zm0 0" fill="#423e4f"/><path d="m458.824219 264.359375c-5.328125 0-9.640625-4.316406-9.640625-9.640625v-20.734375c0-5.320313 4.3125-9.640625 9.640625-9.640625 5.320312 0 9.632812 4.320312 9.632812 9.640625v20.734375c0 5.324219-4.3125 9.640625-9.632812 9.640625zm0 0" fill="#423e4f"/><g fill="#5c586f"><path d="m228.9375 370.835938c0 5.480468-4.445312 9.925781-9.925781 9.925781-5.484375 0-9.929688-4.445313-9.929688-9.925781 0-5.484376 4.445313-9.925782 9.929688-9.925782 5.480469 0 9.925781 4.441406 9.925781 9.925782zm0 0"/><path d="m191.875 370.835938c0 5.480468-4.445312 9.925781-9.925781 9.925781-5.484375 0-9.925781-4.445313-9.925781-9.925781 0-5.484376 4.441406-9.925782 9.925781-9.925782 5.480469 0 9.925781 4.441406 9.925781 9.925782zm0 0"/><path d="m210.402344 390.6875c0 5.484375-4.441406 9.929688-9.925782 9.929688-5.480468 0-9.925781-4.445313-9.925781-9.929688 0-5.480469 4.445313-9.925781 9.925781-9.925781 5.484376 0 9.925782 4.445312 9.925782 9.925781zm0 0"/><path d="m429.667969 370.835938c0 5.480468-4.445313 9.925781-9.925781 9.925781-5.484376 0-9.929688-4.445313-9.929688-9.925781 0-5.484376 4.445312-9.925782 9.929688-9.925782 5.480468 0 9.925781 4.441406 9.925781 9.925782zm0 0"/><path d="m466.730469 370.835938c0 5.480468-4.445313 9.925781-9.929688 9.925781-5.480469 0-9.925781-4.445313-9.925781-9.925781 0-5.484376 4.445312-9.925782 9.925781-9.925782 5.484375 0 9.929688 4.441406 9.929688 9.925782zm0 0"/><path d="m448.199219 390.6875c0 5.484375-4.441407 9.929688-9.925781 9.929688-5.480469 0-9.925782-4.445313-9.925782-9.929688 0-5.480469 4.445313-9.925781 9.925782-9.925781 5.484374 0 9.925781 4.445312 9.925781 9.925781zm0 0"/></g></svg>