<svg height="681pt" viewBox="-21 -35 681.33223 681" width="681pt" xmlns="http://www.w3.org/2000/svg"><path d="m24.769531 10.5c1.441407-5.671875 6.332031-9.816406 12.160157-10.363281 25.773437-2.398438 96.863281-4.085938 138.234374 43.390625l-101.195312 199.367187s-88.078125-79.46875-49.199219-232.394531zm0 0" fill="#4f4c5f"/><path d="m613.980469 10.5c-1.445313-5.671875-6.332031-9.816406-12.160157-10.363281-25.773437-2.398438-96.871093-4.085938-138.234374 43.390625l101.191406 199.367187s88.082031-79.46875 49.203125-232.394531zm0 0" fill="#4f4c5f"/><path d="m534.894531 68.84375c-13.136719-18.328125-28.4375-33.894531-45.96875-46.78125-9.136719 5.699219-17.742187 12.746094-25.335937 21.464844l101.1875 199.367187s12.355468-11.144531 25.769531-33.125c-11.351563-50.5-26.3125-99.980469-55.652344-140.925781zm0 0" fill="#423e4f"/><path d="m103.851562 68.84375c-29.339843 40.941406-44.296874 90.425781-55.652343 140.925781 13.414062 21.972657 25.769531 33.125 25.769531 33.125l101.191406-199.367187c-7.59375-8.71875-16.199218-15.765625-25.335937-21.464844-17.535157 12.886719-32.835938 28.453125-45.972657 46.78125zm0 0" fill="#423e4f"/><path d="m568.726562 61.195312c-.59375-4.8125-4.941406-8.300781-9.765624-7.84375-21.585938 2.039063-46.878907 8.605469-62.578126 26.625l30.84375 131.113282c2.46875-2.351563 53.496094-52.382813 41.5-149.894532zm0 0" fill="#ffb2c1"/><path d="m70.023438 61.195312c.59375-4.8125 4.9375-8.300781 9.765624-7.84375 21.578126 2.039063 46.875 8.605469 62.578126 26.625l-30.847657 131.113282c-2.464843-2.351563-53.496093-52.382813-41.496093-149.894532zm0 0" fill="#ffb2c1"/><path d="m534.894531 68.84375c-2.230469-3.109375-4.535156-6.113281-6.890625-9.066406-11.933594 4.140625-23.171875 10.5-31.621094 20.199218l30.847657 131.113282c1.808593-1.722656 29.6875-29.054688 39.734375-81.898438-8.394532-21.410156-18.75-41.753906-32.070313-60.347656zm0 0" fill="#ff889e"/><path d="m110.742188 59.777344c-2.351563 2.953125-4.660157 5.957031-6.890626 9.066406-13.320312 18.59375-23.671874 38.9375-32.074218 60.347656 10.054687 52.84375 37.933594 80.175782 39.742187 81.898438l30.84375-131.113282c-8.445312-9.699218-19.683593-16.058593-31.621093-20.199218zm0 0" fill="#ff889e"/><path d="m213.308594 586.742188c-124.597656-46.664063-182.617188-112.375-206.976563-149.648438-9.84375-15.046875-8.0625-34.847656 4.304688-47.890625 25.199219-26.558594 44.761719-57.167969 52.121093-91.539063 29.449219-137.421874 40.667969-290.265624 256.617188-290.265624s227.167969 152.84375 256.613281 290.265624c7.363281 34.371094 26.921875 64.980469 52.125 91.539063 12.367188 13.042969 14.144531 32.84375 4.300781 47.890625-24.355468 37.273438-82.382812 102.984375-206.972656 149.648438zm0 0" fill="#5c586f"/><path d="m425.441406 586.742188v.015624c-12.113281 4.527344-24.847656 8.890626-38.253906 13.027344-44.15625 13.628906-91.472656 13.628906-135.628906 0-13.40625-4.136718-26.136719-8.5-38.25-13.027344v-.015624c-82.300782-129.21875-14.996094-189.980469 47.628906-261.03125 62.640625-71.050782-27.105469-115.925782 58.4375-222.5 85.535156 106.574218-4.210938 151.449218 58.429688 222.5 62.628906 71.050781 129.9375 131.8125 47.636718 261.03125zm0 0" fill="#e7e7e7"/><path d="m44.886719 437.09375c-9.84375-15.046875-8.0625-34.847656 4.308593-47.890625 25.199219-26.558594 44.761719-57.167969 52.117188-91.539063 28.550781-133.210937 39.96875-280.914062 237.339844-289.84375-6.238282-.277343-12.660156-.429687-19.277344-.429687-215.949219 0-227.167969 152.851563-256.617188 290.273437-7.359374 34.371094-26.921874 64.980469-52.121093 91.539063-12.367188 13.042969-14.148438 32.84375-4.304688 47.886719 20.734375 31.730468 65.871094 84.054687 155.679688 127.710937-64.640625-46.042969-99.601563-100.886719-117.125-127.707031zm0 0" fill="#4f4c5f"/><path d="m356.351562 363.113281c-.011718-3.621093-3.074218-6.503906-6.695312-6.503906h-60.566406c-3.625 0-6.679688 2.882813-6.6875 6.503906v.066407c0 16.1875 16.554687 29.308593 36.972656 29.308593 20.421875 0 36.976562-13.121093 36.976562-29.308593 0-.019532 0-.042969 0-.066407zm0 0" fill="#4f4c5f"/><path d="m368.25 414.957031c-4.011719-3.503906-10.097656-3.097656-13.601562.914063-3.398438 3.882812-8.5 6.113281-14.007813 6.113281s-10.613281-2.230469-14.011719-6.113281c-1.804687-2.082032-4.511718-3.296875-7.257812-3.289063-2.75.015625-5.445313 1.21875-7.253906 3.289063-3.394532 3.882812-8.503907 6.113281-14.003907 6.113281-5.511719 0-10.613281-2.230469-14.011719-6.113281-3.507812-4.011719-9.59375-4.417969-13.601562-.914063-4.011719 3.503907-4.417969 9.59375-.914062 13.601563 7.054687 8.074218 17.453124 12.703125 28.527343 12.703125 7.714844 0 15.101563-2.257813 21.261719-6.355469 6.160156 4.097656 13.546875 6.355469 21.265625 6.355469 11.074219 0 21.46875-4.628907 28.523437-12.703125 3.503907-4.007813 3.09375-10.09375-.914062-13.601563zm0 0" fill="#423e4f"/><path d="m187.816406 282.910156c-5.328125 0-9.640625 4.316406-9.640625 9.636719v21.96875c0 5.324219 4.3125 9.640625 9.640625 9.640625 5.320313 0 9.636719-4.316406 9.636719-9.640625v-21.96875c0-5.320313-4.316406-9.636719-9.636719-9.636719zm0 0" fill="#423e4f"/><path d="m183.21875 334.53125h-22.128906c-5.328125 0-9.640625 4.3125-9.640625 9.640625 0 5.320313 4.3125 9.636719 9.640625 9.636719h22.128906c5.328125 0 9.640625-4.316406 9.640625-9.636719 0-5.328125-4.3125-9.640625-9.640625-9.640625zm0 0" fill="#ffb2c1"/><path d="m460.574219 314.515625v-21.96875c0-5.320313-4.3125-9.636719-9.640625-9.636719s-9.640625 4.316406-9.640625 9.636719v21.96875c0 5.324219 4.3125 9.640625 9.640625 9.640625s9.640625-4.316406 9.640625-9.640625zm0 0" fill="#423e4f"/><path d="m477.660156 334.53125h-22.136718c-5.320313 0-9.636719 4.3125-9.636719 9.640625 0 5.320313 4.316406 9.636719 9.636719 9.636719h22.136718c5.320313 0 9.636719-4.316406 9.636719-9.636719 0-5.328125-4.316406-9.640625-9.636719-9.640625zm0 0" fill="#ffb2c1"/></svg>