<svg height="682pt" viewBox="-21 -80 682.66713 682" width="682pt" xmlns="http://www.w3.org/2000/svg"><path d="m478.464844 123.667969c188.082031 90.347656 82.160156 164.03125 153.542968 301.039062 46.054688 105.917969-120.632812 159.148438-150.117187-39.007812zm0 0" fill="#de8957"/><path d="m161.535156 123.667969c-188.082031 90.347656-82.160156 164.03125-153.542968 301.039062-46.050782 105.917969 120.632812 159.148438 150.117187-39.007812zm0 0" fill="#de8957"/><path d="m524.242188 148.863281c-12.910157-8.296875-28.03125-16.671875-45.777344-25.195312l3.425781 262.03125c2.628906 17.695312 6.367187 33.378906 10.9375 47.207031 5.957031-5.742188 11.335937-11.871094 16.125-18.375 18.28125-24.824219 27.550781-54.324219 27.550781-87.683594 0-48.09375 0-115.410156-12.261718-177.984375zm0 0" fill="#c76d33"/><path d="m161.535156 123.667969c-17.746094 8.519531-32.867187 16.898437-45.773437 25.191406-12.261719 62.570313-12.265625 129.894531-12.265625 177.988281 0 33.359375 9.269531 62.859375 27.550781 87.683594 4.789063 6.503906 10.175781 12.632812 16.125 18.375 4.570313-13.835938 8.308594-29.511719 10.9375-47.210938zm0 0" fill="#c76d33"/><path d="m320 452.339844c-55.238281 0-177.871094-18.425782-177.871094-125.492188 0-135.289062 3.316406-330.429687 177.871094-330.429687s177.871094 195.140625 177.871094 330.429687c0 107.066406-122.632813 125.492188-177.871094 125.492188zm0 0" fill="#e8a882"/><path d="m180.761719 326.847656c0-130.097656 3.097656-315.507812 158.554687-329.546875-6.199218-.5625-12.617187-.882812-19.316406-.882812-174.554688 0-177.871094 195.140625-177.871094 330.429687 0 107.066406 122.632813 125.492188 177.871094 125.492188 5.773438 0 12.289062-.207032 19.316406-.691406-60.21875-4.132813-158.554687-28.917969-158.554687-124.800782zm0 0" fill="#de8957"/><path d="m356.8125 341.152344c-4.019531-3.511719-10.117188-3.105469-13.628906.914062-1.910156 2.183594-4.808594 3.433594-7.957032 3.433594-3.144531 0-6.046874-1.25-7.957031-3.433594-1.785156-2.074218-4.535156-3.292968-7.265625-3.292968-2.753906 0-5.460937 1.21875-7.273437 3.292968-1.910157 2.183594-4.804688 3.433594-7.953125 3.433594-3.152344 0-6.050782-1.25-7.957032-3.433594-3.515624-4.019531-9.613281-4.425781-13.625-.914062-4.019531 3.511718-4.429687 9.609375-.917968 13.628906 5.574218 6.375 13.777344 10.035156 22.5 10.035156 5.449218 0 10.691406-1.425781 15.222656-4.054687 4.53125 2.628906 9.777344 4.054687 15.226562 4.054687 8.71875 0 16.921876-3.660156 22.5-10.035156 3.507813-4.019531 3.097657-10.117188-.914062-13.628906zm0 0" fill="#423e4f"/><path d="m231.613281 247.171875c-5.332031 0-9.660156 4.324219-9.660156 9.65625v18.039063c0 5.332031 4.328125 9.660156 9.660156 9.660156 5.335938 0 9.65625-4.328125 9.65625-9.660156v-18.039063c0-5.332031-4.320312-9.65625-9.65625-9.65625zm0 0" fill="#423e4f"/><path d="m227.84375 287.25h-18.171875c-5.332031 0-9.65625 4.328125-9.65625 9.660156 0 5.335938 4.324219 9.65625 9.65625 9.65625h18.171875c5.335938 0 9.65625-4.320312 9.65625-9.65625 0-5.332031-4.320312-9.660156-9.65625-9.660156zm0 0" fill="#ff889e"/><path d="m418.046875 274.867188v-18.039063c0-5.332031-4.324219-9.65625-9.65625-9.65625-5.339844 0-9.660156 4.324219-9.660156 9.65625v18.039063c0 5.332031 4.320312 9.660156 9.660156 9.660156 5.332031 0 9.65625-4.328125 9.65625-9.660156zm0 0" fill="#423e4f"/><path d="m430.328125 287.25h-18.167969c-5.339844 0-9.660156 4.328125-9.660156 9.660156 0 5.335938 4.320312 9.65625 9.660156 9.65625h18.167969c5.335937 0 9.65625-4.320312 9.65625-9.65625 0-5.332031-4.320313-9.660156-9.65625-9.660156zm0 0" fill="#ff889e"/><path d="m346.617188 303.117188c-.003907-2.609376-2.207032-4.683594-4.820313-4.683594h-43.59375c-2.613281 0-4.8125 2.074218-4.820313 4.683594v.046874c0 11.652344 11.914063 21.097657 26.617188 21.097657s26.617188-9.445313 26.617188-21.097657c0-.015624 0-.027343 0-.046874zm0 0" fill="#423e4f"/></svg>