<svg height="681pt" viewBox="-21 -74 681.33283 681" width="681pt" xmlns="http://www.w3.org/2000/svg"><path d="m137.816406 93.355469c-82.210937-26.8125-127.011718 49.121093-120.597656 146.375 2.652344 40.292969-26.546875 71.484375-14.128906 113.746093 18.957031 64.527344 100.527344 23.65625 114.144531-12.210937zm0 0" fill="#de8957"/><path d="m500.933594 93.355469c82.210937-26.8125 127.011718 49.121093 120.597656 146.375-2.65625 40.292969 26.546875 71.484375 14.128906 113.746093-18.957031 64.527344-100.527344 23.65625-114.148437-12.210937zm0 0" fill="#de8957"/><path d="m579.089844 217.753906c0-46.890625-12.492188-90.917968-34.320313-128.929687-13.113281-2.007813-27.757812-.710938-43.835937 4.53125l20.578125 247.910156c4.121093 10.847656 14.460937 22.148437 27.398437 30.855469 2.59375-4.457032 5.082032-9.210938 7.433594-14.3125 15.519531-33.648438 22.746094-78.152344 22.746094-140.054688zm0 0" fill="#c76d33"/><path d="m95.203125 88.636719c-5.6875 9.8125-10.765625 19.996093-15.183594 30.550781-13.683593 32.667969-20.527343 67.179688-20.347656 102.582031.308594 60.410157 7.6875 103.96875 23.222656 137.085938 2.207031 4.703125 4.527344 9.109375 6.949219 13.261719 12.933594-8.707032 23.269531-20.003907 27.390625-30.851563l20.582031-247.910156c-15.582031-5.078125-29.816406-6.464844-42.613281-4.71875zm0 0" fill="#c76d33"/><path d="m193.433594 426.351562c-49.339844-53.242187-94.449219-55.972656-95.203125-204.773437-.625-122.113281 98.152343-224.503906 220.261719-224.984375 122.546874-.480469 222.046874 98.726562 222.046874 221.160156 0 153.789063-46.183593 154.929688-96.398437 209.859375l-.585937-1.261719zm0 0" fill="#e8a882"/><path d="m193.433594 426.351562h38.558594c-49.34375-53.242187-94.449219-55.972656-95.210938-204.773437-.582031-115.945313 88.445312-214.105469 201.972656-224.128906-1.648437-.144531-3.300781-.269531-4.964844-.378907-5.089843-.335937-10.195312-.472656-15.300781-.472656-95.394531.375-176.550781 62.953125-207.199219 148.535156-19.507812 54.488282-18.222656 124.039063-.582031 179.152344 4.007813 12.519532 9.527344 24.605469 16.90625 35.511719 12.257813 18.144531 29.292969 31.972656 45.367188 46.546875 6.664062 6.03125 13.515625 12.523438 20.453125 20.007812zm0 0" fill="#de8957"/><path d="m444.136719 427.617188c-11.425781 12.488281-23.050781 27.769531-34.386719 48.257812-18.015625 32.539062-52.066406 52.945312-89.257812 52.945312h-2.230469c-37.097657 0-71.195313-20.226562-89.121094-52.691406-11.777344-21.324218-23.863281-37-35.707031-49.777344 0-78.167968 58.925781-68.5 86.617187-126.550781 7.085938-14.835937 22.003907-24.351562 38.4375-24.351562 8.226563 0 16.066407 2.378906 22.722657 6.621093 6.683593 4.222657 12.175781 10.320313 15.71875 17.730469 27.695312 58.050781 86.625 48.382813 86.625 126.550781zm0 0" fill="#e7e7e7"/><path d="m320.484375 528.808594c6.089844-.089844 12.152344-.546875 18.148437-1.640625-29.792968-5.421875-55.988281-23.976563-70.933593-51.046875-11.78125-21.316406-23.863281-36.992188-35.707031-49.769532-11.804688-12.738281-23.363282-22.582031-34.132813-32.230468-2.8125 8.820312-4.425781 19.320312-4.425781 32.230468 4.8125 5.191407 9.664062 10.871094 14.519531 17.203126 7.089844 9.253906 14.195313 19.910156 21.1875 32.566406 18.128906 32.832031 53.898437 53.210937 91.34375 52.6875zm0 0" fill="#c7c5cb"/><g fill="#423e4f"><path d="m352.738281 401.113281c-.011719-3.269531-2.769531-5.867187-6.039062-5.867187h-54.648438c-3.265625 0-6.027343 2.597656-6.039062 5.867187v.0625c0 14.601563 14.9375 26.441407 33.363281 26.441407s33.363281-11.839844 33.363281-26.441407c0-.023437 0-.042969 0-.0625zm0 0"/><path d="m359.921875 446.238281c-4.011719-3.503906-10.097656-3.09375-13.601563.917969-2.375 2.714844-5.960937 4.269531-9.84375 4.269531-3.886718 0-7.472656-1.554687-9.84375-4.269531-1.804687-2.070312-4.523437-3.289062-7.261718-3.289062-2.746094 0-5.445313 1.21875-7.253906 3.289062-2.371094 2.714844-5.957032 4.269531-9.84375 4.269531-3.882813 0-7.46875-1.554687-9.84375-4.269531-3.503907-4.011719-9.59375-4.421875-13.601563-.917969-4.007813 3.503907-4.417969 9.597657-.914063 13.601563 6.035157 6.90625 14.910157 10.863281 24.359376 10.863281 6.152343 0 12.058593-1.6875 17.101562-4.765625 5.042969 3.078125 10.949219 4.765625 17.101562 4.765625 9.449219 0 18.328126-3.957031 24.359376-10.863281 3.503906-4.003906 3.09375-10.097656-.914063-13.601563zm0 0"/><path d="m199.410156 288.609375c-5.328125 0-9.640625 4.316406-9.640625 9.636719v19.824218c0 5.324219 4.3125 9.640626 9.640625 9.640626 5.320313 0 9.636719-4.316407 9.636719-9.640626v-19.824218c0-5.320313-4.316406-9.636719-9.636719-9.636719zm0 0"/></g><path d="m195.261719 332.65625h-19.964844c-5.328125 0-9.640625 4.316406-9.640625 9.640625 0 5.320313 4.3125 9.636719 9.640625 9.636719h19.964844c5.328125 0 9.640625-4.316406 9.640625-9.636719 0-5.324219-4.3125-9.640625-9.640625-9.640625zm0 0" fill="#ff748f"/><path d="m447.210938 318.070312v-19.824218c0-5.320313-4.316407-9.636719-9.640626-9.636719-5.324218 0-9.636718 4.316406-9.636718 9.636719v19.824218c0 5.324219 4.3125 9.640626 9.636718 9.640626 5.324219 0 9.640626-4.316407 9.640626-9.640626zm0 0" fill="#423e4f"/><path d="m461.683594 332.65625h-19.96875c-5.328125 0-9.640625 4.316406-9.640625 9.640625 0 5.320313 4.3125 9.636719 9.640625 9.636719h19.96875c5.320312 0 9.640625-4.316406 9.640625-9.636719 0-5.324219-4.320313-9.640625-9.640625-9.640625zm0 0" fill="#ff748f"/></svg>