<svg height="682pt" viewBox="-21 -80 682.66669 682" width="682pt" xmlns="http://www.w3.org/2000/svg"><path d="m168.101562 35.933594c-66.773437-52.511719-168.101562-66.363282-168.101562 46.21875 0 112.585937 96.308594 33.867187 96.308594 33.867187zm0 0" fill="#77718c"/><path d="m471.898438 35.933594c66.773437-52.511719 168.101562-66.363282 168.101562 46.21875 0 112.585937-96.308594 33.867187-96.308594 33.867187zm0 0" fill="#77718c"/><path d="m562.265625 71.847656c-15.375-22.6875-33.847656-42.183594-55.148437-58.320312-12.269532 6.160156-24.210938 13.753906-35.21875 22.402344l71.792968 80.089843s27.402344 22.394531 52.972656 26.203125c-7.78125-23.3125-18.820312-47.386718-34.398437-70.375zm0 0" fill="#5c586f"/><path d="m96.308594 116.019531 71.785156-80.085937c-11-8.652344-22.941406-16.246094-35.210938-22.40625-21.300781 16.136718-39.773437 35.632812-55.148437 58.320312-15.578125 22.992188-26.617187 47.0625-34.398437 70.378906 25.570312-3.8125 52.972656-26.207031 52.972656-26.207031zm0 0" fill="#5c586f"/><path d="m427.480469 473.421875c87.996093 0 148.433593-49.617187 148.433593-218.496094 0-85.734375-36.375-258.507812-255.914062-258.507812s-255.914062 172.773437-255.914062 258.507812c0 168.878907 60.4375 218.496094 148.433593 218.496094l21.742188-48.96875h163.035156zm0 0" fill="#938ea3"/><path d="m102.71875 254.925781c0-83.15625 34.226562-248.183593 236.597656-258.039062-6.277344-.304688-12.710937-.46875-19.316406-.46875-219.539062 0-255.914062 172.773437-255.914062 258.507812 0 168.878907 60.4375 218.496094 148.433593 218.496094l1.546875-3.484375c-67.445312-13.789062-111.347656-71.085938-111.347656-215.011719zm0 0" fill="#77718c"/><path d="m440.8125 451.617188c0-36.65625-54.089844-66.371094-120.8125-66.371094s-120.8125 29.714844-120.8125 66.371094 54.089844 66.367187 120.8125 66.367187 120.8125-29.710937 120.8125-66.367187zm0 0" fill="#c7c5cb"/><path d="m320 451.617188c29.199219 0 46.683594 7.089843 61.734375 15.921874 62.28125 36.558594 120.679687-53.785156 60.808594-94.167968-.777344-.527344-1.5625-1.042969-2.363281-1.550782-95.367188-60.332031-73.960938-127.472656-120.179688-127.472656s-24.8125 67.140625-120.175781 127.472656c-.800781.507813-1.589844 1.023438-2.363281 1.550782-59.875 40.382812-1.476563 130.726562 60.8125 94.167968 15.042968-8.832031 32.527343-15.921874 61.726562-15.921874zm0 0" fill="#e7e7e7"/><path d="m354.253906 353.207031c-.003906-3.359375-2.84375-6.023437-6.203125-6.023437h-56.105469c-3.355468 0-6.195312 2.664062-6.203124 6.023437v.066407c0 14.988281 15.335937 27.148437 34.257812 27.148437 18.914062 0 34.253906-12.160156 34.253906-27.148437 0-.027344 0-.046876 0-.066407zm0 0" fill="#423e4f"/><path d="m198.125 324.367188c-5.332031 0-9.65625-4.328126-9.65625-9.660157v-19.050781c0-5.339844 4.324219-9.660156 9.65625-9.660156s9.65625 4.320312 9.65625 9.660156v19.050781c0 5.332031-4.324219 9.660157-9.65625 9.660157zm0 0" fill="#423e4f"/><path d="m193.871094 349.238281h-20.507813c-5.332031 0-9.652343-4.324219-9.652343-9.65625 0-5.339843 4.320312-9.660156 9.652343-9.660156h20.507813c5.332031 0 9.652344 4.320313 9.652344 9.660156 0 5.332031-4.320313 9.65625-9.652344 9.65625zm0 0" fill="#ffb2c1"/><path d="m441.875 324.367188c-5.335938 0-9.65625-4.328126-9.65625-9.660157v-19.050781c0-5.339844 4.320312-9.660156 9.65625-9.660156s9.65625 4.320312 9.65625 9.660156v19.050781c0 5.332031-4.320312 9.660157-9.65625 9.660157zm0 0" fill="#423e4f"/><path d="m466.636719 349.238281h-20.507813c-5.332031 0-9.652344-4.324219-9.652344-9.65625 0-5.339843 4.320313-9.660156 9.652344-9.660156h20.507813c5.332031 0 9.652343 4.320313 9.652343 9.660156 0 5.332031-4.320312 9.65625-9.652343 9.65625zm0 0" fill="#ffb2c1"/></svg>