<svg height="681pt" viewBox="-36 -21 681 681.33404" width="681pt" xmlns="http://www.w3.org/2000/svg"><path d="m571.085938 39.867188c-1.925782-11.558594-8.226563-21.9375-17.375-29.257813-15.148438-12.128906-36.089844-14.035156-53.15625-4.800781-27.617188 14.949218-64.898438 44.195312-72.195313 95.25l142.113281 128.367187c81.804688-81.011719 9.585938-135.6875.613282-189.558593zm0 0" fill="#5c586f"/><path d="m599.855469 190.355469c-5.554688-15.484375-12.917969-29.722657-22.117188-42.820313-23.714843-33.765625-59.6875-58.894531-106.917969-74.695312-9.71875-3.25-19.933593-6.136719-30.679687-8.65625-5.601563 10.792968-9.796875 23.023437-11.78125 36.875l142.117187 128.367187c13.875-13.738281 23.308594-26.722656 29.378907-39.070312zm0 0" fill="#4f4c5f"/><path d="m37.167969 39.867188c1.925781-11.558594 8.226562-21.9375 17.375-29.257813 15.148437-12.128906 36.089843-14.035156 53.15625-4.800781 27.617187 14.949218 64.898437 44.195312 72.191406 95.25l-142.113281 128.367187c-81.804688-81.011719-9.582032-135.6875-.609375-189.558593zm0 0" fill="#5c586f"/><path d="m30.515625 147.535156c-9.199219 13.097656-16.5625 27.335938-22.121094 42.820313 6.074219 12.347656 15.507813 25.332031 29.382813 39.070312l142.113281-128.367187c-1.976563-13.851563-6.179687-26.082032-11.777344-36.875-10.746093 2.519531-20.960937 5.40625-30.683593 8.65625-47.226563 15.800781-83.199219 40.929687-106.914063 74.695312zm0 0" fill="#4f4c5f"/><path d="m71.324219 195.554688c-35.167969-34.828126-27.332031-50.957032-8.402344-89.921876 8.246094-16.980468 17.59375-36.207031 21.21875-57.632812.039063-.046875.101563-.105469.191406-.179688.121094-.097656.273438-.148437.417969-.148437.089844 0 .175781.015625.253906.0625 28.128906 15.222656 51.140625 30.316406 47.695313 89.335937zm0 0" fill="#ffb2c1"/><path d="m71.324219 195.554688 61.378906-58.484376c1.613281-27.71875-2.601563-45.746093-10.449219-58.648437-25.445312 10.15625-47.226562 23.292969-65.132812 39.304687-14.324219 30.640626-17.09375 46.839844 14.203125 77.828126zm0 0" fill="#ff889e"/><path d="m536.929688 195.554688c35.167968-34.828126 27.332031-50.957032 8.398437-89.921876-8.242187-16.980468-17.589844-36.207031-21.214844-57.632812-.039062-.046875-.105469-.105469-.191406-.179688-.121094-.097656-.273437-.148437-.414063-.148437-.09375 0-.179687.015625-.257812.0625-28.128906 15.222656-51.140625 30.316406-47.695312 89.335937zm0 0" fill="#ffb2c1"/><path d="m551.132812 117.726562c-17.910156-16.011718-39.6875-29.148437-65.136718-39.304687-7.84375 12.902344-12.058594 30.929687-10.445313 58.648437l61.378907 58.484376c31.292968-30.988282 28.527343-47.1875 14.203124-77.828126zm0 0" fill="#ff889e"/><path d="m79.160156 475.636719c-93.53125-259.367188-52.207031-386.238281 224.964844-386.238281 277.175781 0 318.5 126.871093 224.96875 386.238281zm0 0" fill="#de8957"/><path d="m320.195312 89.550781c-5.269531-.097656-10.621093-.152343-16.070312-.152343-277.171875 0-318.496094 126.871093-224.964844 386.238281h32.128906c-91.695312-254.261719-53.765624-381.191407 208.90625-386.085938zm0 0" fill="#c76d33"/><path d="m518.8125 322.453125c-11.871094-20.703125-37.429688-53.949219-79.164062-53.949219-41.730469 0-67.296876 33.246094-79.167969 53.949219-5.199219 9.074219-7.941407 19.339844-7.941407 29.792969 0 10.457031 2.742188 20.71875 7.941407 29.789062 11.871093 20.710938 37.4375 53.953125 79.167969 53.953125 41.734374 0 67.292968-33.242187 79.164062-53.953125 5.207031-9.070312 7.945312-19.332031 7.945312-29.789062 0-10.453125-2.738281-20.71875-7.945312-29.792969zm0 0" fill="#5c586f"/><path d="m89.4375 322.453125c11.871094-20.703125 37.4375-53.949219 79.167969-53.949219 41.734375 0 67.296875 33.246094 79.167969 53.949219 5.203124 9.074219 7.941406 19.339844 7.941406 29.792969 0 10.457031-2.738282 20.71875-7.941406 29.789062-11.871094 20.710938-37.433594 53.953125-79.167969 53.953125-41.730469 0-67.296875-33.242187-79.167969-53.953125-5.199219-9.070312-7.941406-19.332031-7.941406-29.789062 0-10.453125 2.742187-20.71875 7.941406-29.792969zm0 0" fill="#5c586f"/><path d="m439.648438 349.398438c-5.324219 0-9.640626-4.3125-9.640626-9.632813v-19.980469c0-5.324218 4.316407-9.640625 9.640626-9.640625 5.324218 0 9.640624 4.316407 9.640624 9.640625v19.980469c0 5.320313-4.316406 9.632813-9.640624 9.632813zm0 0" fill="#423e4f"/><path d="m454.402344 547.945312c0-50.144531-67.277344-90.796874-150.277344-90.796874-82.996094 0-150.277344 40.652343-150.277344 90.796874 0 50.152344 67.28125 90.804688 150.277344 90.804688 83 0 150.277344-40.652344 150.277344-90.804688zm0 0" fill="#423e4f"/><path d="m355.75 355.320312c52.664062 7.984376 100.515625 28.25 138.132812 59.03125 43.65625 35.726563 50.082032 100.097657 14.355469 143.746094-28.710937 35.085938-75.90625 46.136719-116.003906 30.578125-26.597656-10.324219-54.742187-16.191406-83.273437-16.175781l-7.4375.011719c-29.367188.011719-58.304688 6.058593-85.710938 16.628906-11.835938 4.550781-24.28125 6.8125-36.691406 6.8125-29.417969 0-58.609375-12.65625-78.804688-37.105469-35.929687-43.5-29.804687-107.882812 13.699219-143.816406 37.726563-31.160156 85.875-51.683594 138.953125-59.710938zm0 0" fill="#4f4c5f"/><path d="m319.789062 302.601562c-9.136718-5.871093-20.824218-5.871093-29.960937 0-15.027344 9.664063-35.960937 27.625-35.960937 52.71875h101.882812c0-25.09375-20.9375-43.054687-35.960938-52.71875zm0 0" fill="#e7e7e7"/><g fill="#423e4f"><path d="m168.605469 349.398438c-5.320313 0-9.640625-4.3125-9.640625-9.632813v-19.980469c0-5.324218 4.320312-9.640625 9.640625-9.640625 5.328125 0 9.640625 4.316407 9.640625 9.640625v19.980469c0 5.320313-4.3125 9.632813-9.640625 9.632813zm0 0"/><path d="m136.597656 500.050781c0 4.640625-3.761718 8.398438-8.398437 8.398438s-8.398438-3.757813-8.398438-8.398438c0-4.636719 3.761719-8.398437 8.398438-8.398437s8.398437 3.761718 8.398437 8.398437zm0 0"/><path d="m171.78125 500.050781c0 4.640625-3.761719 8.398438-8.394531 8.398438-4.640625 0-8.402344-3.757813-8.402344-8.398438 0-4.636719 3.761719-8.398437 8.402344-8.398437 4.632812 0 8.394531 3.761718 8.394531 8.398437zm0 0"/><path d="m154.191406 482.460938c0 4.632812-3.761718 8.394531-8.402344 8.394531-4.636718 0-8.398437-3.761719-8.398437-8.394531 0-4.640626 3.761719-8.402344 8.398437-8.402344 4.640626 0 8.402344 3.761718 8.402344 8.402344zm0 0"/><path d="m488.917969 500.050781c0 4.640625-3.757813 8.398438-8.398438 8.398438s-8.402343-3.757813-8.402343-8.398438c0-4.636719 3.761718-8.398437 8.402343-8.398437s8.398438 3.761718 8.398438 8.398437zm0 0"/><path d="m453.730469 500.050781c0 4.640625-3.761719 8.398438-8.402344 8.398438-4.632813 0-8.394531-3.757813-8.394531-8.398438 0-4.636719 3.761718-8.398437 8.394531-8.398437 4.640625 0 8.402344 3.761718 8.402344 8.398437zm0 0"/><path d="m471.324219 482.460938c0 4.632812-3.761719 8.394531-8.398438 8.394531s-8.398437-3.761719-8.398437-8.394531c0-4.640626 3.761718-8.402344 8.398437-8.402344s8.398438 3.761718 8.398438 8.402344zm0 0"/><path d="m355.75 355.320312c-1.964844 26.671876-24.230469 47.699219-51.390625 47.699219-27.164063 0-49.429687-21.027343-51.390625-47.699219 16.699219-2.535156 33.886719-3.824218 51.390625-3.824218 17.5 0 34.6875 1.289062 51.390625 3.824218zm0 0"/></g></svg>