<svg height="681pt" viewBox="-31 -21 681 681.33713" width="681pt" xmlns="http://www.w3.org/2000/svg"><path d="m453.566406 85.382812c-2.246094-.648437-3.132812-3.347656-1.710937-5.195312 4.070312-5.273438 12.597656-14.765625 26.121093-22.542969 4.609376-2.652343 4.148438-9.410156-.804687-11.347656-16.773437-6.554687-47.375-14.558594-72.117187.980469-2.515626 1.578125-5.683594-.628906-5.019532-3.527344 1.917969-8.410156 6.28125-21.8125 15.835938-33.203125 3.382812-4.027344.789062-10.160156-4.46875-10.402344-22.183594-1.007812-66.636719 2.402344-99.964844 39.902344-1.300781 1.460937-3.609375 1.460937-4.914062 0-33.320313-37.5-77.78125-40.910156-99.960938-39.902344-5.257812.242188-7.847656 6.375-4.46875 10.402344 9.554688 11.390625 13.914062 24.792969 15.839844 33.203125.664062 2.898438-2.507813 5.105469-5.023438 3.527344-24.742187-15.535156-55.34375-7.535156-72.121094-.980469-4.949218 1.9375-5.410156 8.695313-.804687 11.347656 13.53125 7.777344 22.058594 17.269531 26.121094 22.542969 1.429687 1.847656.535156 4.546875-1.703125 5.195312-26.976563 7.773438-164.898438 58.757813-164.898438 288.699219v264.671875h618.964844v-264.671875c0-229.941406-137.929688-280.925781-164.902344-288.699219zm0 0" fill="#e8a882"/><path d="m38.0625 638.753906v-290.375c0-138.835937 50.277344-212.417968 96.054688-250.652344-49.589844 25.597657-134.613282 95.804688-134.613282 276.355469v264.671875zm0 0" fill="#de8957"/><path d="m190.550781 183.492188c-5.328125 0-9.640625-4.3125-9.640625-9.640626v-19.253906c0-5.320312 4.3125-9.640625 9.640625-9.640625 5.320313 0 9.640625 4.320313 9.640625 9.640625v19.253906c0 5.328126-4.320312 9.640626-9.640625 9.640626zm0 0" fill="#423e4f"/><path d="m171.960938 210.304688h-22.101563c-5.320313 0-9.640625-4.320313-9.640625-9.640626 0-5.320312 4.320312-9.640624 9.640625-9.640624h22.101563c5.324218 0 9.636718 4.320312 9.636718 9.640624 0 5.320313-4.3125 9.640626-9.636718 9.640626zm0 0" fill="#ff748f"/><path d="m427.421875 183.492188c-5.328125 0-9.640625-4.3125-9.640625-9.640626v-19.253906c0-5.320312 4.3125-9.640625 9.640625-9.640625 5.320313 0 9.640625 4.320313 9.640625 9.640625v19.253906c0 5.328126-4.320312 9.640626-9.640625 9.640626zm0 0" fill="#423e4f"/><path d="m468.109375 210.304688h-22.101563c-5.320312 0-9.640624-4.320313-9.640624-9.640626 0-5.320312 4.320312-9.640624 9.640624-9.640624h22.101563c5.324219 0 9.640625 4.320312 9.640625 9.640624 0 5.320313-4.316406 9.640626-9.640625 9.640626zm0 0" fill="#ff748f"/><path d="m222.265625 493.101562c0 42.84375 45.699219 38.503907 59.828125 69.644532 4.808594 10.578125 15.269531 17.449218 26.890625 17.449218s22.085937-6.871093 26.886719-17.449218c14.132812-31.140625 59.832031-26.800782 59.832031-69.644532l31.71875-53.203124-68.023437-207.253907h-116.230469l-52.617188 214.257813zm0 0" fill="#de8957"/><path d="m352.957031 188.542969c39.167969 9.414062 75.746094 31.609375 102.660157 66.605469 25.644531 33.328124 44.28125 80.421874 44.28125 146.9375 0 99.246093-35.707032 149.382812-73.839844 174.617187-14.523438 9.617187-33.710938-1.878906-32.265625-19.246094 5.476562-65.84375 5.976562-192.507812-72.25-294.199219-6.351563-8.28125-18.761719-8.28125-25.121094 0-78.21875 101.695313-77.71875 228.355469-72.246094 294.199219 1.441407 17.367188-17.738281 28.863281-32.261719 19.246094-38.132812-25.238281-73.84375-75.371094-73.84375-174.617187 0-66.515626 18.640626-113.609376 44.285157-146.9375 26.914062-34.996094 63.488281-57.191407 102.660156-66.605469zm0 0" fill="#f1c6ad"/><path d="m352.957031 188.542969c-4.84375 19.792969-22.683593 34.480469-43.972656 34.480469-21.285156 0-39.125-14.6875-43.96875-34.480469 28.84375-6.941407 59.09375-6.941407 87.941406 0zm0 0" fill="#423e4f"/></svg>