<svg height="682pt" viewBox="-39 -21 682 682.66702" width="682pt" xmlns="http://www.w3.org/2000/svg"><path d="m582.6875 11.789062c-4.125-7.824218-12.492188-12.457031-21.308594-11.710937-27.78125 2.363281-89.648437 13.65625-127.714844 66.644531l95.640626 185.441406s123.742187-106.90625 53.382812-240.375zm0 0" fill="#4f4c5f"/><path d="m519.03125 98.375c-16.433594-23.1875-36.179688-43.34375-58.554688-59.976562-9.632812 7.789062-18.757812 17.113281-26.8125 28.324218l95.640626 185.441406s17.441406-15.070312 35.507812-40.960937c-6.238281-40.523437-21.757812-78.945313-45.78125-112.828125zm0 0" fill="#423e4f"/><path d="m496.140625 213.78125-.003906-.007812c-.113281.105468-.195313.175781-.210938.1875zm53.808594-147.253906c-1.890625-7.460938-10.132813-11.378906-17.105469-8.125-26.699219 12.457031-70.804688 44.410156-86.964844 66.910156l50.257813 88.460938c2.378906-2.160157 26.078125-24.191407 42.324219-57.335938 15.121093-30.859375 18.953124-60.523438 11.488281-89.910156zm0 0" fill="#ffb2c1"/><path d="m20.804688 11.789062c4.125-7.824218 12.496093-12.457031 21.308593-11.710937 27.78125 2.363281 89.648438 13.65625 127.714844 66.644531l-95.640625 185.441406s-123.738281-106.90625-53.382812-240.375zm0 0" fill="#e7e7e7"/><path d="m38.703125 211.234375c18.058594 25.871094 35.484375 40.929687 35.484375 40.929687l95.640625-185.441406c-8.019531-11.15625-17.09375-20.441406-26.679687-28.210937-54.859376 40.828125-93.519532 102.25-104.445313 172.722656zm0 0" fill="#c7c5cb"/><path d="m107.566406 213.960938c-.015625-.011719-.097656-.082032-.210937-.1875l-.003907.007812zm-42.535156-57.523438c16.246094 33.144531 39.941406 55.175781 42.324219 57.335938l50.261719-88.460938c-16.164063-22.5-60.269532-54.453125-86.96875-66.910156-6.972657-3.253906-15.210938.664062-17.105469 8.125-7.464844 29.386718-3.632813 59.050781 11.488281 89.910156zm0 0" fill="#ffb2c1"/><path d="m107.566406 213.964844c-.015625-.007813-.097656-.085938-.210937-.191406l-.003907.007812zm0 0" fill="#ff889e"/><path d="m101.875 76.5625c-17.34375 19.71875-31.835938 42.003906-42.792969 66.222656 1.742188 4.523438 3.710938 9.074219 5.949219 13.652344 16.246094 33.144531 39.941406 55.175781 42.324219 57.335938l50.261719-88.460938c-10.710938-14.90625-33.6875-33.960938-55.742188-48.75zm0 0" fill="#ff889e"/><path d="m510.449219 412.050781c-39.875 154.417969-135.113281 227.949219-208.703125 227.949219-95.53125 0-227.558594-123.925781-227.558594-387.835938 0-125.679687 101.878906-227.558593 227.558594-227.558593 27.738281 0 54.328125 4.957031 78.890625 14.0625zm0 0" fill="#e7e7e7"/><path d="m112.820312 252.164062c0-119.179687 91.625-216.949218 208.277344-226.734374-6.378906-.535157-12.832031-.824219-19.351562-.824219-125.679688 0-227.558594 101.878906-227.558594 227.558593 0 263.910157 132.027344 387.835938 227.558594 387.835938 6.300781 0 12.757812-.550781 19.320312-1.636719-93.046875-15.3125-208.246094-139.671875-208.246094-386.199219zm0 0" fill="#c7c5cb"/><path d="m339.964844 495.265625c-.011719-3.746094-3.167969-6.726563-6.917969-6.726563h-62.597656c-3.75 0-6.910157 2.980469-6.921875 6.726563v.066406c0 16.730469 17.109375 30.292969 38.21875 30.292969s38.21875-13.5625 38.21875-30.292969c0-.023437 0-.042969 0-.066406zm0 0" fill="#423e4f"/><path d="m496.140625 213.78125-.003906-.007812c-.113281.105468-.195313.175781-.210938.1875zm0 0" fill="#ff889e"/><path d="m538.460938 156.4375c2.261718-4.621094 4.242187-9.207031 6-13.777344-6.980469-15.421875-15.472657-30.242187-25.425782-44.285156-5.414062-7.632812-11.191406-14.933594-17.292968-21.894531-22.09375 14.800781-45.136719 33.894531-55.863282 48.832031l50.257813 88.460938c2.382812-2.160157 26.078125-24.191407 42.324219-57.335938zm0 0" fill="#ff889e"/><path d="m529.304688 252.164062c0 60.613282-6.957032 113.851563-18.855469 159.886719-99.980469-21.277343-175.367188-116.128906-175.367188-229.9375 0-54.03125 17-103.800781 45.554688-143.445312 86.792969 32.074219 148.667969 115.5625 148.667969 213.496093zm0 0" fill="#5c586f"/><g fill="#423e4f"><path d="m351.824219 549.234375c-4.019531-3.511719-10.117188-3.101563-13.628907.917969-3.535156 4.046875-8.851562 6.367187-14.589843 6.367187-5.730469 0-11.046875-2.320312-14.582031-6.367187-1.824219-2.085938-4.519532-3.300782-7.285157-3.296875-2.761719.011719-5.445312 1.214843-7.261719 3.296875-3.539062 4.046875-8.859374 6.367187-14.589843 6.367187-5.734375 0-11.050781-2.320312-14.589844-6.367187-3.511719-4.019532-9.609375-4.429688-13.628906-.917969s-4.429688 9.609375-.917969 13.628906c7.210938 8.246094 17.828125 12.972657 29.136719 12.972657 7.945312 0 15.542969-2.34375 21.859375-6.585938 6.320312 4.242188 13.917968 6.585938 21.859375 6.585938 11.308593 0 21.929687-4.726563 29.136719-12.972657 3.511718-4.019531 3.101562-10.117187-.917969-13.628906zm0 0"/><path d="m196.746094 287.09375c-10-7.507812-30.953125-19.179688-58.945313-12.953125-5.203125 1.15625-8.492187 6.320313-7.332031 11.523437 1.15625 5.207032 6.3125 8.492188 11.523438 7.328126 20.441406-4.539063 35.808593 4.035156 43.152343 9.546874 1.738281 1.304688 3.773438 1.9375 5.792969 1.9375 2.933594 0 5.832031-1.332031 7.726562-3.859374 3.203126-4.257813 2.34375-10.3125-1.917968-13.523438zm0 0"/><path d="m465.691406 274.140625c-28.003906-6.21875-48.945312 5.449219-58.941406 12.960937-4.265625 3.203126-5.125 9.257813-1.917969 13.519532 1.894531 2.523437 4.796875 3.855468 7.726563 3.855468 2.019531 0 4.054687-.628906 5.792968-1.9375 7.339844-5.511718 22.707032-14.085937 43.152344-9.539062 5.203125 1.15625 10.363282-2.125 11.523438-7.335938 1.15625-5.203124-2.125-10.367187-7.335938-11.523437zm0 0"/></g></svg>