<svg height="682pt" viewBox="-21 -29 682.66669 682" width="682pt" xmlns="http://www.w3.org/2000/svg"><path d="m187.363281 422.75-46.152343-325.777344c-83.628907-40.402344-141.210938 32.5625-141.210938 122.167969s69.105469 71.683594 29.421875 199.691406c-14.050781 48.714844 57.601563 126.914063 97.03125 165.347657 12.539063 12.222656 33.460937 7.957031 40.183594-8.207032 13.25-31.867187 28.910156-86.199218 20.726562-153.222656zm0 0" fill="#f8b459"/><path d="m452.636719 422.75 46.152343-325.777344c83.628907-40.402344 141.210938 32.5625 141.210938 122.167969s-69.105469 71.683594-29.421875 199.691406c14.050781 48.714844-57.601563 126.914063-97.03125 165.347657-12.539063 12.222656-33.460937 7.957031-40.183594-8.207032-13.25-31.867187-28.910156-86.199218-20.726562-153.222656zm0 0" fill="#f8b459"/><path d="m567.105469 270.660156c2.988281-18.191406 4.503906-37.671875 4.503906-57.917968 0-46.238282-12.550781-89.597657-34.402344-126.875-12.035156 1.011718-24.882812 4.566406-38.421875 11.105468l-46.148437 325.777344c-3.558594 29.140625-2.605469 55.878906.691406 79.414062 11.351563-28.5625 27.289063-52.070312 44.75-77.8125 27.117187-39.976562 57.859375-85.292968 69.027344-153.691406zm0 0" fill="#f39c18"/><path d="m141.210938 96.972656c-13.535157-6.539062-26.382813-10.09375-38.417969-11.105468-21.855469 37.277343-34.402344 80.636718-34.402344 126.875 0 20.242187 1.511719 39.726562 4.496094 57.878906 11.175781 68.4375 41.914062 113.753906 69.035156 153.734375 17.460937 25.738281 33.398437 49.253906 44.75 77.808593 3.296875-23.535156 4.25-50.273437.691406-79.414062zm0 0" fill="#f39c18"/><path d="m528.984375 264.394531c2.574219-15.65625 3.992187-32.746093 3.992187-51.652343 0-117.625-95.351562-212.992188-212.976562-212.992188s-212.976562 95.367188-212.976562 212.992188c0 18.90625 1.417968 35.996093 3.992187 51.652343l89.9375 39.65625 87.046875 215.054688h78.507812l62.300782-201.394531zm0 0" fill="#f8b459"/><path d="m528.984375 264.394531c-20.121094 123.242188-110.429687 157.816407-128.339844 288.003907-2.789062 20.222656-12.75 37.890624-27.109375 50.519531-14.363281 12.625-33.128906 20.191406-53.535156 20.191406-40.8125 0-75.078125-30.273437-80.644531-70.710937-17.910157-130.1875-108.21875-164.761719-128.339844-288.003907 10.789063-40.519531 47.886719-70.304687 91.882813-69.972656 52.023437.386719 93.640624 43.496094 93.640624 95.535156v143.382813c0 12.964844 10.492188 23.476562 23.460938 23.476562 6.480469 0 12.351562-2.628906 16.59375-6.875 4.246094-4.253906 6.867188-10.113281 6.867188-16.601562v-143.382813c0-52.03125 41.617187-95.148437 93.640624-95.535156 43.996094-.332031 81.09375 29.453125 91.882813 69.972656zm0 0" fill="#f9e09d"/><g fill="#423e4f"><path d="m353.753906 497.148438c-.007812-3.3125-2.800781-5.9375-6.113281-5.9375h-55.28125c-3.3125 0-6.105469 2.625-6.113281 5.9375v.0625c0 14.769531 15.113281 26.753906 33.753906 26.753906s33.753906-11.984375 33.753906-26.753906c0-.023438 0-.042969 0-.0625zm0 0"/><path d="m364.96875 545.105469c-4.015625-3.507813-10.117188-3.097657-13.625.917969-2.910156 3.332031-7.300781 5.242187-12.039062 5.242187-4.734376 0-9.125-1.910156-12.035157-5.242187-1.808593-2.0625-4.53125-3.292969-7.273437-3.292969-2.75 0-5.457032 1.21875-7.269532 3.292969-2.914062 3.332031-7.296874 5.242187-12.039062 5.242187-4.734375 0-9.121094-1.910156-12.03125-5.242187-3.507812-4.015626-9.613281-4.425782-13.625-.917969-4.019531 3.511719-4.429688 9.617187-.921875 13.628906 6.578125 7.53125 16.273437 11.847656 26.578125 11.847656 6.984375 0 13.671875-1.984375 19.308594-5.597656 5.636718 3.613281 12.328125 5.597656 19.308594 5.597656 10.308593 0 19.996093-4.316406 26.578124-11.847656 3.511719-4.011719 3.101563-10.117187-.914062-13.628906zm0 0"/><path d="m239.398438 341.78125c-5.332032 0-9.65625 4.320312-9.65625 9.660156v20.398438c0 5.335937 4.324218 9.660156 9.65625 9.660156 5.335937 0 9.660156-4.324219 9.660156-9.660156v-20.398438c0-5.339844-4.324219-9.660156-9.660156-9.660156zm0 0"/></g><path d="m234.394531 391.464844h-24.140625c-5.332031 0-9.652344 4.324218-9.652344 9.65625 0 5.332031 4.320313 9.660156 9.652344 9.660156h24.140625c5.332031 0 9.660157-4.328125 9.660157-9.660156 0-5.332032-4.328126-9.65625-9.660157-9.65625zm0 0" fill="#ffb2c1"/><path d="m410.257812 371.839844v-20.398438c0-5.339844-4.324218-9.660156-9.65625-9.660156-5.335937 0-9.660156 4.320312-9.660156 9.660156v20.398438c0 5.335937 4.324219 9.660156 9.660156 9.660156 5.332032 0 9.65625-4.324219 9.65625-9.660156zm0 0" fill="#423e4f"/><path d="m429.746094 391.464844h-24.140625c-5.332031 0-9.660157 4.324218-9.660157 9.65625 0 5.332031 4.328126 9.660156 9.660157 9.660156h24.140625c5.332031 0 9.652344-4.328125 9.652344-9.660156 0-5.332032-4.320313-9.65625-9.652344-9.65625zm0 0" fill="#ffb2c1"/></svg>