<svg height="682pt" viewBox="-48 -21 682 682.66669" width="682pt" xmlns="http://www.w3.org/2000/svg"><path d="m115.664062 140.507812c-125.511718 50.742188-138.847656 136.578126-93.011718 233.242188 10.511718 22.171875 12.121094 44.574219 8.367187 65.941406h80.796875zm0 0" fill="#938ea3"/><path d="m467.136719 140.507812c125.515625 50.742188 138.847656 136.578126 93.015625 233.242188-10.515625 22.171875-12.125 44.574219-8.371094 65.941406h-80.800781zm0 0" fill="#938ea3"/><path d="m248.501414 411.384019c-3.979883 4.550171-10.055879 7.462281-16.865968 7.462281-6.81009 0-12.889119-2.91211-16.865969-7.462281" style="fill:none;stroke-width:15;stroke-linecap:round;stroke-linejoin:round;stroke:#000;stroke-miterlimit:10" transform="matrix(1.287726 0 0 1.287726 -28.59945 0)"/><path d="m282.23335 411.384019c-3.979883 4.550171-10.055878 7.462281-16.865968 7.462281s-12.889118-2.91211-16.865968-7.462281" style="fill:none;stroke-width:15;stroke-linecap:round;stroke-linejoin:round;stroke:#000;stroke-miterlimit:10" transform="matrix(1.287726 0 0 1.287726 -28.59945 0)"/><path d="m538.328125 437.738281c0-81.386719-3.542969-185.980469-30.664063-277.417969-11.953124-7.082031-25.417968-13.703124-40.527343-19.8125l3.847656 299.183594h67.332031c0-.652344.011719-1.300781.011719-1.953125zm0 0" fill="#77718c"/><path d="m115.664062 140.507812c-15.109374 6.109376-28.574218 12.730469-40.527343 19.8125-27.121094 91.4375-30.664063 196.03125-30.664063 277.417969 0 .652344.007813 1.300781.019532 1.953125h67.324218zm0 0" fill="#77718c"/><path d="m104.527344 461.875c0 28.992188-23.507813 52.5-52.5 52.5-28.996094 0-52.5-23.507812-52.5-52.5s23.503906-52.5 52.5-52.5c28.992187 0 52.5 23.507812 52.5 52.5zm0 0" fill="#e7e7e7"/><path d="m583.277344 461.875c0 28.992188-23.507813 52.5-52.5 52.5-28.996094 0-52.5-23.507812-52.5-52.5s23.503906-52.5 52.5-52.5c28.992187 0 52.5 23.507812 52.5 52.5zm0 0" fill="#e7e7e7"/><g fill="#c7c5cb"><path d="m478.277344 461.875c0 27.851562 21.691406 50.628906 49.105468 52.378906 7.230469-23.789062 10.945313-49.464844 10.945313-76.515625 0-9.003906-.042969-18.308593-.160156-27.835937-2.417969-.339844-4.882813-.527344-7.390625-.527344-28.996094 0-52.5 23.507812-52.5 52.5zm0 0"/><path d="m52.027344 409.375c-2.511719 0-4.976563.1875-7.394532.527344-.117187 9.527344-.160156 18.832031-.160156 27.835937 0 27.050781 3.714844 52.726563 10.945313 76.515625 27.414062-1.75 49.109375-24.527344 49.109375-52.378906 0-28.992188-23.507813-52.5-52.5-52.5zm0 0"/><path d="m122.1875 571.515625c-30.011719-35.265625-45.523438-81.753906-45.523438-133.777344 0-145.503906 10.773438-437.738281 214.738282-437.738281s214.734375 292.234375 214.734375 437.738281c0 52.027344-15.511719 98.511719-45.523438 133.777344zm0 0"/></g><path d="m115.296875 437.738281c0-140.761719 10.089844-418.851562 195.421875-436.816406-6.382812-.617187-12.792969-.921875-19.207031-.921875-.039063 0-.070313 0-.109375 0-82.863282 0-133.839844 48.234375-165.164063 115.257812-23.5625 50.4375-34.765625 106.070313-41.414062 161.03125-7.160157 59.160157-8.160157 117.113282-8.160157 161.449219 0 29.261719 4.90625 56.773438 14.546876 81.519531 7.378906 18.960938 17.78125 36.753907 30.976562 52.25h38.632812c-30.015624-35.257812-45.523437-81.746093-45.523437-133.769531zm0 0" fill="#938ea3"/><path d="m334.839844 462.710938c57.285156 13.972656 103.988281 55.015624 125.773437 108.804687-36.046875 42.347656-93.035156 68.484375-169.210937 68.484375-76.179688 0-133.164063-26.136719-169.214844-68.484375 21.785156-53.789063 68.492188-94.832031 125.777344-108.804687zm0 0" fill="#938ea3"/><path d="m291.425781 640c6.3125 0 12.890625-.199219 19.292969-.589844-66.550781-4.0625-116.964844-29.210937-149.898438-67.894531-8.382812-9.851563-15.636718-20.578125-21.734374-32.058594-6.636719 10.039063-12.324219 20.761719-16.898438 32.058594 3.378906 3.96875 6.941406 7.796875 10.6875 11.472656 19.648438 19.285157 43.824219 33.644531 69.707031 42.835938 25.839844 9.171875 55.492188 14.175781 88.84375 14.175781zm0 0" fill="#77718c"/><path d="m334.839844 462.710938c-2.574219 21.703124-21.042969 38.539062-43.4375 38.539062-22.402344 0-40.867188-16.835938-43.4375-38.539062 13.925781-3.410157 28.476562-5.210938 43.4375-5.210938 14.960937 0 29.511718 1.800781 43.4375 5.210938zm0 0" fill="#423e4f"/><path d="m169.441406 337.105469c-5.335937 0-9.65625-4.328125-9.65625-9.660157v-21.371093c0-5.335938 4.320313-9.660157 9.65625-9.660157 5.332032 0 9.660156 4.324219 9.660156 9.660157v21.371093c0 5.332032-4.328124 9.660157-9.660156 9.660157zm0 0" fill="#423e4f"/><path d="m163.09375 362.976562h-28.105469c-5.332031 0-9.65625-4.324218-9.65625-9.65625 0-5.332031 4.324219-9.65625 9.65625-9.65625h28.105469c5.332031 0 9.65625 4.324219 9.65625 9.65625 0 5.332032-4.324219 9.65625-9.65625 9.65625zm0 0" fill="#ff889e"/><path d="m413.359375 337.105469c-5.332031 0-9.660156-4.328125-9.660156-9.660157v-21.371093c0-5.335938 4.328125-9.660157 9.660156-9.660157 5.335937 0 9.65625 4.324219 9.65625 9.660157v21.371093c0 5.332032-4.320313 9.660157-9.65625 9.660157zm0 0" fill="#423e4f"/><path d="m447.8125 362.976562h-28.105469c-5.332031 0-9.660156-4.324218-9.660156-9.65625 0-5.332031 4.328125-9.65625 9.660156-9.65625h28.105469c5.332031 0 9.65625 4.324219 9.65625 9.65625 0 5.332032-4.324219 9.65625-9.65625 9.65625zm0 0" fill="#ff889e"/></svg>