<svg height="681pt" viewBox="-45 -21 681 681.33359" width="681pt" xmlns="http://www.w3.org/2000/svg"><path d="m85.109375 7.835938c5.296875-6.347657 13.675781-9.1875 21.707031-7.222657 22.144532 5.40625 68.5625 24.117188 106.378906 88.5l-146.90625 192.585938s-53.78125-186.816407 18.820313-273.863281zm0 0" fill="#4f4c5f"/><path d="m502.972656 7.835938c-5.296875-6.347657-13.671875-9.1875-21.703125-7.222657-22.144531 5.40625-68.5625 24.117188-106.378906 88.5l146.902344 192.585938s53.78125-186.816407-18.820313-273.863281zm0 0" fill="#4f4c5f"/><path d="m519.59375 167.125c-30.039062-52.578125-71.367188-89.796875-121.960938-110.550781-7.742187 9.292969-15.410156 20.042969-22.742187 32.539062l146.902344 192.585938s9.699219-33.699219 15.300781-79.132813c-5.035156-11.855468-10.816406-23.742187-17.5-35.441406zm0 0" fill="#423e4f"/><path d="m68.492188 167.125c-6.6875 11.699219-12.464844 23.585938-17.5 35.441406 5.597656 45.433594 15.296874 79.132813 15.296874 79.132813l146.90625-192.585938c-7.339843-12.492187-15-23.246093-22.746093-32.539062-50.59375 20.753906-91.917969 57.972656-121.957031 110.550781zm0 0" fill="#423e4f"/><path d="m481.496094 69.386719c-2.09375-4.558594-7.695313-6.328125-12.066406-3.871094-16.191407 9.078125-37.128907 26.289063-56.226563 58.796875l65.878906 157.835938c11.203125-39.265626 31.347657-149.863282 2.414063-212.761719zm0 0" fill="#ffb2c1"/><path d="m106.585938 69.386719c2.097656-4.558594 7.695312-6.328125 12.066406-3.871094 16.195312 9.078125 37.128906 26.289063 56.226562 58.796875l-65.875 157.835938c-11.203125-39.265626-31.351562-149.863282-2.417968-212.761719zm0 0" fill="#ffb2c1"/><path d="m495.570312 131.359375c-14.832031-18.839844-31.554687-34.953125-50.019531-48.230469-10.597656 9.839844-21.753906 23.15625-32.347656 41.183594l65.878906 157.835938c8.039063-28.1875 20.683594-93.117188 16.488281-150.789063zm0 0" fill="#ff889e"/><path d="m92.511719 131.359375c-4.195313 57.671875 8.449219 122.601563 16.492187 150.789063l65.875-157.835938c-10.59375-18.03125-21.746094-31.34375-32.347656-41.1875-18.464844 13.28125-35.183594 29.394531-50.019531 48.234375zm0 0" fill="#ff889e"/><path d="m294.042969 638.75c-227.207031 0-282.925781-118.835938-295.097657-157.871094-1.816406-5.828125 2.1875-11.914062 7.976563-12.066406 17.414063-.445312 28.382813-4.570312 35.015625-8.601562 5.039062-3.0625 5.902344-10.382813 1.695312-14.628907-17.265624-17.425781-21.550781-37.726562-22.503906-49.164062-.398437-4.757813 2.710938-9.050781 7.152344-9.851563 22.675781-4.074218 28.539062-21.304687 28.539062-21.304687 0-91.40625 41.316407-289.460938 237.222657-289.460938s237.21875 198.054688 237.21875 289.460938c0 0 5.863281 17.230469 28.539062 21.304687 4.441407.800782 7.550781 5.09375 7.15625 9.851563-.957031 11.4375-5.242187 31.734375-22.507812 49.164062-4.203125 4.246094-3.34375 11.566407 1.695312 14.628907 6.632813 4.035156 17.605469 8.15625 35.015625 8.601562 5.789063.152344 9.796875 6.238281 7.976563 12.066406-12.171875 39.035156-67.886719 157.871094-295.09375 157.871094zm0 0" fill="#5c586f"/><g fill="#423e4f"><path d="m327.519531 436.238281c-.007812-3.28125-2.78125-5.890625-6.058593-5.890625h-54.835938c-3.285156 0-6.050781 2.609375-6.0625 5.890625v.0625c0 14.648438 14.992188 26.535157 33.480469 26.535157s33.476562-11.886719 33.476562-26.535157c0-.019531 0-.039062 0-.0625zm0 0"/><path d="m338.6875 483.765625c-4.007812-3.5-10.097656-3.09375-13.601562.914063-2.875 3.292968-7.207032 5.175781-11.890626 5.175781-4.683593 0-9.023437-1.882813-11.898437-5.175781-1.816406-2.074219-4.515625-3.289063-7.273437-3.28125-2.738282.003906-5.429688 1.21875-7.238282 3.28125-2.875 3.292968-7.210937 5.175781-11.894531 5.175781-4.679687 0-9.015625-1.882813-11.890625-5.175781-3.503906-4.007813-9.597656-4.414063-13.601562-.914063-4.007813 3.503906-4.414063 9.59375-.910157 13.601563 6.535157 7.480468 16.15625 11.769531 26.402344 11.769531 6.925781 0 13.558594-1.964844 19.152344-5.542969 5.59375 3.578125 12.226562 5.542969 19.144531 5.542969 10.25 0 19.875-4.289063 26.410156-11.769531 3.503906-4.007813 3.09375-10.097657-.910156-13.601563zm0 0"/><path d="m185.085938 365.476562c-5.328126 0-9.640626 4.3125-9.640626 9.640626v23.699218c0 5.324219 4.3125 9.636719 9.640626 9.636719 5.320312 0 9.640624-4.3125 9.640624-9.636719v-23.699218c0-5.328126-4.320312-9.640626-9.640624-9.640626zm0 0"/></g><path d="m180.929688 413.484375h-20.039063c-5.328125 0-9.640625 4.316406-9.640625 9.636719 0 5.324218 4.3125 9.640625 9.640625 9.640625h20.039063c5.320312 0 9.636718-4.316407 9.636718-9.640625 0-5.320313-4.316406-9.636719-9.636718-9.636719zm0 0" fill="#ffb2c1"/><path d="m412.636719 398.816406v-23.699218c0-5.328126-4.3125-9.640626-9.636719-9.640626s-9.636719 4.3125-9.636719 9.640626v23.699218c0 5.324219 4.3125 9.636719 9.636719 9.636719s9.636719-4.3125 9.636719-9.636719zm0 0" fill="#423e4f"/><path d="m427.195312 413.484375h-20.039062c-5.320312 0-9.640625 4.316406-9.640625 9.636719 0 5.324218 4.320313 9.640625 9.640625 9.640625h20.039062c5.324219 0 9.636719-4.316407 9.636719-9.640625 0-5.320313-4.3125-9.636719-9.636719-9.636719zm0 0" fill="#ffb2c1"/></svg>