<svg height="682pt" viewBox="-109 -21 682 682.66739" width="682pt" xmlns="http://www.w3.org/2000/svg"><path d="m79.8125 3.550781c3.609375-3.769531 9.292969-4.664062 13.828125-2.074219 17.714844 10.089844 61.1875 39.59375 79.660156 94.492188l-152.925781 195.480469s-43.617188-180.273438 59.4375-287.898438zm0 0" fill="#5c586f"/><path d="m373.699219 3.550781c-3.609375-3.769531-9.296875-4.664062-13.828125-2.074219-17.714844 10.089844-61.1875 39.59375-79.65625 94.492188l152.921875 195.480469s43.617187-180.273438-59.4375-287.898438zm0 0" fill="#5c586f"/><path d="m20.375 291.449219 152.925781-195.476563c-4.410156-13.105468-10.25-24.746094-16.816406-35.039062-51.320313 17.542968-94.8125 55.125-127.921875 111.25-6.304688 10.683594-12.070312 21.746094-17.339844 33.042968.359375 49.832032 9.152344 86.222657 9.152344 86.222657zm0 0" fill="#4f4c5f"/><path d="m442.289062 205.226562c-5.273437-11.296874-11.035156-22.363281-17.339843-33.042968-33.105469-56.125-76.601563-93.710938-127.917969-111.25-6.570312 10.292968-12.410156 21.933594-16.816406 35.039062l152.921875 195.476563s8.792969-36.390625 9.152343-86.222657zm0 0" fill="#4f4c5f"/><path d="m391.207031 281.40625c.359375-1.488281 31.285157-136.472656-31.585937-227.109375-13.988282 11.972656-39.398438 56.71875-47.871094 81.910156zm0 0" fill="#ffb2c1"/><path d="m62.304688 281.40625c-.359376-1.488281-31.285157-136.472656 31.585937-227.109375 13.988281 11.972656 39.398437 56.71875 47.871094 81.910156zm0 0" fill="#ffb2c1"/><path d="m114.277344 80.941406c-18.40625 11.425782-35.464844 25.914063-51.042969 43.359375-19.191406 77.429688-1.199219 155.972657-.929687 157.105469l79.460937-145.199219c-5.097656-15.148437-16.3125-37.355469-27.488281-55.265625zm0 0" fill="#ff889e"/><path d="m339.234375 80.941406c-11.175781 17.910156-22.390625 40.117188-27.488281 55.265625l79.460937 145.199219c.269531-1.132812 18.261719-79.675781-.929687-157.105469-15.578125-17.445312-32.636719-31.9375-51.042969-43.359375zm0 0" fill="#ff889e"/><path d="m98.074219 567.785156c-13.792969-5.910156-27.289063-11.949218-39.703125-18.957031-27.167969-15.347656-50.414063-35.953125-59.207032-66.960937-8.605468-30.339844-3.460937-62.285157.8007818-92.867188 17.4062502-124.730469 71.9804682-300.832031 226.7929682-300.832031 154.808594 0 209.382813 176.101562 226.789063 300.832031 4.261719 30.582031 9.40625 62.527344.800781 92.867188-8.792968 31.007812-32.039062 51.613281-59.207031 66.960937-12.414063 7.007813-25.910156 13.046875-39.703125 18.957031zm0 0" fill="#f8b459"/><path d="m26.203125 507.621094c-8.597656-30.335938-3.460937-88.039063.800781-118.621094 16.894532-121.03125 68.78125-290.40625 213.273438-300.355469-4.425782-.308593-8.925782-.476562-13.519532-.476562-154.8125 0-209.386718 176.101562-226.7929682 300.832031-4.2617188 30.582031-9.4062498 62.527344-.8007818 92.867188 6.894532 24.308593 22.671876 42.226562 42.261719 56.230468-6.699219-8.902344-11.953125-18.972656-15.222656-30.476562zm0 0" fill="#f39c18"/><path d="m355.4375 567.785156c-36.222656 15.515625-74.417969 30.167969-99.839844 59.285156-7.234375 8.304688-17.820312 12.929688-28.839844 12.929688-11.027343 0-21.609374-4.625-28.84375-12.929688-25.421874-29.117187-63.617187-43.769531-99.839843-59.285156-51.175781-76.515625-48.597657-391.582031 59.570312-391.582031 26.59375 0 44.3125 7.816406 55.140625 15.234375 8.394532 5.742188 19.546875 5.742188 27.941406 0 10.828126-7.417969 28.550782-15.234375 55.140626-15.234375 108.167968 0 110.746093 315.066406 59.570312 391.582031zm0 0" fill="#5c586f"/><g fill="#423e4f"><path d="m260.710938 427.746094c-.007813-3.332032-2.816407-5.976563-6.148438-5.976563h-55.613281c-3.332031 0-6.136719 2.644531-6.148438 5.976563v.058594c0 14.863281 15.199219 26.914062 33.957031 26.914062 18.753907 0 33.953126-12.050781 33.953126-26.914062 0-.019532 0-.039063 0-.058594zm0 0"/><path d="m271.957031 475.347656c-4.019531-3.511718-10.117187-3.105468-13.628906.914063-2.9375 3.363281-7.367187 5.292969-12.148437 5.292969-4.785157 0-9.214844-1.929688-12.152344-5.292969-1.816406-2.082031-4.511719-3.296875-7.269532-3.292969-2.761718.003906-5.457031 1.210938-7.277343 3.292969-2.933594 3.363281-7.363281 5.292969-12.148438 5.292969-4.785156 0-9.214843-1.929688-12.152343-5.292969-3.511719-4.019531-9.613282-4.429688-13.628907-.914063-4.011719 3.511719-4.421875 9.609375-.914062 13.628906 6.609375 7.558594 16.339843 11.894532 26.695312 11.894532 7.023438 0 13.753907-2.003906 19.417969-5.640625 5.671875 3.636719 12.402344 5.640625 19.425781 5.640625 10.355469 0 20.085938-4.335938 26.695313-11.894532 3.507812-4.019531 3.105468-10.117187-.914063-13.628906zm0 0"/><path d="m141.140625 340.429688c-5.332031 0-9.65625 4.320312-9.65625 9.660156v18.871094c0 5.332031 4.324219 9.65625 9.65625 9.65625s9.660156-4.324219 9.660156-9.65625v-18.871094c0-5.339844-4.324219-9.660156-9.660156-9.660156zm0 0"/><path d="m322.027344 368.960938v-18.871094c0-5.339844-4.324219-9.660156-9.65625-9.660156-5.335938 0-9.660156 4.320312-9.660156 9.660156v18.871094c0 5.332031 4.324218 9.65625 9.660156 9.65625 5.332031 0 9.65625-4.324219 9.65625-9.65625zm0 0"/></g><path d="m348.9375 384.730469h-20.957031c-5.335938 0-9.65625 4.324219-9.65625 9.65625 0 5.335937 4.320312 9.65625 9.65625 9.65625h20.957031c5.335938 0 9.660156-4.320313 9.660156-9.65625 0-5.332031-4.324218-9.65625-9.660156-9.65625zm0 0" fill="#ffb2c1"/><path d="m125.535156 384.730469h-20.960937c-5.335938 0-9.660157 4.324219-9.660157 9.65625 0 5.335937 4.324219 9.65625 9.660157 9.65625h20.960937c5.332032 0 9.652344-4.320313 9.652344-9.65625 0-5.332031-4.320312-9.65625-9.652344-9.65625zm0 0" fill="#ffb2c1"/></svg>