<svg height="682pt" viewBox="-21 -35 682.66674 682" width="682pt" xmlns="http://www.w3.org/2000/svg"><path d="m619.234375 523.722656 16.542969 8.273438c1.941406.972656 4.230468-.453125 4.222656-2.628906-.269531-47.367188-23.882812-93.34375-34.238281-111.253907-1.410157-2.441406 1.121093-5.253906 3.699219-4.117187l16.601562 7.324218c2.011719.890626 4.25-.691406 4.089844-2.882812-3.515625-48.042969-30.585938-90.769531-43.71875-108.90625-1.75-2.429688.855468-5.597656 3.582031-4.347656l16.125 7.394531c2.007813.917969 4.285156-.640625 4.128906-2.84375-3.523437-50.410156-39.566406-109.886719-52.878906-130.296875-1.515625-2.335938.800781-5.265625 3.425781-4.328125l23.214844 8.292969c2.148438.765625 4.296875-1.125 3.839844-3.355469-26.308594-126.941406-156.449219-206.640625-252.605469-172.851563-9.898437 3.476563-20.632813 3.476563-30.535156 0-96.152344-33.789062-226.292969 45.910157-252.601563 172.851563-.457031 2.238281 1.691406 4.121094 3.839844 3.355469l23.214844-8.292969c2.625-.9375 4.941406 1.992187 3.425781 4.328125-13.3125 20.414062-49.355469 79.890625-52.878906 130.300781-.15625 2.199219 2.121093 3.757813 4.128906 2.839844l16.125-7.394531c2.722656-1.246094 5.332031 1.917968 3.582031 4.347656-13.132812 18.136719-40.203125 60.863281-43.71875 108.90625-.160156 2.191406 2.078125 3.773438 4.089844 2.882812l16.601562-7.324218c2.578126-1.136719 5.109376 1.675781 3.699219 4.117187-10.355469 17.910157-33.96875 63.890625-34.238281 111.253907-.015625 2.175781 2.28125 3.601562 4.222656 2.628906l16.542969-8.273438c2.550781-1.273437 5.230469 1.492188 3.863281 3.992188-8.128906 14.84375-23.675781 47.363281-24.5898435 80.402344-.04296875 1.65625 1.2617185 3.027343 2.9101565 3.027343h634.101562c1.648438 0 2.953125-1.371093 2.910157-3.027343-.914063-33.039063-16.460938-65.558594-24.589844-80.402344-1.367188-2.5 1.3125-5.265625 3.863281-3.992188zm0 0" fill="#e7e7e7"/><path d="m361.265625 217.230469c42.484375 16.816406 72.382813 58.824219 72.382813 107.214843v58.164063c0 16.355469-16.417969 27.550781-31.664063 21.652344-33.628906-13-81.984375-40.71875-81.984375-92.609375 0 51.890625-48.355469 79.605468-81.980469 92.609375-15.25 5.898437-31.667969-5.296875-31.667969-21.652344v-59.589844c0-48.210937 30-89.398437 72.359376-105.921875zm0 0" fill="#c7c5cb"/><path d="m361.265625 217.230469c-3.675781 19.441406-20.757813 34.144531-41.265625 34.144531-20.5625 0-37.664062-14.769531-41.289062-34.277344 13.050781-5.09375 27.277343-7.832031 42.148437-7.730468 14.257813.105468 27.886719 2.886718 40.40625 7.863281zm0 0" fill="#423e4f"/><path d="m467.417969 166.589844h-294.835938c-5.335937 0-9.65625 4.328125-9.65625 9.660156 0 5.335938 4.320313 9.65625 9.65625 9.65625h35.386719v14.589844c0 5.332031 4.320312 9.660156 9.660156 9.660156 5.332032 0 9.65625-4.328125 9.65625-9.660156v-14.589844h185.429688v14.589844c0 5.332031 4.328125 9.660156 9.660156 9.660156 5.335938 0 9.65625-4.328125 9.65625-9.660156v-14.589844h35.386719c5.335937 0 9.65625-4.320312 9.65625-9.65625 0-5.332031-4.320313-9.660156-9.65625-9.660156zm0 0" fill="#423e4f"/><path d="m213.375 215.707031h-20.503906c-5.332032 0-9.65625 4.324219-9.65625 9.65625s4.324218 9.660157 9.65625 9.660157h20.503906c5.335938 0 9.65625-4.328126 9.65625-9.660157s-4.324219-9.65625-9.65625-9.65625zm0 0" fill="#ffb2c1"/><path d="m447.128906 215.707031h-20.503906c-5.332031 0-9.65625 4.324219-9.65625 9.65625s4.324219 9.660157 9.65625 9.660157h20.503906c5.332032 0 9.660156-4.328126 9.660156-9.660157s-4.328124-9.65625-9.660156-9.65625zm0 0" fill="#ffb2c1"/><path d="m176.828125 19.285156c-58.664063 28.746094-109.347656 86.710938-124.699219 160.761719-.457031 2.238281 1.691406 4.121094 3.839844 3.355469l23.214844-8.292969c2.625-.9375 4.941406 1.992187 3.425781 4.328125-13.3125 20.414062-49.355469 79.890625-52.878906 130.300781-.15625 2.199219 2.121093 3.757813 4.128906 2.839844l16.132813-7.394531c2.71875-1.246094 5.332031 1.917968 3.578124 4.347656-13.136718 18.136719-40.207031 60.863281-43.722656 108.90625-.160156 2.191406 2.078125 3.773438 4.089844 2.882812l16.601562-7.324218c2.582032-1.136719 5.109376 1.675781 3.699219 4.117187-10.355469 17.910157-33.96875 63.890625-34.238281 111.253907-.015625 2.175781 2.28125 3.601562 4.222656 2.628906l16.542969-8.273438c2.550781-1.273437 5.230469 1.492188 3.863281 3.992188-8.128906 14.84375-23.675781 47.363281-24.5898435 80.402344-.04296875 1.65625 1.2617185 3.027343 2.9101565 3.027343h52.816406c18.992187-308.808593 74.9375-490.886719 121.0625-591.859375zm0 0" fill="#c7c5cb"/></svg>