<svg height="681pt" viewBox="-105 -21 681 681.33426" width="681pt" xmlns="http://www.w3.org/2000/svg"><path d="m77.691406 3.960938c5.609375-4.359376 13.191406-5.179688 19.628906-2.167969 20.9375 9.792969 66.179688 37.691406 80.589844 100.425781l-152.886718 153.753906s-80.066407-148.75 52.667968-252.011718zm0 0" fill="#4f4c5f"/><path d="m382.808594 3.960938c-5.605469-4.359376-13.191406-5.179688-19.625-2.167969-20.9375 9.792969-66.183594 37.691406-80.589844 100.425781l152.886719 153.753906s80.0625-148.75-52.671875-252.011718zm0 0" fill="#4f4c5f"/><path d="m453.625 204.277344c-5.21875-14.480469-11.054688-27.660156-17.625-39.605469-20.101562-36.539063-47.21875-61.824219-82.898438-77.308594-17.375-7.542969-37.011718-12.859375-59.855468-16.125-4.351563 9.238281-8.019532 19.523438-10.652344 30.980469l152.886719 153.753906s11.058593-20.558594 18.144531-51.695312zm0 0" fill="#423e4f"/><path d="m24.503906 164.671875c-6.574218 11.945313-12.40625 25.125-17.625 39.605469 7.085938 31.136718 18.148438 51.695312 18.148438 51.695312l152.882812-153.753906c-2.628906-11.464844-6.300781-21.746094-10.652344-30.980469-22.84375 3.265625-42.480468 8.582031-59.851562 16.121094-35.683594 15.488281-62.796875 40.773437-82.902344 77.3125zm0 0" fill="#423e4f"/><path d="m376.496094 65.289062c-4.8125-5.441406-13.277344-5.570312-18.296875-.316406-13.011719 13.609375-28.339844 36.46875-33.613281 59.433594l67.363281 108.136719c1.566406-3.117188 16.59375-34.035157 17.941406-72.722657 1.269531-36.585937-9.699219-67.792968-33.394531-94.53125zm15.460937 167.257813-.007812-.003906c-.078125.15625-.136719.265625-.140625.277343zm0 0" fill="#ffb2c1"/><path d="m50.617188 159.816406c1.34375 38.691406 16.375 69.609375 17.9375 72.726563l67.363281-108.136719c-5.277344-22.964844-20.597657-45.828125-33.609375-59.441406-5.019532-5.253906-13.480469-5.117188-18.300782.316406-23.695312 26.746094-34.664062 57.953125-33.390624 94.535156zm18.078124 73.003906c-.007812-.011718-.0625-.121093-.140624-.277343l-.003907.003906zm0 0" fill="#ffb2c1"/><path d="m100.875 600.695312c34.886719 23.738282 80.054688 38.054688 129.375 38.054688 49.0625 0 94-14.160156 128.816406-37.667969l-46.019531-160.875h-161.472656zm0 0" fill="#4f4c5f"/><path d="m353.101562 87.363281c-3.160156-1.367187-6.394531-2.664062-9.707031-3.886719-8.195312 12.085938-15.488281 26.484376-18.808593 40.929688l67.363281 108.136719c1.566406-3.117188 16.59375-34.035157 17.941406-72.722657.425781-12.308593-.539063-24.011718-2.902344-35.140624-15.273437-15.941407-33.117187-28.304688-53.886719-37.316407zm0 0" fill="#ff889e"/><path d="m391.957031 232.546875-.007812-.003906c-.078125.15625-.136719.265625-.140625.277343zm0 0" fill="#ff889e"/><path d="m68.695312 232.820312c-.007812-.011718-.0625-.121093-.140624-.277343l-.003907.003906zm0 0" fill="#ff889e"/><path d="m53.515625 124.679688c-2.363281 11.128906-3.328125 22.832031-2.898437 35.140624 1.34375 38.6875 16.375 69.605469 17.9375 72.722657l67.363281-108.136719c-3.320313-14.445312-10.613281-28.84375-18.8125-40.929688-3.308594 1.222657-6.542969 2.519532-9.699219 3.886719-20.773438 9.011719-38.621094 21.375-53.890625 37.316407zm0 0" fill="#ff889e"/><path d="m191.632812 489.164062c-48.128906 29.644532-67.246093 110.402344-72.136718 135.511719-.78125 3.96875-5.214844 6.082031-8.738282 4.078125-23.664062-13.386718-31.882812-41.863281-34.550781-55.78125-.78125-4.050781-5.335937-6.078125-8.910156-3.992187-8.640625 5.066406-14.347656 10.726562-18.066406 15.535156-2.992188 3.878906-9.128907 2.640625-10.453125-2.074219-9.429688-33.984375-8.003906-58.957031-6.015625-71.832031.714843-4.613281-3.910157-8.257813-8.207031-6.414063-7.597657 3.25-15.039063 7.871094-20.710938 11.773438-4.089844 2.816406-9.640625-.347656-9.320312-5.3125 21.429687-332.980469 55.015624-411.25 235.726562-411.25 180.714844 0 214.300781 78.269531 235.730469 411.25.320312 4.964844-5.230469 8.128906-9.316407 5.3125-5.671874-3.902344-13.117187-8.527344-20.710937-11.777344-4.300781-1.84375-8.925781 1.804688-8.207031 6.410156 1.992187 12.882813 3.410156 37.851563-6.015625 71.832032-1.324219 4.722656-7.464844 5.960937-10.457031 2.078125-3.71875-4.804688-9.425782-10.464844-18.066407-15.53125-3.570312-2.089844-8.128906-.0625-8.90625 3.992187-2.671875 13.917969-10.886719 42.394532-34.554687 55.777344-3.515625 2.003906-7.957032-.105469-8.730469-4.074219-4.898437-25.109375-24.011719-105.867187-72.144531-135.511719zm0 0" fill="#5c586f"/><path d="m33.078125 510.65625c20.640625-320.777344 52.578125-405.167969 216.449219-410.925781-6.230469-.21875-12.648438-.324219-19.277344-.324219-180.710938 0-214.296875 78.269531-235.726562 411.25-.320313 4.964844 5.226562 8.128906 9.320312 5.3125 5.671875-3.902344 13.109375-8.523438 20.710938-11.773438 4.296874-1.84375 8.917968 1.800782 8.199218 6.414063zm0 0" fill="#4f4c5f"/><g fill="#423e4f"><path d="m268.871094 489.164062c-4.796875 16.808594-20.269532 29.105469-38.621094 29.105469-18.347656 0-33.820312-12.296875-38.617188-29.105469 11.234376-6.917968 24.035157-11.054687 38.617188-11.054687 14.585938-.007813 27.386719 4.136719 38.621094 11.054687zm0 0"/><path d="m273.871094 537.980469c-4.007813-3.503907-10.097656-3.09375-13.601563.910156-2.75 3.148437-6.894531 4.953125-11.378906 4.953125s-8.628906-1.804688-11.378906-4.953125c-1.796875-2.058594-4.53125-3.28125-7.261719-3.28125-2.757812 0-5.441406 1.210937-7.257812 3.28125-2.746094 3.148437-6.898438 4.953125-11.378907 4.953125s-8.628906-1.804688-11.382812-4.953125c-3.503907-4.003906-9.59375-4.414063-13.601563-.910156-4.003906 3.503906-4.414062 9.589843-.910156 13.601562 6.40625 7.335938 15.847656 11.539063 25.894531 11.539063 6.726563 0 13.179688-1.894532 18.636719-5.34375 5.457031 3.449218 11.910156 5.34375 18.640625 5.34375 10.042969 0 19.484375-4.203125 25.890625-11.539063 3.507812-4.011719 3.101562-10.097656-.910156-13.601562zm0 0"/><path d="m145.605469 211.746094c-5.324219 0-9.636719 4.3125-9.636719 9.636718v46.648438c0 5.320312 4.3125 9.640625 9.636719 9.640625s9.636719-4.320313 9.636719-9.640625v-46.648438c0-5.324218-4.3125-9.636718-9.636719-9.636718zm0 0"/><path d="m324.539062 268.03125v-46.648438c0-5.324218-4.3125-9.636718-9.640624-9.636718-5.320313 0-9.640626 4.3125-9.640626 9.636718v46.648438c0 5.320312 4.320313 9.640625 9.640626 9.640625 5.328124 0 9.640624-4.320313 9.640624-9.640625zm0 0"/></g><path d="m133.75 282.074219h-19.503906c-5.320313 0-9.640625 4.3125-9.640625 9.636719 0 5.324218 4.320312 9.636718 9.640625 9.636718h19.503906c5.320312 0 9.640625-4.3125 9.640625-9.636718 0-5.324219-4.320313-9.636719-9.640625-9.636719zm0 0" fill="#ffb2c1"/><path d="m346.257812 282.074219h-19.503906c-5.324218 0-9.636718 4.3125-9.636718 9.636719 0 5.324218 4.3125 9.636718 9.636718 9.636718h19.503906c5.328126 0 9.640626-4.3125 9.640626-9.636718 0-5.324219-4.3125-9.636719-9.640626-9.636719zm0 0" fill="#ffb2c1"/><path d="m166.304688 201.300781h-41.398438c-11.089844 0-20.078125 8.992188-20.078125 20.082031 0 11.085938 8.988281 20.078126 20.078125 20.078126h41.398438c11.089843 0 20.078124-8.992188 20.078124-20.078126.003907-11.089843-8.988281-20.082031-20.078124-20.082031zm0 0" fill="#4f4c5f"/><path d="m294.203125 201.300781h41.394531c11.089844 0 20.082032 8.992188 20.082032 20.082031 0 11.085938-8.992188 20.078126-20.082032 20.078126h-41.394531c-11.09375 0-20.082031-8.992188-20.082031-20.078126 0-11.089843 8.988281-20.082031 20.082031-20.082031zm0 0" fill="#4f4c5f"/></svg>