<svg height="681pt" viewBox="-43 -21 681 681.33271" width="681pt" xmlns="http://www.w3.org/2000/svg"><path d="m72.574219 1.261719c-8.707031-3.015625-18.359375-.097657-24.128907 7.089843-25.5 31.769532-82.765624 131.121094 18.113282 299.316407l116.675781-183.742188s-23.359375-92.425781-110.660156-122.664062zm0 0" fill="#4f4c5f"/><path d="m42.023438 261.792969c6.871093 14.675781 14.996093 29.964843 24.535156 45.875l116.675781-183.742188s-3.921875-15.503906-14.550781-35.894531c-22.84375 11.320312-41.050782 30.921875-50.4375 55.519531-5.585938 14.640625-11.921875 21.863281-28.242188 32.203125-28.28125 17.917969-46.117187 48.582032-47.710937 82.023438-.066407 1.398437-.164063 2.722656-.269531 4.015625zm0 0" fill="#423e4f"/><path d="m112.914062 95.863281c-8.640624-12.609375-18.558593-22.96875-29.667968-31.023437-3.519532-2.554688-8.480469-1.136719-10.210938 2.855468-3.164062 7.304688-6.09375 15.867188-8.273437 25.695313-11.671875 52.671875 4.363281 117.519531 46.363281 187.546875l46.808594-63.605469c-12.585938-40.453125-20.699219-85.972656-45.019532-121.46875zm0 0" fill="#ffb2c1"/><path d="m520.292969 1.261719c8.707031-3.015625 18.355469-.097657 24.125 7.089843 25.503906 31.769532 82.773437 131.121094-18.113281 299.316407l-116.675782-183.742188s23.363282-92.425781 110.664063-122.664062zm0 0" fill="#4f4c5f"/><path d="m550.835938 261.800781c-.101563-1.296875-.195313-2.621093-.261719-4.015625-1.59375-33.4375-19.429688-64.101562-47.710938-82.019531-16.320312-10.34375-22.65625-17.570313-28.238281-32.210937-9.386719-24.597657-27.597656-44.203126-50.445312-55.519532-10.628907 20.386719-14.550782 35.890625-14.550782 35.890625l116.675782 183.742188c9.542968-15.90625 17.660156-31.191407 24.53125-45.867188zm0 0" fill="#423e4f"/><path d="m479.957031 95.863281c8.636719-12.609375 18.550781-22.96875 29.660157-31.023437 3.519531-2.554688 8.484374-1.136719 10.210937 2.855468 3.167969 7.304688 6.101563 15.867188 8.28125 25.695313 11.671875 52.671875-4.363281 117.519531-46.367187 187.546875l-46.8125-63.605469c12.589843-40.453125 20.703124-85.972656 45.027343-121.46875zm0 0" fill="#ffb2c1"/><path d="m481.742188 280.9375c18.613281-31.023438 32.113281-61.027344 40.371093-89.410156-5.695312-5.953125-12.136719-11.261719-19.25-15.761719-16.320312-10.34375-22.65625-17.570313-28.238281-32.210937-2.671875-7-6.0625-13.589844-10.070312-19.707032-13.210938 29.746094-20.148438 63.050782-29.625 93.492188zm0 0" fill="#ff889e"/><path d="m90.003906 175.757812c-7.109375 4.503907-13.554687 9.816407-19.253906 15.769532 8.265625 28.382812 21.765625 58.386718 40.371094 89.410156l46.8125-63.597656c-9.46875-30.441406-16.40625-63.746094-29.625-93.492188-4 6.117188-7.390625 12.707032-10.0625 19.703125-5.585938 14.640625-11.921875 21.867188-28.242188 32.207031zm0 0" fill="#ff889e"/><path d="m4.972656 638.832031 582.925782-.003906c8.398437-17.554687 8.398437-37.96875 0-55.523437-12.714844-26.582032-14.34375-46.507813-5.28125-75.007813 5.933593-18.679687 3.035156-39.039063-7.875-55.316406-16.199219-24.167969-20.894532-43.558594-16.425782-72.65625 3.03125-19.75-3.285156-39.789063-17.09375-54.230469-19.492187-20.382812-27.800781-37.945312-29.15625-66.476562-1-20.929688-12.128906-40.070313-29.835937-51.285157-21.492188-13.617187-34.398438-26.832031-43.628907-51.03125-8.417968-22.0625-28.238281-37.738281-51.636718-40.855469-20.75-2.074218-36.78125-7.449218-54.027344-19.332031-21.976562-15.144531-51.027344-15.144531-73.003906 0-17.3125 11.925781-33.195313 16.558594-54.027344 19.332031-23.402344 3.109376-43.21875 18.789063-51.636719 40.847657-9.160156 24.023437-21.972656 37.3125-43.628906 51.035156-17.707031 11.210937-28.835937 30.351563-29.835937 51.285156-1.339844 28.183594-9.554688 45.980469-29.15625 66.480469-13.8125 14.441406-20.128907 34.480469-17.097657 54.230469 4.425781 28.832031-.050781 48.234375-16.421875 72.65625-10.914062 16.28125-13.816406 36.640625-7.878906 55.320312 8.886719 27.953125 7.535156 48.210938-5.277344 75.003907-8.402344 17.554687-8.402344 37.96875 0 55.527343zm0 0" fill="#f1c6ad"/><path d="m43.523438 583.304688c12.816406-26.792969 14.167968-47.050782 5.285156-75.003907-5.9375-18.671875-3.039063-39.039062 7.875-55.316406 16.371094-24.425781 20.847656-43.824219 16.421875-72.660156-3.03125-19.75 3.285156-39.785157 17.09375-54.230469 19.601562-20.496094 27.816406-38.296875 29.164062-66.480469.992188-20.929687 12.128907-40.066406 29.832031-51.285156 21.652344-13.71875 34.46875-27.011719 43.632813-51.035156 8.410156-22.058594 28.230469-37.738281 51.636719-40.847657 20.828125-2.773437 36.710937-7.40625 54.019531-19.332031 5.386719-3.710937 11.199219-6.507812 17.226563-8.402343-18.566407-5.828126-39.191407-3.03125-55.785157 8.402343-17.308593 11.925781-33.1875 16.558594-54.019531 19.332031-23.402344 3.109376-43.21875 18.789063-51.636719 40.847657-9.160156 24.023437-21.980469 37.316406-43.628906 51.035156-17.707031 11.21875-28.835937 30.351563-29.835937 51.285156-1.34375 28.183594-9.554688 45.984375-29.160157 66.480469-13.808593 14.441406-20.128906 34.480469-17.097656 54.230469 4.425781 28.835937-.046875 48.234375-16.421875 72.660156-10.910156 16.277344-13.8125 36.644531-7.875 55.316406 8.886719 27.953125 7.535156 48.210938-5.28125 75.003907-8.398438 17.554687-8.398438 37.96875 0 55.527343h38.554688c-8.394532-17.558593-8.394532-37.972656 0-55.527343zm0 0" fill="#e8a882"/><g fill="#423e4f"><path d="m330.691406 446.367188c-.007812-3.359376-2.84375-6.027344-6.203125-6.027344h-56.109375c-3.359375 0-6.191406 2.667968-6.199218 6.027344v.0625c0 14.992187 15.335937 27.148437 34.253906 27.148437 18.921875 0 34.257812-12.15625 34.257812-27.148437 0-.019532 0-.042969 0-.0625zm0 0"/><path d="m341.96875 497.824219c-4.011719-3.503907-10.101562-3.09375-13.605469.910156-2.984375 3.417969-7.480469 5.375-12.335937 5.375-4.859375 0-9.351563-1.957031-12.339844-5.375-1.796875-2.066406-4.53125-3.285156-7.257812-3.285156-2.75 0-5.445313 1.21875-7.253907 3.285156-2.988281 3.417969-7.480469 5.375-12.339843 5.375-4.851563 0-9.351563-1.957031-12.332032-5.375-3.507812-4.007813-9.597656-4.414063-13.601562-.914063-4.011719 3.503907-4.421875 9.59375-.917969 13.601563 6.648437 7.605469 16.433594 11.96875 26.851563 11.96875 7.09375 0 13.878906-2.023437 19.597656-5.707031 5.710937 3.683594 12.503906 5.707031 19.589844 5.707031 10.417968 0 20.203124-4.363281 26.851562-11.964844 3.507812-4.011719 3.097656-10.097656-.90625-13.601562zm0 0"/><path d="m178.449219 324.851562c-5.324219 0-9.636719 4.3125-9.636719 9.640626v25.550781c0 5.320312 4.3125 9.636719 9.636719 9.636719s9.640625-4.316407 9.640625-9.636719v-25.550781c0-5.328126-4.316406-9.640626-9.640625-9.640626zm0 0"/></g><path d="m174.195312 375.277344h-20.503906c-5.324218 0-9.640625 4.3125-9.640625 9.636718 0 5.324219 4.316407 9.640626 9.640625 9.640626h20.503906c5.328126 0 9.640626-4.316407 9.640626-9.640626 0-5.324218-4.3125-9.636718-9.640626-9.636718zm0 0" fill="#ff889e"/><path d="m424.054688 360.042969v-25.550781c0-5.328126-4.3125-9.640626-9.636719-9.640626s-9.636719 4.3125-9.636719 9.640626v25.550781c0 5.320312 4.3125 9.636719 9.636719 9.636719s9.636719-4.316407 9.636719-9.636719zm0 0" fill="#423e4f"/><path d="m439.175781 375.277344h-20.507812c-5.320313 0-9.632813 4.3125-9.632813 9.636718 0 5.324219 4.3125 9.640626 9.632813 9.640626h20.507812c5.328125 0 9.640625-4.316407 9.640625-9.640626 0-5.324218-4.3125-9.636718-9.640625-9.636718zm0 0" fill="#ff889e"/></svg>