<svg height="681pt" viewBox="-21 -60 681.3317 681" width="681pt" xmlns="http://www.w3.org/2000/svg"><path d="m197.542969 62.21875s-28.28125-64.714844-106.714844-64.714844c-45.527344 0-78.171875 29.707032-86.945313 73.632813-2.574218 12.882812-6.671874 29.089843-1.109374 42.046875 8.152343 18.980468 30.234374 15.285156 46.425781 10.539062 20.761719-6.085937 42.734375-22.238281 64.363281-23.863281 13.867188-1.042969 30.65625 2.207031 39.191406 14.3125zm0 0" fill="#b2b0bc"/><path d="m441.207031 62.21875s28.28125-64.714844 106.710938-64.714844c45.527343 0 78.171875 29.707032 86.945312 73.632813 2.570313 12.882812 6.675781 29.089843 1.113281 42.046875-8.152343 18.980468-30.238281 15.285156-46.425781 10.539062-20.765625-6.085937-42.734375-22.238281-64.367187-23.863281-13.871094-1.042969-30.652344 2.207031-39.1875 14.3125zm0 0" fill="#b2b0bc"/><path d="m465.480469 29.550781c-17.109375 16.28125-24.273438 32.667969-24.273438 32.667969l44.789063 51.953125c8.535156-12.105469 25.324218-15.355469 39.191406-14.3125.1875.011719.375.039063.5625.050781-15.277344-27.253906-35.824219-51.175781-60.269531-70.359375zm0 0" fill="#938ea3"/><path d="m116.617188 99.710938c13.203124-.371094 28.214843 3.226562 36.136718 14.460937l44.789063-51.953125s-6.726563-15.371094-22.691407-31.132812c-23.476562 18.871093-43.308593 42.171874-58.234374 68.625zm0 0" fill="#938ea3"/><path d="m319.375 18.117188c-108.472656.777343-195.160156 90.507812-194.796875 198.984374.609375 179.164063 60.625 103.730469 80.339844 256.933594 7.082031 40.886719 39.941406 63.039063 65.617187 74.316406 15.828125 6.953126 32.976563 10.398438 50.269532 10.398438 17.292968 0 34.4375-3.445312 50.269531-10.398438 25.679687-11.277343 58.53125-33.429687 65.621093-74.316406 19.8125-153.984375 80.335938-76.988281 80.335938-259.695312 0-108.847656-88.625-196.996094-197.65625-196.222656zm0 0" fill="#c7c5cb"/><path d="m309.09375 548.351562c-25.679688-11.277343-58.535156-33.429687-65.621094-74.316406-19.714844-153.203125-79.726562-77.769531-80.335937-256.933594-.34375-102.488281 77.019531-188.222656 177.039062-198.039062-6.839843-.667969-13.777343-.992188-20.800781-.945312-108.472656.777343-195.160156 90.507812-194.796875 198.984374.609375 179.167969 60.625 103.734376 80.339844 256.933594 7.082031 40.886719 39.941406 63.039063 65.617187 74.316406 15.828125 6.953126 32.976563 10.398438 50.269532 10.398438 6.464843 0 12.914062-.480469 19.277343-1.445312-10.652343-1.625-21.082031-4.601563-30.988281-8.953126zm0 0" fill="#b2b0bc"/><g fill="#423e4f"><path d="m353.730469 439.4375c-.007813-3.230469-2.734375-5.792969-5.957031-5.792969h-53.929688c-3.230469 0-5.957031 2.566407-5.964844 5.792969v.058594c0 14.410156 14.742188 26.097656 32.929688 26.097656 18.179687 0 32.921875-11.6875 32.921875-26.097656 0-.019532 0-.039063 0-.058594zm0 0"/><path d="m229.574219 287.902344c-5.324219 0-9.640625 4.3125-9.640625 9.640625v20.253906c0 5.324219 4.316406 9.640625 9.640625 9.640625s9.640625-4.316406 9.640625-9.640625v-20.253906c0-5.328125-4.316406-9.640625-9.640625-9.640625zm0 0"/><path d="m421.679688 317.796875v-20.253906c0-5.328125-4.316407-9.640625-9.640626-9.640625-5.324218 0-9.636718 4.3125-9.636718 9.640625v20.253906c0 5.324219 4.3125 9.640625 9.636718 9.640625 5.324219 0 9.640626-4.316406 9.640626-9.640625zm0 0"/></g><path d="m224.941406 335.257812h-22.339844c-5.320312 0-9.636718 4.3125-9.636718 9.640626 0 5.320312 4.316406 9.632812 9.636718 9.632812h22.339844c5.320313 0 9.636719-4.3125 9.636719-9.632812 0-5.328126-4.316406-9.640626-9.636719-9.640626zm0 0" fill="#ff889e"/><path d="m439.007812 335.257812h-22.332031c-5.328125 0-9.640625 4.3125-9.640625 9.640626 0 5.320312 4.3125 9.632812 9.640625 9.632812h22.332031c5.324219 0 9.640626-4.3125 9.640626-9.632812 0-5.328126-4.316407-9.640626-9.640626-9.640626zm0 0" fill="#ff889e"/><path d="m359.027344 484.703125c-4.003906-3.503906-10.089844-3.097656-13.601563.910156-2.085937 2.386719-5.246093 3.757813-8.675781 3.757813-3.433594 0-6.601562-1.371094-8.6875-3.757813-1.800781-2.0625-4.519531-3.285156-7.253906-3.285156-2.753906 0-5.449219 1.214844-7.261719 3.285156-2.085937 2.386719-5.25 3.757813-8.683594 3.757813-3.433593 0-6.59375-1.371094-8.679687-3.757813-3.503906-4.007812-9.597656-4.414062-13.601563-.910156-4.011719 3.503906-4.421875 9.589844-.917969 13.601563 5.75 6.574218 14.207032 10.347656 23.199219 10.347656 5.71875 0 11.21875-1.527344 15.941407-4.332032 4.726562 2.804688 10.222656 4.332032 15.9375 4.332032 8.996093 0 17.453124-3.773438 23.203124-10.347656 3.503907-4.011719 3.09375-10.097657-.917968-13.601563zm0 0" fill="#423e4f"/></svg>