<svg height="682pt" viewBox="-21 -56 682.66726 682" width="682pt" xmlns="http://www.w3.org/2000/svg"><path d="m619.558594 7.863281c5.9375 1.925781 10.425781 6.832031 11.882812 12.902344 8.503906 35.5 30.480469 159.699219-61.191406 216.28125l-152.609375-170.65625s75.675781-99.40625 201.917969-58.527344zm0 0" fill="#ffb25a"/><path d="m440.382812 106.140625 93.714844 105.707031c30.527344-18.84375 46.824219-52.148437 48.449219-98.992187.5625-16.191407-.746094-31.5-2.527344-44.082031-.84375-5.957032-5.445312-10.71875-11.386719-11.65625-7.375-1.167969-14.660156-1.75-21.859374-1.75-21.363282 0-41.945313 5.128906-61.546876 15.371093-26.710937 13.960938-42.789062 32.898438-44.84375 35.402344zm-.226562.273437c.011719-.011718.089844-.109374.226562-.273437l-.007812-.003906zm0 0" fill="#ffb2c1"/><path d="m20.441406 7.863281c-5.9375 1.925781-10.425781 6.832031-11.882812 12.902344-8.5039065 35.5-30.480469 159.699219 61.191406 216.28125l152.609375-170.65625s-75.675781-99.40625-201.917969-58.527344zm0 0" fill="#ffb25a"/><path d="m531.066406 96.203125c-24.585937-24.578125-52.703125-44.339844-83.203125-58.816406-19.707031 15.203125-30.222656 29.003906-30.222656 29.003906l152.609375 170.65625c12.773438-7.882813 23.332031-17.082031 32.039062-27.171875-14.558593-42.3125-38.65625-81.097656-71.222656-113.671875zm0 0" fill="#ff9c20"/><path d="m192.140625 37.386719c-30.503906 14.476562-58.621094 34.238281-83.203125 58.816406-32.570312 32.574219-56.667969 71.359375-71.226562 113.671875 8.707031 10.089844 19.265624 19.289062 32.039062 27.171875l152.609375-170.65625s-10.507813-13.800781-30.21875-29.003906zm0 0" fill="#ff9c20"/><path d="m154.777344 70.746094c-19.605469-10.25-40.1875-15.378906-61.550782-15.378906-7.199218 0-14.484374.582031-21.859374 1.75-5.941407.9375-10.542969 5.699218-11.386719 11.65625-1.78125 12.582031-3.089844 27.890624-2.527344 44.082031 1.625 46.84375 17.921875 80.148437 48.449219 98.992187l93.71875-105.707031c-2.058594-2.503906-18.136719-21.441406-44.84375-35.394531zm44.847656 35.382812-.003906.011719c.136718.164063.214844.257813.222656.273437zm0 0" fill="#ffb2c1"/><g fill="#ff889e"><path d="m440.15625 106.414062c.011719-.011718.089844-.109374.226562-.273437l-.007812-.003906zm0 0"/><path d="m576.34375 154.117188c-12.5-20.839844-27.652344-40.28125-45.277344-57.914063-11.128906-11.121094-22.988281-21.25-35.460937-30.359375-3.492188 1.476562-6.949219 3.105469-10.378907 4.894531-26.710937 13.960938-42.789062 32.898438-44.84375 35.398438l93.714844 105.707031c20.625-12.730469 34.746094-32.070312 42.246094-57.726562zm0 0"/><path d="m154.777344 70.746094c-3.429688-1.796875-6.890625-3.417969-10.382813-4.898438-12.464843 9.105469-24.324219 19.234375-35.453125 30.359375-17.632812 17.628907-32.777344 37.070313-45.285156 57.917969 7.5 25.648438 21.621094 44.992188 42.246094 57.722656l93.71875-105.707031c-2.058594-2.503906-18.136719-21.441406-44.84375-35.394531zm0 0"/><path d="m199.625 106.128906-.003906.011719c.136718.164063.214844.257813.222656.273437zm0 0"/></g><path d="m147.1875 501.304688.011719.039062c-53.410157-47.59375-87.050781-116.898438-87.050781-194.078125 0-143.511719 116.335937-259.847656 259.851562-259.847656s259.851562 116.335937 259.851562 259.847656c0 77.167969-33.625 146.476563-87.039062 194.078125v-.039062zm0 0" fill="#ffb25a"/><path d="m60.148438 307.265625c0 77.179687 33.640624 146.484375 87.050781 194.074219l-.011719-.039063h38.597656c-53.382812-47.589843-87.003906-116.875-87.003906-194.035156 0-137.019531 106.039062-249.253906 240.535156-259.132813-.078125-.011718-.152344-.011718-.222656-.015624-6.320312-.425782-12.730469-.699219-19.09375-.703126-40.367188 0-78.578125 9.203126-112.660156 25.625-16.9375 8.164063-32.988282 18.179688-47.773438 29.796876-60.539062 47.578124-99.417968 121.464843-99.417968 204.429687zm0 0" fill="#ff9c20"/><path d="m492.8125 501.304688v.039062c-45.917969 40.914062-106.460938 65.777344-172.8125 65.777344s-126.878906-24.855469-172.800781-65.777344l-.011719-.039062c33.890625-100.105469 82.4375-86.070313 119.785156-146.71875 10.929688-17.738282 29.859375-29.296876 50.683594-29.882813h4.6875c20.824219.585937 39.757812 12.144531 50.683594 29.882813 37.347656 60.644531 85.894531 46.613281 119.785156 146.71875zm0 0" fill="#e7e7e7"/><path d="m327.734375 566.992188c2.8125 0 5.609375-.253907 8.417969-.382813 1.050781-.066406 2.101562-.128906 3.160156-.207031-58.746094-4.316406-112.0625-28.144532-153.480469-65.0625-9.816406-8.746094-18.957031-18.226563-27.351562-28.355469-3.910157 8.300781-7.683594 17.65625-11.292969 28.316406l.011719.039063c4.304687 3.835937 8.738281 7.535156 13.292969 11.078125 7.625 5.9375 15.605468 11.28125 23.75 16.464843 39.507812 24.257813 85.996093 38.238282 135.757812 38.238282 1.847656 0 7.007812-.128906 7.734375-.128906zm0 0" fill="#c7c5cb"/><path d="m342.945312 362.023438c-.003906-2.246094-1.90625-4.035157-4.15625-4.035157h-37.582031c-2.246093 0-4.144531 1.789063-4.152343 4.035157v.042968c0 10.042969 10.269531 18.1875 22.945312 18.1875 12.671875 0 22.945312-8.148437 22.945312-18.1875 0-.015625 0-.027344 0-.042968zm0 0" fill="#423e4f"/><path d="m214.957031 308.554688c-5.335937 0-9.660156 4.324218-9.660156 9.660156v17.40625c0 5.335937 4.324219 9.660156 9.660156 9.660156 5.332031 0 9.65625-4.324219 9.65625-9.660156v-17.40625c0-5.335938-4.324219-9.660156-9.65625-9.660156zm0 0" fill="#423e4f"/><path d="m208.238281 352.902344h-20.101562c-5.339844 0-9.660157 4.320312-9.660157 9.65625 0 5.332031 4.320313 9.660156 9.660157 9.660156h20.101562c5.332031 0 9.65625-4.328125 9.65625-9.660156 0-5.335938-4.324219-9.65625-9.65625-9.65625zm0 0" fill="#ff889e"/><path d="m434.703125 335.621094v-17.410156c0-5.332032-4.320313-9.65625-9.660156-9.65625-5.332031 0-9.65625 4.324218-9.65625 9.65625v17.410156c0 5.332031 4.324219 9.660156 9.65625 9.660156 5.339843 0 9.660156-4.328125 9.660156-9.660156zm0 0" fill="#423e4f"/><path d="m451.871094 352.902344h-20.109375c-5.332031 0-9.65625 4.320312-9.65625 9.65625 0 5.332031 4.324219 9.660156 9.65625 9.660156h20.109375c5.332031 0 9.65625-4.328125 9.65625-9.660156 0-5.335938-4.324219-9.65625-9.65625-9.65625zm0 0" fill="#ff889e"/><path d="m356.757812 394.492188c-4.019531-3.507813-10.121093-3.105469-13.628906.914062-1.902344 2.171875-4.792968 3.421875-7.929687 3.421875-3.132813 0-6.023438-1.25-7.921875-3.421875-1.835938-2.066406-4.519532-3.289062-7.28125-3.289062-2.726563 0-5.46875 1.234374-7.265625 3.289062-1.898438 2.171875-4.796875 3.421875-7.929688 3.421875-3.136719 0-6.027343-1.25-7.925781-3.421875-3.511719-4.019531-9.613281-4.421875-13.628906-.914062-4.015625 3.507812-4.425782 9.609374-.917969 13.628906 5.574219 6.371094 13.761719 10.023437 22.472656 10.023437 5.445313 0 10.679688-1.425781 15.199219-4.046875 4.523438 2.621094 9.761719 4.046875 15.199219 4.046875 8.710937 0 16.902343-3.652343 22.472656-10.023437 3.511719-4.019532 3.101563-10.117188-.914063-13.628906zm0 0" fill="#423e4f"/></svg>