<svg height="682pt" viewBox="-21 -77 682.668 682" width="682pt" xmlns="http://www.w3.org/2000/svg"><path d="m206.523438 36c-144.46875 1.839844-167.566407 131.878906-171.847657 214.011719-2.316406 44.480469-42.808593 82.28125-33.203125 128.023437 9.734375 46.359375 65.6875 74.925782 107.394532 49.796875l50.71875-41.785156zm0 0" fill="#4f4c5f"/><path d="m433.476562 36c144.46875 1.839844 167.574219 131.878906 171.851563 214.011719 2.3125 44.480469 42.808594 82.28125 33.203125 128.023437-9.738281 46.359375-65.6875 74.925782-107.398438 49.796875l-50.71875-41.785156zm0 0" fill="#4f4c5f"/><path d="m451.542969 466.132812c0-32.664062-58.894531-59.148437-131.542969-59.148437-72.652344 0-131.546875 26.484375-131.546875 59.148437 0 32.671876 58.894531 59.15625 131.546875 59.15625 72.648438 0 131.542969-26.484374 131.542969-59.15625zm0 0" fill="#c7c5cb"/><path d="m328.1875-3.414062c-5.460938.007812-10.921875.007812-16.375 0-148.59375-.164063-212.667969 178.875-198.828125 410.398437h414.027344c13.839843-231.523437-50.234375-410.5625-198.824219-410.398437zm0 0" fill="#de8957"/><path d="m339.3125-3.054688c-3.65625-.222656-7.359375-.367187-11.125-.359374-5.460938.003906-10.921875.003906-16.375 0-148.59375-.164063-212.667969 178.875-198.828125 410.398437h38.632813c-13.492188-225.648437 47.046874-401.414063 187.695312-410.039063zm0 0" fill="#c76d33"/><path d="m319.996094 135.15625c-10.058594 0-18.839844 6.796875-21.398438 16.523438-35.511718 134.933593-96.097656 140.09375-166.097656 222.761718-1.78125 2.039063-3.523438 4.109375-5.210938 6.214844-29.363281 36.734375-23.515624 90.941406 13.90625 119.417969 15.078126 11.476562 32.839844 17.03125 50.449219 17.03125 15.300781.003906 30.421875-4.460938 43.347657-12.640625 26.492187-16.761719 51.902343-38.332032 85.007812-38.332032s58.515625 21.570313 85.011719 38.332032c12.921875 8.179687 28.039062 12.644531 43.34375 12.640625 17.613281 0 35.367187-5.554688 50.449219-17.03125 37.421874-28.476563 43.265624-82.683594 13.90625-119.417969-1.683594-2.105469-3.429688-4.175781-5.214844-6.214844-69.996094-82.667968-130.585938-87.828125-166.097656-222.761718-2.558594-9.726563-11.339844-16.523438-21.394532-16.523438zm0 0" fill="#e7e7e7"/><path d="m220.453125 498.398438c-18.9375-.003907-38.039063-5.980469-54.261719-18.324219-37.460937-28.503907-45.488281-80.972657-20.964844-119.960938-4.207031 4.523438-8.449218 9.277344-12.726562 14.328125-1.78125 2.039063-3.523438 4.105469-5.210938 6.214844-29.363281 36.734375-23.515624 90.941406 13.90625 119.417969 15.078126 11.476562 32.832032 17.03125 50.445313 17.03125 15.304687 0 30.421875-4.460938 43.351563-12.640625 6.828124-4.328125 13.59375-8.964844 20.429687-13.476563-10.984375 4.828125-22.921875 7.410157-34.96875 7.410157zm0 0" fill="#c7c5cb"/><path d="m353.84375 353.589844c-.011719-3.316406-2.8125-5.953125-6.128906-5.953125h-55.429688c-3.316406 0-6.113281 2.636719-6.121094 5.953125v.0625c0 14.8125 15.148438 26.824218 33.835938 26.824218 18.691406 0 33.84375-12.011718 33.84375-26.824218 0-.019532 0-.042969 0-.0625zm0 0" fill="#423e4f"/><path d="m200.882812 264.832031c-5.332031 0-9.65625-4.328125-9.65625-9.660156v-17.539063c0-5.335937 4.324219-9.65625 9.65625-9.65625 5.332032 0 9.660157 4.320313 9.660157 9.65625v17.539063c0 5.332031-4.328125 9.660156-9.660157 9.660156zm0 0" fill="#423e4f"/><path d="m191.546875 289.402344h-20.253906c-5.335938 0-9.65625-4.324219-9.65625-9.660156 0-5.332032 4.320312-9.65625 9.65625-9.65625h20.253906c5.332031 0 9.660156 4.324218 9.660156 9.65625 0 5.335937-4.328125 9.660156-9.660156 9.660156zm0 0" fill="#ffb2c1"/><path d="m439.117188 264.832031c-5.332032 0-9.660157-4.328125-9.660157-9.660156v-17.539063c0-5.335937 4.328125-9.65625 9.660157-9.65625 5.332031 0 9.65625 4.320313 9.65625 9.65625v17.539063c0 5.332031-4.324219 9.660156-9.65625 9.660156zm0 0" fill="#423e4f"/><path d="m468.707031 289.402344h-20.253906c-5.332031 0-9.660156-4.324219-9.660156-9.660156 0-5.332032 4.328125-9.65625 9.660156-9.65625h20.253906c5.335938 0 9.65625 4.324218 9.65625 9.65625 0 5.335937-4.320312 9.660156-9.65625 9.660156zm0 0" fill="#ffb2c1"/></svg>