<svg height="681pt" viewBox="-21 -59 681.33322 681" width="681pt" xmlns="http://www.w3.org/2000/svg"><path d="m633.429688 22.160156c-1.445313-6.644531-6.191407-12.074218-12.550782-14.476562-26.464844-10.007813-100.207031-28.671875-166.574218 39.832031l129.5625 166.097656s75.175781-73.214843 49.5625-191.453125zm0 0" fill="#e8a882"/><path d="m548.269531 177.066406-.382812.375c1.96875-2.003906 40.445312-42.078125 39.78125-108.40625-.113281-11.027344-8.820313-20.152344-19.84375-20.398437-.074219-.007813-.140625-.007813-.210938-.007813-.703125-.011718-1.417969-.023437-2.117187-.023437-27.730469 0-52.128906 11.273437-74.542969 34.40625zm0 0" fill="#ffb2c1"/><path d="m5.320312 22.160156c1.4375-6.644531 6.191407-12.074218 12.550782-14.476562 26.464844-10.007813 100.207031-28.671875 166.574218 39.832031l-129.5625 166.097656s-75.175781-73.214843-49.5625-191.453125zm0 0" fill="#e8a882"/><path d="m90.480469 177.066406.382812.375c-1.96875-2.003906-40.449219-42.078125-39.78125-108.40625.105469-11.027344 8.816407-20.152344 19.84375-20.398437.066407-.007813.140625-.007813.210938-.007813.703125-.011718 1.417969-.023437 2.117187-.023437 27.726563 0 52.128906 11.273437 74.542969 34.40625zm0 0" fill="#ffb2c1"/><path d="m540.546875 65.132812c-16.773437-16.78125-35.125-31.410156-54.710937-43.769531-10.550782 6.824219-21.128907 15.414063-31.53125 26.152344l129.5625 166.097656s14.050781-13.6875 27.929687-38.773437c-15.492187-40.683594-39.542969-78.003906-71.25-109.707032zm0 0" fill="#de8957"/><path d="m540.546875 65.132812c-3.335937-3.34375-6.746094-6.589843-10.210937-9.761718-13.894532 5.632812-26.945313 14.804687-39.382813 27.640625l57.308594 94.039062c3.183593-3.347656 22.960937-25.234375 33.230469-61.574219-11.746094-17.949218-25.417969-34.824218-40.945313-50.34375zm0 0" fill="#ff889e"/><path d="m548.269531 177.066406-.007812-.011718c-.167969.171874-.300781.3125-.375.386718zm0 0" fill="#ff889e"/><path d="m26.953125 174.839844c13.882813 25.085937 27.929687 38.773437 27.929687 38.773437l129.5625-166.097656c-10.402343-10.738281-20.980468-19.328125-31.53125-26.152344-19.585937 12.359375-37.9375 26.988281-54.714843 43.761719-31.703125 31.710938-55.753907 69.03125-71.246094 109.714844zm0 0" fill="#de8957"/><path d="m108.433594 55.378906c-3.46875 3.171875-6.890625 6.402344-10.238282 9.753906-15.519531 15.519532-29.195312 32.394532-40.941406 50.34375 8.199219 28.996094 22.433594 48.785157 29.480469 57.300782l29.0625-37.261719 32-52.503906c-12.433594-12.832031-25.476563-22-39.363281-27.632813zm0 0" fill="#ff889e"/><path d="m593.609375 286.304688c0 151.453124-122.78125 274.234374-274.234375 274.234374-151.457031 0-274.234375-122.78125-274.234375-274.234374 0-151.457032 122.777344-274.234376 274.234375-274.234376 151.453125 0 274.234375 122.777344 274.234375 274.234376zm0 0" fill="#e8a882"/><path d="m83.699219 286.304688c0-144.96875 112.5-263.652344 254.953125-273.546876-6.367188-.445312-12.796875-.6875-19.277344-.6875-151.457031 0-274.234375 122.777344-274.234375 274.234376 0 151.453124 122.777344 274.234374 274.234375 274.234374 6.480469 0 12.910156-.242187 19.277344-.6875-142.453125-9.894531-254.953125-128.578124-254.953125-273.546874zm0 0" fill="#de8957"/><path d="m414.808594 354.023438c0 34.789062-42.730469 62.992187-95.433594 62.992187s-95.433594-28.203125-95.433594-62.992187l95.433594-13.058594zm0 0" fill="#de8957"/><g fill="#f1c6ad"><path d="m517.71875 378.863281c-19.222656-86.925781-103.5-108.476562-160.214844-93.753906h-76.257812c-56.714844-14.722656-140.992188 6.828125-160.214844 93.753906-.480469 2.1875 1.550781 4.101563 3.699219 3.460938 7.207031-2.160157 21.773437-5.839844 37.402343-5.863281 2.382813 0 3.855469 2.621093 2.5625 4.625-5.828124 9.050781-16.507812 30.3125-3.308593 49.058593.941406 1.335938 2.808593 1.613281 4.121093.636719 5.730469-4.242188 21.359376-15.03125 37.234376-19.09375 1.875-.480469 3.710937.945312 3.722656 2.886719.074218 8.484375 2.277344 29.980469 20.894531 49.011719 1.601563 1.636718 4.378906.914062 4.945313-1.308594 4.484374-17.601563 23.710937-77.109375 82.550781-96.777344 2.925781-.980469 6.109375-.980469 9.03125 0 58.839843 19.667969 78.074219 79.175781 82.558593 96.777344.566407 2.222656 3.34375 2.945312 4.945313 1.308594 18.617187-19.03125 20.820313-40.527344 20.894531-49.011719.011719-1.941407 1.847656-3.367188 3.722656-2.886719 15.871094 4.0625 31.503907 14.851562 37.234376 19.09375 1.3125.972656 3.179687.695312 4.121093-.636719 13.199219-18.742187 2.511719-40.007812-3.308593-49.058593-1.292969-2.003907.179687-4.625 2.5625-4.625 15.628906.023437 30.195312 3.703124 37.402343 5.863281 2.144531.640625 4.179688-1.269531 3.699219-3.460938zm0 0"/><path d="m401.027344 223.246094c-3.210938 0-6.351563-1.601563-8.179688-4.519532-2.820312-4.503906-1.476562-10.433593 3.023438-13.269531 1.847656-1.164062 42.128906-26 93.46875-15.746093-2.191406-6.242188-6.042969-12.542969-12.773438-13.839844-4.269531-.820313-7.460937-4.398438-7.792968-8.734375-.324219-4.335938 2.289062-8.355469 6.386718-9.8125.609375-.214844 10.972656-3.84375 24.410156-5.167969-5.648437-6.410156-14.324218-12.113281-26.234374-8.78125-3.816407 1.070312-7.890626-.304688-10.28125-3.457031-2.394532-3.160157-2.613282-7.457031-.550782-10.839844.292969-.484375 4.921875-7.9375 14.074219-15.007813-6.789063-1.554687-15.175781-2.242187-24.359375-.253906-20.171875 4.359375-38.644531 20.027344-54.894531 46.566406-2.777344 4.542969-8.710938 5.972657-13.25 3.1875-4.542969-2.777343-5.972657-8.710937-3.1875-13.25 19.210937-31.378906 41.972656-50.027343 67.664062-55.433593 31.433594-6.617188 55.171875 9.527343 56.164063 10.214843 3.046875 2.113282 4.609375 5.78125 4.027344 9.441407-.585938 3.652343-3.210938 6.65625-6.761719 7.71875-2.816407.835937-5.378907 1.941406-7.683594 3.191406 16.648437 6.050781 27.261719 22.152344 31.359375 32.824219 1.203125 3.140625.683594 6.683594-1.375 9.34375-2.054688 2.664062-5.34375 4.058594-8.6875 3.6875-4.742188-.523438-9.550781-.40625-14.007812.03125 6.84375 9.882812 9.472656 22.542968 9.820312 31.25.121094 3.164062-1.3125 6.1875-3.84375 8.085937-2.53125 1.902344-5.835938 2.4375-8.835938 1.4375-49.628906-16.539062-92.179687 9.40625-92.601562 9.667969-1.589844.992188-3.355469 1.464844-5.097656 1.464844zm0 0"/><path d="m237.734375 223.253906c-1.75 0-3.519531-.472656-5.109375-1.472656-.511719-.316406-43.027344-26.191406-92.601562-9.667969-2.996094 1.003907-6.300782.46875-8.835938-1.4375-2.527344-1.898437-3.964844-4.921875-3.839844-8.085937.339844-8.710938 2.972656-21.378906 9.824219-31.265625-4.445313-.429688-9.253906-.546875-14.011719-.015625-3.347656.371094-6.636718-1.027344-8.691406-3.6875-2.058594-2.660156-2.574219-6.203125-1.371094-9.34375 4.09375-10.671875 14.707032-26.765625 31.351563-32.824219-2.300781-1.25-4.863281-2.355469-7.675781-3.191406-3.546876-1.0625-6.175782-4.066407-6.757813-7.71875-.585937-3.660157.976563-7.328125 4.019531-9.441407 1-.6875 24.734375-16.832031 56.167969-10.214843 25.691406 5.40625 48.457031 24.054687 67.667969 55.433593 2.78125 4.539063 1.351562 10.472657-3.1875 13.25-4.539063 2.785157-10.472656 1.355469-13.257813-3.1875-16.246093-26.539062-34.714843-42.207031-54.890625-46.566406-9.175781-1.984375-17.5625-1.300781-24.359375.257813 9.152344 7.066406 13.777344 14.519531 14.074219 15.003906 2.058594 3.382813 1.84375 7.679687-.550781 10.839844-2.390625 3.152343-6.46875 4.527343-10.28125 3.457031-11.910157-3.332031-20.578125 2.363281-26.234375 8.78125 13.4375 1.324219 23.804687 4.953125 24.410156 5.167969 4.09375 1.457031 6.710938 5.476562 6.382812 9.8125-.328124 4.335937-3.519531 7.914062-7.789062 8.734375-6.730469 1.296875-10.582031 7.597656-12.773438 13.839844 51.339844-10.257813 91.617188 14.582031 93.46875 15.746093 4.503907 2.839844 5.859376 8.792969 3.019532 13.292969-1.835938 2.910156-4.96875 4.503906-8.167969 4.503906zm0 0"/></g><path d="m213.738281 267.054688c-5.324219 0-9.640625-4.316407-9.640625-9.640626v-18.707031c0-5.324219 4.316406-9.640625 9.640625-9.640625s9.636719 4.316406 9.636719 9.640625v18.707031c0 5.324219-4.3125 9.640626-9.636719 9.640626zm0 0" fill="#423e4f"/><path d="m163.644531 281.269531h-20.132812c-5.320313 0-9.636719-4.3125-9.636719-9.636719 0-5.324218 4.316406-9.640624 9.636719-9.640624h20.132812c5.320313 0 9.640625 4.316406 9.640625 9.640624 0 5.324219-4.320312 9.636719-9.640625 9.636719zm0 0" fill="#ff889e"/><path d="m425.011719 267.054688c-5.324219 0-9.636719-4.316407-9.636719-9.640626v-18.707031c0-5.324219 4.3125-9.640625 9.636719-9.640625s9.640625 4.316406 9.640625 9.640625v18.707031c0 5.324219-4.316406 9.640626-9.640625 9.640626zm0 0" fill="#423e4f"/><path d="m495.238281 281.269531h-20.132812c-5.320313 0-9.640625-4.3125-9.640625-9.636719 0-5.324218 4.320312-9.640624 9.640625-9.640624h20.132812c5.320313 0 9.636719 4.316406 9.636719 9.640624 0 5.324219-4.316406 9.636719-9.636719 9.636719zm0 0" fill="#ff889e"/><path d="m357.503906 285.109375c-.011718-3.730469-3.167968-6.703125-6.90625-6.703125h-62.445312c-3.738282 0-6.890625 2.964844-6.902344 6.703125v.070313c0 16.683593 17.066406 30.21875 38.125 30.21875s38.128906-13.535157 38.128906-30.21875c0-.019532 0-.042969 0-.070313zm0 0" fill="#423e4f"/></svg>