<svg height="682pt" viewBox="-54 -21 682 682.66525" width="682pt" xmlns="http://www.w3.org/2000/svg"><path d="m512.363281.0664062c7.253907-.5859372 14.269531 2.6992188 18.410157 8.6874998 22.125 31.976563 84.550781 145.277344-3.75 307.292969l-180.585938-192.410156s59.039062-114.953125 165.925781-123.5703128zm0 0" fill="#ffa83f"/><path d="m389.121094 162.191406 87.472656 143.132813c56.316406-103.324219 40.773438-180.847657 22.917969-222.550781-3.183594-7.4375-11.738281-10.964844-19.238281-7.925782-55.210938 22.363282-89.003907 83.375-91.152344 87.34375zm-.113282.203125c.015626-.019531.054688-.097656.113282-.203125l-.007813-.003906zm0 0" fill="#ffb2c1"/><path d="m58.613281.0664062c-7.257812-.5859372-14.269531 2.6992188-18.414062 8.6874998-22.121094 31.976563-84.550781 145.277344 3.75 307.292969l180.589843-192.410156s-59.039062-114.953125-165.925781-123.5703128zm0 0" fill="#ffa83f"/><path d="m550.605469 265.285156c-14.988281-38.097656-36.472657-76.066406-67.253907-107.824218-32.035156-33.042969-70.382812-55.792969-114.558593-68.085938-14.730469 19.417969-22.355469 34.261719-22.355469 34.261719l180.585938 192.410156c9.542968-17.503906 17.316406-34.4375 23.582031-50.761719zm0 0" fill="#f39c18"/><path d="m43.949219 316.046875 180.589843-192.410156s-7.625-14.84375-22.351562-34.261719c-44.179688 12.289062-82.527344 35.042969-114.5625 68.085938-30.785156 31.75-52.265625 69.726562-67.25 107.824218 6.265625 16.324219 14.03125 33.257813 23.574219 50.761719zm0 0" fill="#f39c18"/><path d="m90.707031 74.847656c-7.5-3.039062-16.058593.492188-19.242187 7.925782-17.859375 41.703124-33.398438 119.226562 22.914062 222.550781l87.480469-143.132813c-2.148437-3.96875-35.949219-64.980468-91.152344-87.34375zm91.152344 87.339844v.003906c.058594.113282.097656.183594.105469.203125zm0 0" fill="#ffb2c1"/><g fill="#ff889e"><path d="m389.007812 162.394531c.015626-.019531.054688-.097656.113282-.203125l-.007813-.003906zm0 0"/><path d="m514.023438 195.214844c-9.035157-13.238282-19.207032-25.929688-30.671876-37.753906-17.289062-17.832032-36.417968-32.664063-57.304687-44.480469-22.53125 23.152343-35.617187 46.789062-36.925781 49.210937l87.480468 143.132813c22.324219-40.96875 33.347657-77.878907 37.421876-110.109375zm0 0"/><path d="m181.859375 162.1875v.003906c.058594.105469.097656.183594.105469.203125zm0 0"/><path d="m87.625 157.460938c-11.46875 11.828124-21.640625 24.519531-30.667969 37.753906 4.066407 32.230468 15.09375 69.140625 37.421875 110.109375l87.480469-143.132813c-1.308594-2.421875-14.394531-26.058594-36.929687-49.210937-20.886719 11.816406-40.015626 26.648437-57.304688 44.480469zm0 0"/></g><path d="m149.417969 625.027344c-73.246094-20.820313-124.671875-67.910156-124.671875-168.074219 0 0-10.535156-339.753906 260.742187-339.753906 271.273438 0 260.742188 339.753906 260.742188 339.753906 0 100.160156-51.425781 147.253906-124.675781 168.074219zm0 0" fill="#f8b459"/><path d="m149.417969 625.027344h38.632812c-73.246093-20.820313-124.667969-67.910156-124.667969-168.074219 0 0-10.023437-323.398437 241.410157-339.152344-6.425781-.40625-12.871094-.601562-19.304688-.601562-271.277343 0-260.738281 339.753906-260.738281 339.753906 0 1.566406.007812 3.113281.035156 4.65625 1.574219 96.96875 52.53125 142.921875 124.632813 163.417969zm0 0" fill="#ffa83f"/><path d="m486.972656 465.734375c0 52.910156-15.171875 114.503906-65.410156 159.292969-40.378906 11.480468-87.402344 14.972656-136.074219 14.972656s-95.699219-3.492188-136.070312-14.972656c-50.238281-44.789063-65.410157-106.375-65.410157-159.292969 0-62.523437 78.589844-80.3125 116.699219-85.277344 11.296875-1.464843 20.253907-10.074219 22.402344-21.253906 4.515625-23.585937 18.59375-60.273437 62.378906-60.273437 43.789063 0 57.863281 36.6875 62.382813 60.273437 2.140625 11.179687 11.097656 19.789063 22.394531 21.253906 38.113281 4.964844 116.707031 22.753907 116.707031 85.277344zm0 0" fill="#f9e09d"/><path d="m188.046875 625.027344c-25.574219-7.269532-48.476563-17.75-67.472656-32.5625 7.988281 11.511718 17.515625 22.464844 28.84375 32.5625 7.566406 2.152344 15.371093 4.023437 23.378906 5.644531 34.6875 7.023437 73.144531 9.328125 112.691406 9.328125 6.472657 0 12.914063-.070312 19.316407-.203125-41.746094-.871094-81.75-4.8125-116.757813-14.769531zm0 0" fill="#f8b459"/><path d="m320.214844 395.996094c-.011719-3.40625-2.886719-6.113282-6.289063-6.113282h-56.875c-3.40625 0-6.277343 2.707032-6.285156 6.113282v.058594c0 15.199218 15.546875 27.523437 34.722656 27.523437 19.179688 0 34.726563-12.324219 34.726563-27.523437 0-.019532 0-.039063 0-.058594zm0 0" fill="#423e4f"/><path d="m175.105469 314.753906c-5.332031 0-9.652344 4.320313-9.652344 9.660156v20.628907c0 5.332031 4.320313 9.65625 9.652344 9.65625 5.335937 0 9.660156-4.324219 9.660156-9.65625v-20.628907c0-5.339843-4.324219-9.660156-9.660156-9.660156zm0 0" fill="#423e4f"/><path d="m118.125 360.597656h-20.789062c-5.332032 0-9.65625 4.324219-9.65625 9.660156 0 5.332032 4.324218 9.65625 9.65625 9.65625h20.789062c5.332031 0 9.65625-4.324218 9.65625-9.65625 0-5.335937-4.324219-9.660156-9.65625-9.660156zm0 0" fill="#ff889e"/><path d="m395.867188 314.753906c-5.332032 0-9.65625 4.320313-9.65625 9.660156v20.628907c0 5.332031 4.324218 9.65625 9.65625 9.65625 5.335937 0 9.660156-4.324219 9.660156-9.65625v-20.628907c0-5.339843-4.324219-9.660156-9.660156-9.660156zm0 0" fill="#423e4f"/><path d="m473.640625 360.597656h-20.785156c-5.332031 0-9.660157 4.324219-9.660157 9.660156 0 5.332032 4.328126 9.65625 9.660157 9.65625h20.785156c5.332031 0 9.660156-4.324218 9.660156-9.65625 0-5.335937-4.328125-9.660156-9.660156-9.660156zm0 0" fill="#ff889e"/><path d="m340.570312 446.699219c-4.019531-3.511719-10.117187-3.105469-13.628906.910156-4.15625 4.753906-10.378906 7.476563-17.089844 7.476563-6.707031 0-12.9375-2.722657-17.089843-7.476563-1.800781-2.070313-4.539063-3.289063-7.273438-3.289063-2.753906 0-5.457031 1.214844-7.273437 3.289063-4.148438 4.753906-10.378906 7.476563-17.089844 7.476563-6.707031 0-12.933594-2.722657-17.089844-7.476563-3.507812-4.015625-9.609375-4.421875-13.625-.910156-4.019531 3.503906-4.425781 9.609375-.914062 13.625 7.820312 8.945312 19.351562 14.078125 31.628906 14.078125 8.894531 0 17.382812-2.699219 24.367188-7.582032 6.980468 4.882813 15.46875 7.582032 24.359374 7.582032 12.28125 0 23.8125-5.132813 31.632813-14.078125 3.507813-4.015625 3.097656-10.121094-.914063-13.625zm0 0" fill="#423e4f"/></svg>