<svg height="682pt" viewBox="-21 -107 682.66506 682" width="682pt" xmlns="http://www.w3.org/2000/svg"><path d="m136.011719 81.011719c-56.621094 15.378906-123.59375 45.632812-134.410157 110.300781-3.339843 19.980469-1.242187 40.5 4.316407 59.886719 5.332031 18.621093 16.109375 35.828125 18.871093 55.136719 1.566407 10.90625 1.796876 22.03125 4.085938 32.835937 6.070312 28.605469 29.734375 39.726563 56.875 43.695313l40.203125-19.816407zm0 0" fill="#9f5424"/><path d="m503.988281 81.011719c56.625 15.378906 123.59375 45.632812 134.410157 110.300781 3.339843 19.980469 1.238281 40.5-4.316407 59.886719-5.332031 18.621093-16.109375 35.828125-18.871093 55.136719-1.570313 10.90625-1.796876 22.03125-4.089844 32.835937-6.066406 28.605469-29.730469 39.726563-56.875 43.695313l-40.199219-19.816407zm0 0" fill="#9f5424"/><path d="m514.046875 363.050781c-42.878906 60.203125-113.808594 99.550781-194.046875 99.550781s-151.167969-39.347656-194.046875-99.550781l10.058594-282.039062c43.476562-52.746094 109.746093-86.429688 183.988281-86.429688s140.515625 33.683594 183.988281 86.429688zm0 0" fill="#e7e7e7"/><path d="m557.078125 228.589844c0 50.046875-15.90625 96.417968-43.03125 134.460937l-58.925781-88.394531-89.671875-83.742188-3.390625-33.289062c-7.050782-63.539062 86.382812-106.265625 141.929687-76.613281 33.1875 40.253906 53.089844 91.628906 53.089844 147.578125zm0 0" fill="#de8957"/><path d="m277.9375 157.625-3.386719 33.289062-89.671875 83.742188-58.925781 88.394531c-27.125-38.042969-43.035156-84.414062-43.035156-134.460937 0-55.949219 19.902343-107.324219 53.09375-147.578125 55.550781-29.652344 148.976562 13.074219 141.925781 76.613281zm0 0" fill="#de8957"/><path d="m133.355469 155.523438c9.125-27.425782 23.234375-52.617188 41.289062-74.511719 39.667969-48.125 98.308594-80.363281 164.671875-85.648438-2.558594-.203125-5.132812-.355469-7.710937-.484375-3.84375-.199218-7.695313-.296875-11.542969-.296875-.019531 0-.042969 0-.0625 0-41.761719 0-81 10.660157-115.078125 29.371094-26.308594 14.449219-49.824219 33.902344-68.910156 57.058594zm0 0" fill="#c7c5cb"/><path d="m320.066406 462.59375c3.804688 0 7.597656-.101562 11.394532-.292969 2.628906-.128906 5.246093-.285156 7.855468-.496093-72.230468-5.746094-135.328125-43.433594-174.730468-98.753907-16.421876-23.035156-28.722657-49.117187-35.878907-77.21875l-2.753906 77.21875c2.679687 3.761719 5.46875 7.445313 8.363281 11.039063 14.472656 17.972656 31.570313 33.804687 50.722656 46.914062 38.300782 26.226563 84.8125 41.597656 134.960938 41.597656.023438 0 .046875-.007812.066406-.007812zm0 0" fill="#c7c5cb"/><path d="m125.953125 363.050781 20.273437-30.410156c-15.796874-31.34375-24.675781-66.671875-24.675781-104.050781 0-55.949219 19.902344-107.324219 53.09375-147.578125 2.660157-3.226563 5.410157-6.375 8.234375-9.457031-16.550781-.875-32.902344 2.003906-46.867187 9.457031-1.035157 1.257812-2.0625 2.527343-3.074219 3.804687-32.214844 40.773438-50.019531 91.800782-50.019531 143.773438 0 13.816406 1.226562 27.652344 3.671875 41.25 6.167968 34.21875 19.863281 65.867187 39.363281 93.210937zm0 0" fill="#c76d33"/><path d="m362.058594 157.625c214.761718 22.371094 256.417968 215.375 139.667968 280.625-8.613281 4.804688-18.976562 5.332031-28.054687 1.488281-10.21875-4.324219-17.367187-13.660156-19.191406-24.605469-2.773438-16.839843-13.113281-43.09375-48.496094-63.089843-56.503906-31.9375-85.984375-98.269531-85.984375-98.269531s-29.484375 66.332031-85.988281 98.269531c-35.378907 20-45.722657 46.25-48.5 63.089843-1.816407 10.945313-8.964844 20.28125-19.183594 24.605469-9.078125 3.84375-19.449219 3.316407-28.058594-1.488281-116.746093-65.25-75.089843-258.257812 139.667969-280.625zm0 0" fill="#c7c5cb"/><g fill="#423e4f"><path d="m362.058594 157.625c-4.472656 19.089844-21.605469 33.289062-42.058594 33.289062s-37.589844-14.199218-42.0625-33.289062c13.355469-1.386719 27.371094-2.125 42.0625-2.125s28.707031.738281 42.058594 2.125zm0 0"/><path d="m191.328125 161.140625c-5.335937 0-9.660156-4.320313-9.660156-9.660156v-22.929688c0-5.332031 4.324219-9.65625 9.660156-9.65625 5.332031 0 9.652344 4.324219 9.652344 9.65625v22.929688c0 5.339843-4.320313 9.660156-9.652344 9.660156zm0 0"/><path d="m448.671875 161.140625c-5.332031 0-9.652344-4.320313-9.652344-9.660156v-22.929688c0-5.332031 4.320313-9.65625 9.652344-9.65625 5.335937 0 9.65625 4.324219 9.65625 9.65625v22.929688c0 5.339843-4.320313 9.660156-9.65625 9.660156zm0 0"/></g><path d="m204.15625 103.910156h-25.660156c-7.96875 0-14.433594 6.457032-14.433594 14.433594 0 7.972656 6.464844 14.433594 14.433594 14.433594h25.660156c7.972656 0 14.433594-6.460938 14.433594-14.433594 0-7.976562-6.460938-14.433594-14.433594-14.433594zm0 0" fill="#e7e7e7"/><path d="m435.84375 103.910156h25.660156c7.96875 0 14.433594 6.457032 14.433594 14.433594 0 7.972656-6.460938 14.433594-14.433594 14.433594h-25.660156c-7.972656 0-14.433594-6.460938-14.433594-14.433594 0-7.976562 6.460938-14.433594 14.433594-14.433594zm0 0" fill="#e7e7e7"/></svg>