<svg height="682pt" viewBox="-63 -21 682 682.66548" width="682pt" xmlns="http://www.w3.org/2000/svg"><path d="m522.957031 11.976562c-3.09375-7.847656-10.972656-12.734374-19.363281-11.8789058-24.824219 2.5273438-77.074219 14.6328128-111.585938 70.3203128l115.191407 177.875s63.425781-115.449219 15.757812-236.316407zm0 0" fill="#de8957"/><path d="m527.988281 194.804688c-22.078125-51.640626-49.511719-94.441407-81.996093-127.773438-9.898438-10.152344-19.84375-19.019531-29.753907-26.769531-8.59375 8.273437-16.824219 18.203125-24.230469 30.15625l115.1875 177.875c.003907 0 11.316407-20.59375 20.792969-53.488281zm0 0" fill="#c76d33"/><path d="m485.710938 81.289062c-1.601563-8.078124-10.421876-12.371093-17.808594-8.738281-14.410156 7.101563-29.957032 18.984375-42.289063 38.886719l50.558594 96.515625c3.019531-9.339844 6.011719-20.207031 8.414063-32.207031 6.652343-33.21875 7.015624-64.824219 1.125-94.457032zm0 0" fill="#ffb2c1"/><path d="m29.488281 11.976562c3.097657-7.847656 10.976563-12.734374 19.367188-11.8789058 24.824219 2.5273438 77.074219 14.6328128 111.582031 70.3203128l-115.1875 177.875s-63.425781-115.449219-15.761719-236.316407zm0 0" fill="#de8957"/><path d="m106.457031 67.03125c-32.492187 33.332031-59.921875 76.132812-82.003906 127.773438 9.484375 32.894531 20.796875 53.488281 20.796875 53.488281l115.1875-177.875c-7.410156-11.953125-15.632812-21.882813-24.226562-30.15625-9.910157 7.75-19.863282 16.617187-29.753907 26.769531zm0 0" fill="#c76d33"/><path d="m66.734375 81.289062c1.605469-8.078124 10.421875-12.371093 17.808594-8.738281 14.414062 7.101563 29.957031 18.984375 42.289062 38.886719l-50.5625 96.515625c-3.015625-9.339844-6.003906-20.207031-8.410156-32.207031-6.652344-33.21875-7.011719-64.824219-1.125-94.457032zm0 0" fill="#ffb2c1"/><path d="m484.585938 175.746094c3.664062-18.277344 5.40625-36.058594 5.265624-53.300782-10.261718-15.820312-21.242187-30.363281-32.929687-43.605468-11.023437 7.273437-22.066406 17.6875-31.308594 32.597656l50.558594 96.515625c3.019531-9.339844 6.011719-20.207031 8.414063-32.207031zm0 0" fill="#ff889e"/><path d="m95.523438 78.839844c-11.6875 13.242187-22.671876 27.785156-32.925782 43.605468-.140625 17.242188 1.601563 35.023438 5.261719 53.300782 2.402344 12 5.394531 22.867187 8.410156 32.207031l50.5625-96.515625c-9.242187-14.910156-20.289062-25.324219-31.308593-32.597656zm0 0" fill="#ff889e"/><path d="m437.609375 640h116.636719c11.769531-459.019531-147.070313-611.558594-278.023438-611.558594s-289.789062 152.539063-278.023437 611.558594h116.640625l161.382812-23.253906zm0 0" fill="#5c586f"/><path d="m295.539062 29.554688c-6.488281-.742188-12.933593-1.113282-19.316406-1.113282-130.953125 0-289.789062 152.539063-278.023437 611.558594h38.632812c-11.195312-436.65625 131.996094-595.964844 258.707031-610.445312zm0 0" fill="#4f4c5f"/><path d="m437.609375 640h-322.769531c11.3125-66.34375 33.957031-79.199219 33.957031-79.199219h254.855469s22.644531 12.855469 33.957031 79.199219zm0 0" fill="#e7e7e7"/><path d="m437.75 256.785156c-17.429688-31.644531-47.289062-64.589844-86.273438-64.589844-34.183593 0-56.59375 13.980469-67.484374 22.992188-4.511719 3.730469-11.027344 3.730469-15.535157 0-10.898437-9.011719-33.304687-22.992188-67.488281-22.992188-38.984375 0-68.839844 32.945313-86.273438 64.589844-22.097656 40.117188-29.234374 86.929688-28.390624 132.242188.953124 50.953125 7.777343 106.382812 39.433593 148.246094 35.136719 46.476562 94.917969 60.332031 150.484375 60.332031s115.347656-13.855469 150.484375-60.332031c31.652344-41.863282 38.480469-97.292969 39.433594-148.246094.847656-45.3125-6.296875-92.125-28.390625-132.242188zm0 0" fill="#de8957"/><path d="m322.703125 407.1875c-10.582031-6.128906-18.242187-16.269531-21.574219-28.035156-3.152344-11.140625-13.324218-18.832032-24.902344-18.832032-11.582031 0-21.753906 7.691407-24.90625 18.832032-3.332031 11.765625-10.992187 21.90625-21.574218 28.035156-23.65625 13.703125-39.320313 37.558594-39.320313 64.707031 0 42.523438 38.414063 76.992188 85.800781 76.992188 47.386719 0 85.800782-34.46875 85.800782-76.992188-.003906-27.148437-15.667969-51.003906-39.324219-64.707031zm0 0" fill="#e7e7e7"/><path d="m299.792969 423.972656c-.007813-2.308594-1.960938-4.144531-4.269531-4.144531h-38.597657c-2.316406 0-4.261719 1.835937-4.269531 4.144531v.042969c0 10.3125 10.554688 18.679687 23.570312 18.679687 13.011719 0 23.566407-8.367187 23.566407-18.679687 0-.011719 0-.027344 0-.042969zm0 0" fill="#423e4f"/><path d="m172.0625 326.976562c-5.332031 0-9.660156 4.324219-9.660156 9.65625v19.140626c0 5.332031 4.328125 9.660156 9.660156 9.660156 5.335938 0 9.65625-4.328125 9.65625-9.660156v-19.140626c0-5.332031-4.320312-9.65625-9.65625-9.65625zm0 0" fill="#423e4f"/><path d="m166.484375 373.714844h-20.59375c-5.335937 0-9.660156 4.320312-9.660156 9.65625 0 5.332031 4.324219 9.65625 9.660156 9.65625h20.59375c5.332031 0 9.660156-4.324219 9.660156-9.65625 0-5.335938-4.328125-9.65625-9.660156-9.65625zm0 0" fill="#ffb2c1"/><path d="m390.046875 355.773438v-19.140626c0-5.332031-4.328125-9.65625-9.660156-9.65625-5.335938 0-9.65625 4.324219-9.65625 9.65625v19.140626c0 5.332031 4.320312 9.660156 9.65625 9.660156 5.332031 0 9.660156-4.328125 9.660156-9.660156zm0 0" fill="#423e4f"/><path d="m406.558594 373.714844h-20.59375c-5.339844 0-9.660156 4.320312-9.660156 9.65625 0 5.332031 4.320312 9.65625 9.660156 9.65625h20.59375c5.332031 0 9.660156-4.324219 9.660156-9.65625 0-5.335938-4.328125-9.65625-9.660156-9.65625zm0 0" fill="#ffb2c1"/><path d="m320.933594 455.160156c-4.011719-3.511718-10.113282-3.101562-13.628906.917969-2.875 3.289063-7.214844 5.179687-11.902344 5.179687s-9.027344-1.890624-11.910156-5.179687c-1.8125-2.074219-4.519532-3.296875-7.273438-3.296875s-5.449219 1.214844-7.265625 3.296875c-2.882813 3.289063-7.21875 5.179687-11.90625 5.179687s-9.027344-1.890624-11.910156-5.179687c-3.507813-4.019531-9.613281-4.429687-13.625-.917969-4.015625 3.511719-4.429688 9.609375-.914063 13.628906 6.542969 7.488282 16.1875 11.785157 26.449219 11.785157 6.929687 0 13.574219-1.96875 19.175781-5.546875 5.605469 3.578125 12.25 5.546875 19.179688 5.546875 10.261718 0 19.902344-4.296875 26.449218-11.785157 3.511719-4.019531 3.101563-10.117187-.917968-13.628906zm0 0" fill="#423e4f"/></svg>