<svg height="681pt" viewBox="-21 -53 681.33111 681" width="681pt" xmlns="http://www.w3.org/2000/svg"><path d="m8.273438 272.90625c17.433593 75.078125 6.21875 131.667969-5.199219 164.429688-7.269531 20.835937-1.414063 44 15.101562 58.636718l.757813.675782c15.878906 14.074218 38.492187 17.53125 57.902344 8.960937 31.921874-14.097656 78.050781-40.996094 99.578124-84.855469v-364.96875c-123.355468-41.730468-196.746093 93.917969-168.140624 217.121094zm0 0" fill="#4f4c5f"/><path d="m630.476562 272.90625c-17.433593 75.078125-6.21875 131.667969 5.199219 164.429688 7.265625 20.835937 1.414063 44-15.101562 58.636718l-.757813.675782c-15.878906 14.074218-38.492187 17.53125-57.902344 8.960937-31.921874-14.097656-78.054687-40.996094-99.578124-84.855469v-364.96875c123.355468-41.730468 196.746093 93.917969 168.140624 217.121094zm0 0" fill="#4f4c5f"/><path d="m192.164062 446.6875c6.96875 12.464844 13.515626 25.992188 19.191407 41.476562 7.984375 21.761719 20.917969 41.488282 38.300781 56.84375 16.851562 14.882813 40.074219 27.914063 69.71875 27.914063s52.867188-13.03125 69.710938-27.914063c17.390624-15.355468 30.316406-35.082031 38.304687-56.84375 5.679687-15.484374 12.222656-29.011718 19.191406-41.476562v-55.140625h-254.417969zm0 0" fill="#de8957"/><path d="m462.335938 55.789062v364.964844c6.269531 12.773438 14.636718 24.101563 24.121093 34.101563 5.105469-8.433594 10.457031-16.59375 16.035157-25.089844 24.207031-36.855469 51.644531-78.636719 59.929687-151.121094 7.710937-67.433593-3.613281-161.046875-56.257813-230.558593-13.757812.039062-28.402343 2.484374-43.828124 7.703124zm0 0" fill="#423e4f"/><path d="m132.582031 48.082031c-52.640625 69.515625-63.964843 163.128907-56.253906 230.558594 8.285156 72.488281 35.722656 114.265625 59.929687 151.125 5.578126 8.496094 10.929688 16.65625 16.035157 25.089844 9.484375-10 17.851562-21.328125 24.121093-34.101563v-364.964844c-15.425781-5.21875-30.070312-7.664062-43.832031-7.707031zm0 0" fill="#423e4f"/><path d="m524.117188 274.265625c-9.695313 84.808594-47.515626 118.691406-77.53125 172.421875-50.75-49.382812-94.394532-16.566406-94.394532-16.566406h-65.632812s-43.640625-32.816406-94.390625 16.566406c-30.019531-53.730469-67.835938-87.613281-77.527344-172.421875-12.597656-110.128906 33.121094-276.261719 204.734375-276.261719s217.332031 166.132813 204.742188 276.261719zm0 0" fill="#5c586f"/><path d="m319.390625 572.921875c6.402344 0 12.792969-.621094 19.074219-1.863281.0625-.015625.125-.03125.1875-.039063-20.621094-4.144531-37.429688-14.519531-50.4375-26.011719-17.382813-15.355468-30.3125-35.078124-38.304688-56.84375-5.671875-15.480468-12.214844-29.007812-19.183594-41.476562-11.121093-19.902344-23.316406-37.085938-34.746093-55.136719h-3.8125v55.136719c2.613281 4.675781 5.164062 9.5 7.636719 14.519531 4.320312 8.777344 8.1875 17.773438 11.554687 26.957031 9.164063 25.007813 25.234375 47.6875 46.664063 63.644532 17.789062 13.246094 39.074218 21.113281 61.367187 21.113281zm0 0" fill="#c76d33"/><path d="m192.164062 446.6875c9.277344-9.027344 18.3125-15.296875 26.894532-19.535156-27.453125-43.554688-57.398438-78.78125-65.867188-152.886719-12.109375-105.878906 29.707032-263.5 185.460938-275.503906-2.5-.191407-5.027344-.34375-7.582032-.464844-3.878906-.1875-7.765624-.292969-11.648437-.292969-.019531 0-.03125 0-.046875 0-80.441406 0-133.226562 36.503906-165.304688 86.632813-28.609374 44.707031-40.960937 99.136719-41.386718 151.773437-.417969 51.109375 12.011718 100.929688 38.613281 145.226563 4.214844 7.019531 8.585937 13.820312 13.011719 20.59375 9.34375 14.304687 18.945312 28.503906 27.855468 44.457031zm0 0" fill="#4f4c5f"/><path d="m217.328125 247.601562h-19.910156c-10.3125 0-18.671875 8.359376-18.671875 18.671876 0 10.304687 8.359375 18.664062 18.671875 18.664062h19.910156c10.308594 0 18.664063-8.359375 18.664063-18.664062 0-10.3125-8.355469-18.671876-18.664063-18.671876zm0 0" fill="#de8957"/><path d="m421.421875 247.601562h19.910156c10.3125 0 18.671875 8.359376 18.671875 18.671876 0 10.304687-8.359375 18.664062-18.671875 18.664062h-19.910156c-10.3125 0-18.664063-8.359375-18.664063-18.664062-.003906-10.3125 8.351563-18.671876 18.664063-18.671876zm0 0" fill="#de8957"/><path d="m365.746094 477.542969c-4.007813-3.503907-10.097656-3.097657-13.601563.910156-3.085937 3.535156-7.734375 5.5625-12.753906 5.5625s-9.667969-2.027344-12.757813-5.5625c-1.792968-2.070313-4.523437-3.292969-7.261718-3.28125-2.738282.007813-5.449219 1.21875-7.253906 3.28125-3.089844 3.535156-7.738282 5.5625-12.757813 5.5625s-9.667969-2.027344-12.757813-5.5625c-3.507812-4.007813-9.59375-4.414063-13.601562-.910156-4.003906 3.503906-4.417969 9.589843-.910156 13.601562 6.75 7.71875 16.6875 12.148438 27.269531 12.148438 7.246094 0 14.1875-2.074219 20.015625-5.867188 5.824219 3.792969 12.769531 5.867188 20.015625 5.867188 10.578125 0 20.519531-4.429688 27.269531-12.148438 3.503906-4.011719 3.09375-10.101562-.914062-13.601562zm0 0" fill="#4f4c5f"/><path d="m207.371094 302.28125c-5.324219 0-9.636719 4.316406-9.636719 9.640625v18.253906c0 5.320313 4.3125 9.640625 9.636719 9.640625 5.328125 0 9.640625-4.320312 9.640625-9.640625v-18.253906c0-5.324219-4.316407-9.640625-9.640625-9.640625zm0 0" fill="#4f4c5f"/><path d="m196.058594 345.605469h-19.644532c-5.324218 0-9.640624 4.316406-9.640624 9.636719 0 5.328124 4.316406 9.640624 9.640624 9.640624h19.644532c5.320312 0 9.636718-4.3125 9.636718-9.640624 0-5.320313-4.316406-9.636719-9.636718-9.636719zm0 0" fill="#ffb2c1"/><path d="m441.015625 330.175781v-18.253906c0-5.324219-4.3125-9.640625-9.636719-9.640625-5.328125 0-9.640625 4.316406-9.640625 9.640625v18.253906c0 5.320313 4.3125 9.640625 9.640625 9.640625 5.324219 0 9.636719-4.320312 9.636719-9.640625zm0 0" fill="#4f4c5f"/><path d="m462.335938 345.605469h-19.640626c-5.324218 0-9.640624 4.316406-9.640624 9.636719 0 5.328124 4.316406 9.640624 9.640624 9.640624h19.640626c5.324218 0 9.640624-4.3125 9.640624-9.640624 0-5.320313-4.316406-9.636719-9.640624-9.636719zm0 0" fill="#ffb2c1"/><path d="m352.191406 430.117188c-.007812-3.214844-2.722656-5.769532-5.941406-5.769532h-53.75c-3.21875 0-5.933594 2.554688-5.941406 5.769532v.0625c0 14.363281 14.691406 26.007812 32.816406 26.007812s32.816406-11.644531 32.816406-26.007812c0-.023438 0-.042969 0-.0625zm0 0" fill="#4f4c5f"/></svg>