<svg height="681pt" viewBox="-26 -21 681 681.32972" width="681pt" xmlns="http://www.w3.org/2000/svg"><path d="m41.4375 1.3125c-9.714844 1.160156-17.84375 7.972656-20.78125 17.308594-9.652344 30.660156-26.152344 103.992187 8.449219 172.269531l164.253906-140.03125s-60.878906-60.441406-151.921875-49.546875zm0 0" fill="#de8957"/><path d="m17.847656 145.71875c-1.167968 1.855469-2.308594 3.726562-3.429687 5.605469 3.285156 13.148437 8.039062 26.445312 14.6875 39.566406l164.253906-140.03125s-11.105469-11.023437-30.921875-22.804687c-73.679688 28.375-118.160156 75.613281-144.589844 117.664062zm0 0" fill="#c76d33"/><path d="m69.007812 51.890625c-3.378906.003906-6.285156 2.363281-7.050781 5.648437-6.957031 29.832032-12.46875 79.253907 10.285157 124.144532l97.082031-91.144532c-3.695313-3.480468-42.480469-38.648437-100.261719-38.648437zm100.316407 38.644531v.003906c.09375.09375.183593.175782.234375.21875zm0 0" fill="#f9e09d"/><path d="m586.828125 1.3125c9.710937 1.160156 17.84375 7.972656 20.777344 17.308594 9.65625 30.660156 26.15625 103.992187-8.445313 172.269531l-164.257812-140.03125s60.878906-60.441406 151.925781-49.546875zm0 0" fill="#de8957"/><path d="m613.851562 151.324219c-1.128906-1.878907-2.261718-3.75-3.433593-5.605469-26.425781-42.050781-70.914063-89.289062-144.589844-117.664062-19.8125 11.78125-30.925781 22.804687-30.925781 22.804687l164.257812 140.03125c6.648438-13.113281 11.402344-26.417969 14.691406-39.566406zm0 0" fill="#c76d33"/><path d="m559.199219 51.890625c-57.78125 0-96.566407 35.167969-100.257813 38.648437l97.082032 91.144532c22.753906-44.890625 17.238281-94.308594 10.289062-124.144532-.765625-3.285156-3.679688-5.644531-7.054688-5.648437zm-100.488281 38.867187c.046874-.042968.132812-.125.230468-.21875l-.003906-.003906zm0 0" fill="#f9e09d"/><g fill="#f8b459"><path d="m458.710938 90.757812c.046874-.042968.132812-.125.230468-.21875l-.003906-.003906zm0 0"/><path d="m522.484375 56.695312c-37.066406 9.742188-60.699219 31.167969-63.542969 33.84375l97.082032 91.144532c14.414062-28.441406 17.476562-58.683594 16.023437-84.628906-13.902344-14.1875-30.289063-27.9375-49.5625-40.359376zm0 0"/><path d="m169.324219 90.535156v.003906c.09375.09375.183593.175782.234375.21875zm0 0"/><path d="m56.21875 97.054688c-1.457031 25.945312 1.609375 56.1875 16.023438 84.628906l97.082031-91.144532c-2.839844-2.675781-26.476563-24.101562-63.542969-33.84375-19.273438 12.421876-35.65625 26.171876-49.5625 40.359376zm0 0"/></g><path d="m314.132812 33.976562c-315.597656 0-349.359374 286.09375-290.640624 408.105469 46.074218 95.75 198.828124 165.59375 262.449218 191.21875 18.03125 7.261719 38.351563 7.261719 56.382813 0 63.621093-25.628906 216.375-95.46875 262.453125-191.21875 58.714844-122.011719 24.953125-408.105469-290.644532-408.105469zm0 0" fill="#de8957"/><path d="m61.445312 450.621094c-57.523437-122.03125-26.277343-404.839844 271.773438-416.277344-6.25-.238281-12.605469-.367188-19.085938-.367188-315.597656 0-349.359374 286.09375-290.640624 408.105469 46.074218 95.757813 198.828124 165.59375 262.449218 191.222657 6.496094 2.617187 13.292969 4.273437 20.175782 5.003906-70.722657-30.78125-202.460938-98.132813-244.671876-187.6875zm0 0" fill="#c76d33"/><path d="m314.132812 593.078125c146.320313-30.855469 214.570313-97.238281 214.570313-236.078125 0-54.214844-43.953125-98.167969-98.167969-98.167969-50.609375 0-78.242187 38.289063-83.570312 87.480469l-32.128906 13.496094-33.535157-13.496094c-5.324219-49.191406-32.960937-87.480469-83.570312-87.480469-54.21875 0-98.167969 43.953125-98.167969 98.167969 0 138.84375 68.25 205.222656 214.570312 236.078125" fill="#f9e09d"/><path d="m353.660156 352.820312c-.015625-3.628906-3.074218-6.507812-6.695312-6.507812h-65.664063c-3.625 0-6.683593 2.878906-6.695312 6.507812v.066407c0 16.183593 21.648437 29.3125 42.070312 29.3125 20.425781 0 36.980469-13.128907 36.980469-29.3125.003906-.023438.003906-.042969.003906-.066407zm0 0" fill="#423e4f"/><path d="m216.902344 186.660156-18.304688-8.023437c-10.636718-4.664063-23.046875.183593-27.710937 10.824219-4.664063 10.640624.183593 23.046874 10.824219 27.710937l18.304687 8.027344c10.644531 4.65625 23.046875-.1875 27.710937-10.824219 4.667969-10.644531-.179687-23.050781-10.824218-27.714844zm0 0" fill="#f8b459"/><path d="m411.359375 186.660156 18.304687-8.023437c10.644532-4.664063 23.050782.183593 27.714844 10.824219 4.660156 10.640624-.183594 23.046874-10.824218 27.710937l-18.304688 8.027344c-10.640625 4.65625-23.050781-.1875-27.714844-10.824219-4.660156-10.644531.1875-23.050781 10.824219-27.714844zm0 0" fill="#f8b459"/><path d="m358.960938 405.6875c-3.941407-3.449219-9.933594-3.042969-13.386719.902344-2.9375 3.363281-7.367188 5.292968-12.148438 5.292968-4.785156 0-9.210937-1.929687-12.152343-5.292968-1.785157-2.035156-4.441407-3.234375-7.144532-3.234375s-5.367187 1.199219-7.144531 3.234375c-2.9375 3.363281-7.367187 5.292968-12.148437 5.292968s-9.210938-1.929687-12.148438-5.292968c-3.453125-3.945313-9.445312-4.351563-13.386719-.902344-3.949219 3.453125-4.351562 9.445312-.902343 13.386719 6.542968 7.488281 16.179687 11.785156 26.4375 11.785156 6.976562 0 13.667968-1.992187 19.292968-5.617187 5.625 3.625 12.316406 5.617187 19.292969 5.617187 10.257813 0 19.894531-4.292969 26.4375-11.785156 3.457031-3.941407 3.050781-9.933594-.898437-13.386719zm0 0" fill="#423e4f"/><path d="m207.164062 324.398438c-5.242187 0-9.492187 4.25-9.492187 9.492187v19.011719c0 5.242187 4.25 9.488281 9.492187 9.488281 5.238282 0 9.488282-4.246094 9.488282-9.488281v-19.011719c0-5.238281-4.25-9.492187-9.488282-9.492187zm0 0" fill="#423e4f"/><path d="m201.824219 374.621094h-25.722657c-5.238281 0-9.488281 4.246094-9.488281 9.488281 0 5.238281 4.25 9.488281 9.488281 9.488281h25.722657c5.242187 0 9.488281-4.25 9.488281-9.488281 0-5.242187-4.246094-9.488281-9.488281-9.488281zm0 0" fill="#ff889e"/><path d="m430.589844 352.90625v-19.015625c0-5.238281-4.246094-9.488281-9.488282-9.488281-5.238281 0-9.488281 4.25-9.488281 9.488281v19.015625c0 5.238281 4.25 9.488281 9.488281 9.488281 5.242188 0 9.488282-4.25 9.488282-9.488281zm0 0" fill="#423e4f"/><path d="m452.160156 374.621094h-25.722656c-5.238281 0-9.488281 4.246094-9.488281 9.488281 0 5.238281 4.25 9.488281 9.488281 9.488281h25.722656c5.242188 0 9.488282-4.25 9.488282-9.488281 0-5.242187-4.246094-9.488281-9.488282-9.488281zm0 0" fill="#ff889e"/></svg>