<svg height="682pt" viewBox="-21 -98 682.66812 682" width="682pt" xmlns="http://www.w3.org/2000/svg"><path d="m161.558594 70.488281c-45.78125-33.855469-86.855469-12.933593-107.785156 40.546875-20.921876 53.476563-76.726563 103.078125-43.398438 168.957032 33.324219 65.878906 91.390625 56.230468 126.300781 24.242187zm0 0" fill="#4f4c5f"/><path d="m478.441406 70.488281c45.78125-33.855469 86.855469-12.933593 107.785156 40.546875 20.921876 53.476563 76.726563 103.078125 43.402344 168.957032-33.332031 65.878906-91.398437 56.230468-126.304687 24.242187zm0 0" fill="#4f4c5f"/><path d="m551.78125 231.429688c1.152344-16.984376 2.011719-51.1875-5.203125-89.410157-6.265625-33.164062-17.148437-62.402343-32.460937-87.394531-11.347657 1.601562-23.339844 6.742188-35.675782 15.863281l24.882813 233.742188c9.933593 9.101562 21.742187 16.390625 34.320312 20.652343 7.460938-24.480468 11.933594-49.539062 13.007813-74.160156.292968-6.753906.738281-13.539062 1.128906-19.292968zm0 0" fill="#423e4f"/><path d="m125.875 54.625c-39.832031 64.980469-39.96875 142.785156-37.652344 176.804688.390625 5.769531.828125 12.566406 1.121094 19.292968 1.074219 24.621094 5.554688 49.679688 13.007812 74.15625 12.578126-4.257812 24.390626-11.546875 34.324219-20.648437l24.882813-233.742188c-12.339844-9.125-24.332032-14.261719-35.683594-15.863281zm0 0" fill="#423e4f"/><path d="m320-4.832031c-196.808594 0-196.410156 186.917969-193.238281 233.644531.460937 6.738281.882812 13.476562 1.183593 20.226562 4.773438 109.300782 88.71875 232.074219 192.054688 232.074219s187.285156-122.773437 192.058594-232.074219c.300781-6.75.722656-13.488281 1.179687-20.226562 3.171875-46.726562 3.566407-233.644531-193.238281-233.644531zm0 0" fill="#e7e7e7"/><path d="m160.136719 249.039062c-.296875-6.75-.722657-13.488281-1.183594-20.226562-3.078125-45.417969-3.519531-223.234375 177.144531-233.191406-5.21875-.28125-10.570312-.453125-16.097656-.453125-196.808594 0-196.410156 186.917969-193.238281 233.644531.460937 6.738281.882812 13.476562 1.183593 20.226562 4.773438 109.296876 88.71875 232.074219 192.054688 232.074219 5.425781 0 10.789062-.359375 16.097656-1.015625-95.828125-11.855468-171.441406-127.496094-175.960937-231.058594zm0 0" fill="#c7c5cb"/><g fill="#4f4c5f"><path d="m350.652344 346.828125c-.003906-3.003906-2.542969-5.398437-5.546875-5.398437h-50.207031c-3.007813 0-5.542969 2.394531-5.554688 5.398437v.058594c0 13.410156 13.726562 24.296875 30.65625 24.296875 16.933594 0 30.652344-10.886719 30.652344-24.296875 0-.019531 0-.039063 0-.058594zm0 0"/><path d="m361.132812 392.675781c-4.015624-3.511719-10.117187-3.105469-13.628906.914063-2.4375 2.792968-6.128906 4.390625-10.117187 4.390625s-7.675781-1.597657-10.113281-4.390625c-1.691407-1.957032-4.21875-3.160156-6.800782-3.28125-2.90625-.140625-5.824218 1.082031-7.738281 3.28125-2.441406 2.789062-6.128906 4.390625-10.117187 4.390625-3.988282 0-7.679688-1.597657-10.117188-4.390625-3.511719-4.019532-9.613281-4.425782-13.628906-.914063-4.019532 3.507813-4.429688 9.609375-.917969 13.628907 6.109375 6.988281 15.097656 10.996093 24.664063 10.996093 6.257812 0 12.265624-1.730469 17.386718-4.875 5.117188 3.144531 11.125 4.875 17.386719 4.875 9.566406 0 18.550781-4.007812 24.660156-10.996093 3.503907-4.019532 3.101563-10.121094-.917969-13.628907zm0 0"/><path d="m223.71875 290.503906c-5.335938 0-9.65625 4.324219-9.65625 9.65625v19.375c0 5.339844 4.320312 9.660156 9.65625 9.660156 5.332031 0 9.660156-4.320312 9.660156-9.660156v-19.375c0-5.332031-4.328125-9.65625-9.660156-9.65625zm0 0"/></g><path d="m219.910156 335.625h-18.347656c-5.332031 0-9.660156 4.328125-9.660156 9.660156 0 5.332032 4.328125 9.65625 9.660156 9.65625h18.347656c5.339844 0 9.660156-4.324218 9.660156-9.65625 0-5.332031-4.328124-9.660156-9.660156-9.660156zm0 0" fill="#ff889e"/><path d="m425.941406 319.535156v-19.375c0-5.335937-4.324218-9.65625-9.65625-9.65625-5.339844 0-9.660156 4.320313-9.660156 9.65625v19.375c0 5.339844 4.320312 9.660156 9.660156 9.660156 5.332032 0 9.65625-4.320312 9.65625-9.660156zm0 0" fill="#4f4c5f"/><path d="m438.4375 335.625h-18.351562c-5.332032 0-9.65625 4.328125-9.65625 9.660156 0 5.332032 4.324218 9.65625 9.65625 9.65625h18.351562c5.335938 0 9.65625-4.324218 9.65625-9.65625 0-5.332031-4.320312-9.660156-9.65625-9.660156zm0 0" fill="#ff889e"/><path d="m262.410156 52.589844c-9.070312-4.292969-19.671875-3.847656-28.351562 1.1875l-6.628906 3.839844c-11.648438 6.753906-17.492188 20.332031-14.398438 33.433593l.863281 3.664063c3.464844 14.632812 17.070313 24.570312 32.070313 23.40625l5.761718-.449219c15.894532-1.230469 28.164063-14.488281 28.164063-30.433594v-7.050781c0-11.808594-6.804687-22.554688-17.480469-27.597656zm0 0" fill="#423e4f"/><path d="m433.230469 117.453125c-.957031-10.410156-6.652344-19.796875-15.441407-25.449219l-8.789062-5.65625c-8.511719-5.472656-19.011719-6.867187-28.652344-3.808594l-.78125.25c-12.578125 3.996094-21.707031 14.90625-23.40625 27.992188l-.554687 4.265625c-1.535157 11.816406 3.238281 23.574219 12.578125 30.980469l4.078125 3.230468c9.085937 7.207032 21.21875 9.277344 32.1875 5.496094l6.046875-2.089844c14.78125-5.097656 24.171875-19.640624 22.734375-35.210937zm0 0" fill="#4f4c5f"/><path d="m448.027344 213.457031-.351563-.761719c-6.710937-14.609374-24.820312-19.863281-38.304687-11.105468-6.484375 4.207031-10.796875 11.050781-11.789063 18.71875l-.09375.726562c-1.945312 15.023438 9.136719 28.589844 24.246094 29.683594l.4375.027344c19.996094 1.445312 34.21875-19.070313 25.855469-37.289063zm0 0" fill="#423e4f"/><path d="m267.417969 201.90625-1.570313-12.148438c-1.414062-10.957031-7.640625-20.714843-16.984375-26.605468-13.703125-8.644532-31.433593-7.390625-43.777343 3.109375l-11.496094 9.769531c-8.964844 7.621094-13.78125 19.046875-12.96875 30.792969l.082031 1.175781c1.226563 17.804688 14.976563 32.210938 32.710937 34.265625l12.539063 1.449219c7.851563.910156 15.789063-.714844 22.648437-4.636719l.445313-.25c13.039063-7.449219 20.292969-22.03125 18.371094-36.921875zm0 0" fill="#4f4c5f"/></svg>