<svg height="682pt" viewBox="-49 -21 682 682.66436" width="682pt" xmlns="http://www.w3.org/2000/svg"><path d="m551.574219 48.300781c9.203125.546875 17.082031 6.757813 19.871093 15.539063 12.089844 38.125 34.355469 144.40625-64.207031 211.523437l-116.738281-170.101562s60.910156-62.910157 161.074219-56.960938zm0 0" fill="#77718c"/><path d="m512.433594 157.621094c-17.746094-27.300782-44.878906-57.417969-85.488282-79.394532-23.59375 13.769532-36.445312 27.035157-36.445312 27.035157l116.738281 170.109375c17.09375-11.640625 30.546875-24.460938 41.054688-37.890625-7.8125-26.757813-19.234375-54.277344-35.859375-79.859375zm0 0" fill="#5c586f"/><path d="m512.707031 101.710938c-55.691406 6.511718-89.835937 38.125-93.660156 41.824218l56.199219 98.175782c31.273437-21.292969 48.722656-48.695313 53.351562-83.761719 2.101563-15.933594 1.257813-31.308594-.6875-44.460938-1.089844-7.375-7.792968-12.640625-15.203125-11.777343zm-93.964843 42.121093c.058593-.054687.164062-.160156.304687-.296875l-.003906-.011718zm0 0" fill="#ffb2c1"/><path d="m418.742188 143.832031c.058593-.054687.164062-.160156.304687-.296875l-.003906-.011718zm0 0" fill="#ff889e"/><path d="m524.335938 177.855469c-3.640626-6.839844-7.597657-13.605469-11.902344-20.234375-9.910156-15.238282-22.742188-31.359375-39.210938-46.449219-32.128906 11.828125-51.363281 29.640625-54.175781 32.363281l56.199219 98.183594c25.089844-17.089844 41.277344-38.113281 49.089844-63.863281zm0 0" fill="#ff889e"/><path d="m29.386719 48.300781c-9.199219.546875-17.085938 6.757813-19.867188 15.539063-12.089843 38.125-34.363281 144.40625 64.203125 211.523437l116.742188-170.101562s-60.914063-62.910157-161.078125-56.960938zm0 0" fill="#77718c"/><path d="m68.53125 157.621094c-16.628906 25.585937-28.046875 53.101562-35.859375 79.851562 10.507813 13.4375 23.960937 26.257813 41.054687 37.890625l116.738282-170.101562s-12.855469-13.265625-36.445313-27.035157c-40.609375 21.976563-67.742187 52.09375-85.488281 79.394532zm0 0" fill="#5c586f"/><path d="m53.046875 113.488281c-1.9375 13.152344-2.785156 28.527344-.683594 44.460938 4.625 35.066406 22.078125 62.46875 53.351563 83.761719l56.199218-98.175782c-3.828124-3.699218-37.972656-35.3125-93.65625-41.824218-7.410156-.863282-14.117187 4.402343-15.210937 11.777343zm108.871094 30.039063-.003907.007812c.140626.136719.25.242188.308594.300782zm0 0" fill="#ffb2c1"/><path d="m161.917969 143.523438-.003907.011718c.140626.136719.25.242188.308594.296875zm0 0" fill="#ff889e"/><path d="m68.53125 157.621094c-4.304688 6.628906-8.265625 13.394531-11.902344 20.234375 7.8125 25.75 23.996094 46.773437 49.089844 63.863281l56.195312-98.183594c-2.8125-2.722656-22.050781-20.535156-54.171874-32.363281-16.472657 15.089844-29.304688 31.210937-39.210938 46.449219zm0 0" fill="#ff889e"/><path d="m290.480469 85.199219c-191.679688 0-235.355469 159.28125-235.355469 269.976562 0 95.089844 93.003906 141.371094 147.457031 234.691407 18.199219 31.179687 51.796875 50.128906 87.898438 50.128906 36.101562 0 69.699219-18.949219 87.894531-50.128906 54.453125-93.320313 147.460938-139.597657 147.460938-234.691407 0-110.695312-43.671876-269.976562-235.355469-269.976562zm0 0" fill="#77718c"/><path d="m234.78125 589.867188c-54.457031-93.320313-147.464844-139.601563-147.464844-234.691407 0-107.519531 41.222656-260.875 219.261719-269.578125-5.25-.253906-10.605469-.398437-16.097656-.398437-191.679688 0-235.355469 159.28125-235.355469 269.976562 0 95.089844 93.003906 141.371094 147.457031 234.691407 18.199219 31.179687 51.796875 50.128906 87.898438 50.128906 5.4375 0 10.820312-.433594 16.097656-1.273438-29.777344-4.714844-56.34375-22.371094-71.796875-48.855468zm0 0" fill="#5c586f"/><path d="m331.976562 551.898438c-4.011718-3.511719-10.117187-3.101563-13.625.910156-2.488281 2.84375-6.242187 4.472656-10.300781 4.472656-4.0625 0-7.816406-1.628906-10.300781-4.472656-1.808594-2.0625-4.527344-3.289063-7.265625-3.289063-2.75 0-5.460937 1.21875-7.277344 3.289063-2.484375 2.84375-6.238281 4.472656-10.296875 4.472656-4.0625 0-7.816406-1.628906-10.300781-4.472656-3.511719-4.011719-9.609375-4.421875-13.628906-.910156-4.015625 3.507812-4.425781 9.609374-.914063 13.625 6.152344 7.039062 15.207032 11.074218 24.84375 11.074218 6.328125 0 12.398438-1.75 17.570313-4.941406 5.167969 3.195312 11.238281 4.941406 17.570312 4.941406 9.636719 0 18.6875-4.035156 24.839844-11.074218 3.515625-4.015626 3.105469-10.117188-.914063-13.625zm0 0" fill="#423e4f"/><path d="m176.683594 397.0625c-5.332032 0-9.65625 4.324219-9.65625 9.660156v19.800782c0 5.332031 4.324218 9.65625 9.65625 9.65625 5.332031 0 9.660156-4.324219 9.660156-9.65625v-19.800782c0-5.335937-4.328125-9.660156-9.660156-9.660156zm0 0" fill="#423e4f"/><path d="m172.265625 442.707031h-21.304687c-5.335938 0-9.65625 4.320313-9.65625 9.660157 0 5.332031 4.320312 9.65625 9.65625 9.65625h21.304687c5.332031 0 9.660156-4.324219 9.660156-9.65625 0-5.339844-4.328125-9.660157-9.660156-9.660157zm0 0" fill="#ffb2c1"/><path d="m413.9375 426.523438v-19.800782c0-5.335937-4.328125-9.660156-9.660156-9.660156-5.335938 0-9.65625 4.324219-9.65625 9.660156v19.800782c0 5.332031 4.320312 9.65625 9.65625 9.65625 5.332031 0 9.660156-4.324219 9.660156-9.65625zm0 0" fill="#423e4f"/><path d="m430 442.707031h-21.304688c-5.332031 0-9.65625 4.320313-9.65625 9.660157 0 5.332031 4.324219 9.65625 9.65625 9.65625h21.304688c5.335938 0 9.660156-4.324219 9.660156-9.65625 0-5.339844-4.324218-9.660157-9.660156-9.660157zm0 0" fill="#ffb2c1"/><path d="m326.074219 502.359375c-.007813-3.484375-2.953125-6.257813-6.441407-6.257813h-58.304687c-3.484375 0-6.429687 2.773438-6.445313 6.257813v.070313c0 15.574218 15.9375 28.210937 35.597657 28.210937 19.660156 0 35.59375-12.636719 35.59375-28.210937 0-.023438 0-.042969 0-.070313zm0 0" fill="#423e4f"/><path d="m354.296875 80.800781c-8.589844-10.476562-11.65625-18.507812-8.5-32.167969 2.789063-12.082031-4.085937-24.292968-15.863281-28.164062-7.652344-2.519531-15.289063-4.394531-20.445313-11.105469-9.59375-12.484375-28.417969-12.484375-38.019531 0-5.082031 6.621094-12.898438 8.625-20.4375 11.105469-11.777344 3.871094-18.65625 16.082031-15.871094 28.164062 3.09375 13.378907-.167968 22.003907-8.496094 32.167969-7.238281 8.832031-7.238281 21.550781 0 30.390625 8.546876 10.429688 11.503907 19.144532 8.496094 32.167969-2.785156 12.078125 4.09375 24.289063 15.871094 28.167969 7.519531 3.757812 14.851562 3.828125 20.4375 11.097656 9.601562 12.484375 28.425781 12.484375 38.019531 0 5.121094-6.664062 12.855469-8.601562 20.445313-11.097656 11.777344-3.878906 18.652344-16.089844 15.863281-28.164063-2.96875-12.882812.328125-22.199219 8.5-32.171875 7.242187-8.835937 7.242187-21.554687 0-30.390625zm0 0" fill="#e7e7e7"/><path d="m297.226562 182.625c-5.585937-7.269531-12.917968-7.339844-20.445312-11.097656-11.769531-3.878906-18.652344-16.089844-15.863281-28.167969 3.007812-13.019531.042969-21.738281-8.5-32.167969-7.242188-8.839844-7.242188-21.554687.003906-30.390625 8.324219-10.15625 11.585937-18.785156 8.496094-32.167969-2.789063-12.078124 4.09375-24.292968 15.863281-28.164062 7.539062-2.480469 15.363281-4.484375 20.445312-11.105469 1.769532-2.300781 3.851563-4.175781 6.132813-5.625-10.09375-6.433593-24.058594-4.558593-31.882813 5.625-5.089843 6.621094-12.90625 8.625-20.445312 11.105469-11.777344 3.871094-18.65625 16.082031-15.871094 28.164062 3.09375 13.382813-.167968 22.011719-8.496094 32.167969-7.238281 8.835938-7.238281 21.550781 0 30.390625 8.546876 10.429688 11.503907 19.148438 8.496094 32.167969-2.785156 12.078125 4.09375 24.289063 15.871094 28.167969 7.519531 3.757812 14.851562 3.828125 20.4375 11.097656 7.832031 10.1875 21.796875 12.0625 31.890625 5.628906-2.28125-1.453125-4.363281-3.328125-6.132813-5.628906zm0 0" fill="#c7c5cb"/></svg>