<svg height="682pt" viewBox="-46 -21 682 682.66809" width="682pt" xmlns="http://www.w3.org/2000/svg"><path d="m580.4375 288.851562-.292969-.59375c-6.445312-13.050781-8.679687-27.785156-6.40625-42.160156l.058594-.363281c3.457031-21.796875-3.519531-43.953125-18.835937-59.839844l-.488282-.507812c-9.953125-10.316407-16.511718-23.433594-18.800781-37.582031l-.039063-.242188c-3.570312-22.050781-17.402343-41.09375-37.265624-51.3125l-.703126-.359375c-12.421874-6.394531-22.660156-16.339844-29.414062-28.574219-11.011719-19.957031-31.003906-33.339844-53.648438-35.914062l-.722656-.082032c-13.402344-1.523437-26.085937-6.871093-36.535156-15.40625l-.078125-.058593c-17.9375-14.640625-41.921875-19.523438-64.148437-13.050781l-.273438.078124c-12.835938 3.738282-26.472656 3.738282-39.316406 0l-.273438-.078124c-22.226562-6.472657-46.210937-1.589844-64.144531 13.050781l-.074219.058593c-10.453125 8.535157-23.132812 13.882813-36.542968 15.40625l-.714844.082032c-22.648438 2.574218-42.644532 15.957031-53.652344 35.914062-6.75 12.234375-16.992188 22.179688-29.414062 28.574219l-.703126.359375c-19.863281 10.21875-33.699218 29.269531-37.265624 51.320312l-.039063.234376c-2.292969 14.148437-8.847656 27.265624-18.800781 37.585937l-.488282.507813c-15.316406 15.890624-22.292968 38.042968-18.835937 59.839843l.058594.367188c2.273437 14.375.039062 29.101562-6.402344 42.152343l-.296875.601563c-9.691406 19.632813-9.691406 42.65625 0 62.289063l.296875.601562c6.441406 13.050781 8.675781 27.777344 6.402344 42.15625l-.058594.363281c-3.453125 21.796875 3.519531 43.953125 18.835937 59.835938l.488282.507812c9.953125 10.324219 16.507812 23.4375 18.804687 37.589844l.039063.234375c3.570312 22.050781 17.398437 41.097656 37.261718 51.316406l.703126.355469c12.421874 6.398437 22.664062 16.34375 29.414062 28.574219 11.007812 19.957031 31.003906 33.339844 53.652344 35.917968l.714844.085938c13.40625 1.523438 26.089843 6.867188 36.542968 15.398438l.074219.058593c17.933594 14.644531 41.917969 19.523438 64.144531 13.050781l.273438-.078124c12.839844-3.738282 26.476562-3.734376 39.316406 0l.269531.078124c22.226563 6.472657 46.214844 1.589844 64.144531-13.050781l.078126-.058593c10.449218-8.535157 23.136718-13.882813 36.539062-15.40625l.722656-.082032c22.648438-2.574218 42.640625-15.957031 53.652344-35.914062 6.75-12.234375 16.988281-22.179688 29.414062-28.574219l.703126-.359375c19.863281-10.21875 33.691406-29.261719 37.261718-51.316406l.039063-.234375c2.289062-14.152344 8.851562-27.265625 18.804687-37.585938l.488282-.511719c15.316406-15.882812 22.289062-38.042968 18.835937-59.839843l-.058594-.363281c-2.28125-14.375-.042969-29.101563 6.402344-42.15625l.296875-.597657c9.691406-19.628906 9.691406-42.65625 0-62.292969zm0 0" fill="#de8957"/><path d="m247.742188 624.144531-.078126-.058593c-10.449218-8.535157-23.132812-13.882813-36.539062-15.40625l-.722656-.078126c-22.640625-2.578124-42.636719-15.960937-53.644532-35.917968-6.753906-12.230469-16.992187-22.175782-29.421874-28.574219l-.695313-.355469c-19.863281-10.21875-33.699219-29.265625-37.265625-51.316406l-.039062-.234375c-2.292969-14.15625-8.847657-27.265625-18.800782-37.589844l-.488281-.507812c-15.316406-15.886719-22.292969-38.039063-18.835937-59.835938l.058593-.367187c2.273438-14.375.039063-29.105469-6.40625-42.152344l-.292969-.601562c-9.695312-19.632813-9.695312-42.65625 0-62.289063l.292969-.601563c6.445313-13.050781 8.679688-27.777343 6.40625-42.160156l-.058593-.359375c-3.457032-21.800781 3.519531-43.957031 18.835937-59.84375l.488281-.507812c9.953125-10.316407 16.507813-23.433594 18.800782-37.582031l.039062-.242188c3.566406-22.050781 17.402344-41.09375 37.265625-51.3125l.695313-.359375c12.429687-6.398437 22.667968-16.34375 29.421874-28.574219 11.007813-19.957031 31.003907-33.347656 53.652344-35.917968l.714844-.078126c13.40625-1.53125 26.089844-6.871093 36.542969-15.40625l.074219-.058593c7.523437-6.144531 16.125-10.542969 25.199218-13.136719-22.136718-6.332031-45.980468-1.433594-63.832031 13.136719l-.074219.058593c-10.453125 8.53125-23.132812 13.875-36.542968 15.40625l-.714844.078126c-22.648438 2.570312-42.644532 15.960937-53.652344 35.917968-6.75 12.230469-16.992188 22.175782-29.414062 28.574219l-.703126.359375c-19.863281 10.21875-33.699218 29.261719-37.265624 51.3125l-.039063.242188c-2.292969 14.148437-8.847656 27.265624-18.800781 37.582031l-.488282.507812c-15.316406 15.886719-22.292968 38.042969-18.835937 59.84375l.058594.359375c2.273437 14.382813.039062 29.109375-6.402344 42.160156l-.296875.601563c-9.691406 19.632813-9.691406 42.65625 0 62.289063l.296875.601562c6.441406 13.046875 8.675781 27.777344 6.402344 42.152344l-.058594.367187c-3.453125 21.796875 3.519531 43.949219 18.835937 59.835938l.488282.507812c9.953125 10.324219 16.507812 23.433594 18.804687 37.589844l.039063.234375c3.570312 22.050781 17.398437 41.097656 37.261718 51.316406l.703126.355469c12.421874 6.398437 22.664062 16.34375 29.414062 28.574219 11.007812 19.957031 31.003906 33.347656 53.652344 35.917968l.714844.078126c13.40625 1.53125 26.089843 6.871093 36.542968 15.40625l.074219.058593c17.851563 14.570313 41.695313 19.464844 63.832031 13.128907-9.074218-2.585938-17.675781-6.984376-25.199218-13.128907zm0 0" fill="#c76d33"/><path d="m169.289062 78.761719c6.40625-5.265625 9.253907-14.03125 6.652344-22.277344-9.078125-28.832031-37.042968-49.292969-69.386718-46.875-33.46875 2.496094-60.238282 29.902344-62.015626 63.421875-1.464843 27.410156 13.488282 51.460938 35.898438 63.269531 6.933594 3.636719 15.101562 3.09375 21.273438-.964843l-6.269532-34.785157 40.703125-34.933593zm0 0" fill="#e8a882"/><path d="m169.289062 78.761719c-1.503906 1.234375-3.1875 2.265625-5.058593 3.066406-15.238281 6.511719-39.144531 20.359375-56.589844 47.523437-1.574219 2.46875-3.609375 4.476563-5.929687 5.984376-10.929688-8.25-17.988282-21.355469-17.988282-36.101563 0-24.980469 20.253906-45.234375 45.230469-45.234375 17.613281 0 32.863281 10.066406 40.335937 24.761719zm0 0" fill="#ffb2c1"/><path d="m417.082031 78.761719c-6.40625-5.265625-9.25-14.03125-6.648437-22.277344 9.078125-28.832031 37.039062-49.292969 69.382812-46.875 33.472656 2.496094 60.242188 29.902344 62.019532 63.421875 1.464843 27.410156-13.488282 51.460938-35.898438 63.269531-6.933594 3.636719-15.105469 3.09375-21.277344-.964843l6.269532-34.785157-40.703126-34.933593zm0 0" fill="#e8a882"/><path d="m417.082031 78.761719c1.503907 1.234375 3.191407 2.265625 5.058594 3.066406 15.242187 6.511719 39.148437 20.359375 56.59375 47.523437 1.570313 2.46875 3.609375 4.476563 5.925781 5.984376 10.9375-8.25 17.996094-21.355469 17.996094-36.101563 0-24.980469-20.261719-45.234375-45.234375-45.234375-17.613281 0-32.863281 10.066406-40.339844 24.761719zm0 0" fill="#ffb2c1"/><path d="m333.484375 280.84375c66.964844 20.332031 65.078125 92.746094 65.078125 123.632812 0 81.714844-18.0625 90.320313-105.375 90.320313-87.316406 0-105.375-8.605469-105.375-90.320313 0-30.886718-1.886719-103.300781 65.082031-123.632812zm0 0" fill="#e8a882"/><g fill="#423e4f"><path d="m333.484375 280.84375c-2.644531 19.894531-19.675781 35.25-40.296875 35.25s-37.652344-15.355469-40.292969-35.25c11.335938-3.445312 24.652344-5.394531 40.292969-5.394531s28.953125 1.949219 40.296875 5.394531zm0 0"/><path d="m339.402344 337.316406c-4.011719-3.511718-10.117188-3.101562-13.628906.917969-3.058594 3.5-7.675782 5.511719-12.65625 5.511719-4.980469 0-9.597657-2.011719-12.660157-5.519532-1.8125-2.070312-4.53125-3.289062-7.28125-3.289062-2.746093 0-5.449219 1.21875-7.257812 3.289062-3.066407 3.507813-7.683594 5.519532-12.664063 5.519532-4.980468 0-9.59375-2.011719-12.660156-5.519532-3.511719-4.011718-9.609375-4.421874-13.628906-.910156-4.011719 3.507813-4.421875 9.609375-.910156 13.625 6.730468 7.703125 16.644531 12.121094 27.199218 12.121094 7.214844 0 14.128906-2.066406 19.933594-5.832031 5.804688 3.765625 12.714844 5.832031 19.929688 5.832031 10.558593 0 20.46875-4.417969 27.203124-12.121094 3.511719-4.015625 3.101563-10.117187-.917968-13.625zm0 0"/><path d="m176.75 283.554688c-5.332031 0-9.652344-4.324219-9.652344-9.65625v-21.261719c0-5.332031 4.320313-9.65625 9.652344-9.65625 5.339844 0 9.660156 4.324219 9.660156 9.65625v21.261719c0 5.332031-4.320312 9.65625-9.660156 9.65625zm0 0"/></g><path d="m172.3125 309.53125h-21.414062c-5.332032 0-9.660157-4.324219-9.660157-9.65625 0-5.339844 4.328125-9.660156 9.660157-9.660156h21.414062c5.332031 0 9.660156 4.320312 9.660156 9.660156 0 5.332031-4.328125 9.65625-9.660156 9.65625zm0 0" fill="#ffb2c1"/><path d="m409.621094 283.554688c-5.335938 0-9.65625-4.324219-9.65625-9.65625v-21.261719c0-5.332031 4.320312-9.65625 9.65625-9.65625 5.332031 0 9.660156 4.324219 9.660156 9.65625v21.261719c0 5.332031-4.328125 9.65625-9.660156 9.65625zm0 0" fill="#423e4f"/><path d="m435.476562 309.53125h-21.414062c-5.332031 0-9.660156-4.324219-9.660156-9.65625 0-5.339844 4.328125-9.660156 9.660156-9.660156h21.414062c5.332032 0 9.660157 4.320312 9.660157 9.660156 0 5.332031-4.328125 9.65625-9.660157 9.65625zm0 0" fill="#ffb2c1"/></svg>