<svg height="682pt" viewBox="-83 -21 682 682.66576" width="682pt" xmlns="http://www.w3.org/2000/svg"><path d="m440.796875 1.734375c7.902344-4.542969 17.886719.285156 19.195313 9.304687 3.390624 23.292969 13.363281 67.042969 42.734374 118.578126 37.253907 71.199218-52.984374 192.480468-52.984374 192.480468l-82.996094-212.09375c3.105468-59.253906 48.375-93.511718 74.050781-108.269531zm0 0" fill="#77718c"/><path d="m495.359375 240.667969c-16.898437-51.800781-43.316406-96.308594-77.152344-129.683594-13.777343-13.585937-28.699219-25.199219-44.578125-34.769531-3.742187 10.214844-6.238281 21.457031-6.882812 33.789062l82.996094 212.09375s27.246093-36.621094 45.617187-81.429687zm0 0" fill="#5c586f"/><path d="m421.539062 76.160156c2.769532-3.828125 8.691407-2.902344 10.207032 1.574219 7.367187 21.761719 17.847656 46.292969 32.734375 72.554687 8.0625 16.230469 3.246093 46.414063-13.257813 82.996094l-49.496094-61.859375c-6.703124-50.640625 8.597657-79.765625 19.8125-95.265625zm0 0" fill="#ffb2c1"/><path d="m67.113281 1.734375c-7.90625-4.542969-17.886719.285156-19.195312 9.304687-3.390625 23.292969-13.363281 67.042969-42.734375 118.578126-37.257813 71.199218 52.984375 192.480468 52.984375 192.480468l82.996093-212.09375c-3.105468-59.253906-48.375-93.511718-74.050781-108.269531zm0 0" fill="#77718c"/><path d="m12.550781 240.667969c18.371094 44.808593 45.617188 81.429687 45.617188 81.429687l82.996093-212.09375c-.648437-12.332031-3.140624-23.574218-6.882812-33.789062-15.878906 9.570312-30.800781 21.183594-44.582031 34.769531-33.832031 33.375-60.253907 77.882813-77.148438 129.683594zm0 0" fill="#5c586f"/><path d="m86.371094 76.160156c-2.773438-3.828125-8.691406-2.902344-10.207032 1.574219-7.367187 21.761719-17.847656 46.292969-32.738281 72.554687-8.058593 16.230469-3.242187 46.414063 13.261719 82.996094l49.492188-61.859375c6.707031-50.640625-8.59375-79.765625-19.808594-95.265625zm0 0" fill="#ffb2c1"/><path d="m413.316406 533.617188c0-58.75-71.347656-106.378907-159.363281-106.378907-88.011719 0-159.359375 47.628907-159.359375 106.378907 0 58.753906 71.347656 106.382812 159.359375 106.382812 88.015625 0 159.363281-47.628906 159.363281-106.382812zm0 0" fill="#5c586f"/><path d="m39.976562 177.273438c1.433594 15.496093 7.078126 34.660156 16.710938 56.015624l49.492188-61.859374c4.058593-30.625.0625-53.367188-6.210938-70-3.480469 3.078124-6.914062 6.25-10.269531 9.554687-19.050781 18.796875-35.746094 41.125-49.722657 66.289063zm0 0" fill="#ff889e"/><path d="m418.207031 110.984375c-3.351562-3.304687-6.785156-6.484375-10.269531-9.554687-6.269531 16.632812-10.265625 39.375-6.210938 70l49.496094 61.859374c9.632813-21.355468 15.277344-40.519531 16.710938-56.015624-13.976563-25.164063-30.675782-47.492188-49.726563-66.289063zm0 0" fill="#ff889e"/><path d="m253.953125 565.023438c-33.507813 0-49.925781 17.714843-78.878906 29.140624-47.664063 18.808594-98.867188 15.644532-123.527344-33.257812-42.765625-84.78125-37.949219-200.691406-14.375-289.941406 27.761719-105.121094 100.339844-195.277344 216.78125-195.277344 116.445313 0 189.019531 90.15625 216.785156 195.277344 23.574219 89.246094 28.390625 205.160156-14.375 289.941406-24.660156 48.902344-75.863281 52.0625-123.527343 33.253906-28.953126-11.421875-45.371094-29.136718-78.882813-29.136718zm0 0" fill="#938ea3"/><path d="m90.171875 560.90625c-42.761719-84.78125-37.941406-200.691406-14.367187-289.941406 26.195312-99.179688 92.289062-185.023438 197.464843-194.414063-6.300781-.558593-12.734375-.863281-19.316406-.863281-116.441406 0-189.019531 90.15625-216.78125 195.277344-23.574219 89.246094-28.390625 205.160156 14.367187 289.941406 19.332032 38.316406 54.953126 48.546875 92.398438 42.128906-22.097656-4.433594-41.3125-17.445312-53.765625-42.128906zm0 0" fill="#77718c"/><path d="m291.667969 365.347656c-.011719-3.699218-3.128907-6.636718-6.828125-6.636718h-61.769532c-3.699218 0-6.816406 2.9375-6.828124 6.636718v.066406c0 16.503907 16.886718 29.890626 37.710937 29.890626 20.828125 0 37.714844-13.386719 37.714844-29.890626 0-.023437 0-.046874 0-.066406zm0 0" fill="#423e4f"/><path d="m146.449219 356.914062h-19.601563c-5.335937 0-9.65625 4.324219-9.65625 9.65625 0 5.339844 4.320313 9.660157 9.65625 9.660157h19.601563c5.332031 0 9.65625-4.320313 9.65625-9.660157 0-5.332031-4.324219-9.65625-9.65625-9.65625zm0 0" fill="#ffb2c1"/><path d="m168.269531 296.296875h-35.511719c-5.339843 0-9.660156 4.328125-9.660156 9.660156s4.320313 9.65625 9.660156 9.65625h8.09375v13.527344c0 5.332031 4.328126 9.652344 9.660157 9.652344 5.335937 0 9.65625-4.320313 9.65625-9.652344v-13.527344h8.101562c5.335938 0 9.65625-4.324219 9.65625-9.65625s-4.320312-9.660156-9.65625-9.660156zm0 0" fill="#423e4f"/><path d="m367.054688 329.140625v-13.527344h8.097656c5.332031 0 9.660156-4.324219 9.660156-9.65625s-4.328125-9.660156-9.660156-9.660156h-35.515625c-5.332031 0-9.660157 4.328125-9.660157 9.660156s4.328126 9.65625 9.660157 9.65625h8.101562v13.527344c0 5.332031 4.320313 9.652344 9.65625 9.652344 5.335938 0 9.660157-4.320313 9.660157-9.652344zm0 0" fill="#423e4f"/><path d="m381.0625 356.914062h-19.601562c-5.335938 0-9.65625 4.324219-9.65625 9.65625 0 5.339844 4.320312 9.660157 9.65625 9.660157h19.601562c5.332031 0 9.65625-4.320313 9.65625-9.660157 0-5.332031-4.324219-9.65625-9.65625-9.65625zm0 0" fill="#ffb2c1"/><g fill="#77718c"><path d="m143.832031 476.332031c0 6.117188-4.957031 11.078125-11.074219 11.078125-6.121093 0-11.082031-4.960937-11.082031-11.078125 0-6.117187 4.960938-11.078125 11.082031-11.078125 6.117188 0 11.074219 4.960938 11.074219 11.078125zm0 0"/><path d="m159.660156 502.839844c0 6.117187-4.960937 11.078125-11.078125 11.078125-6.117187 0-11.078125-4.960938-11.078125-11.078125 0-6.117188 4.960938-11.078125 11.078125-11.078125 6.117188 0 11.078125 4.960937 11.078125 11.078125zm0 0"/><path d="m128.003906 502.839844c0 6.117187-4.960937 11.078125-11.078125 11.078125-6.117187 0-11.074219-4.960938-11.074219-11.078125 0-6.117188 4.957032-11.078125 11.074219-11.078125 6.117188 0 11.078125 4.960937 11.078125 11.078125zm0 0"/><path d="m386.234375 476.332031c0 6.117188-4.960937 11.078125-11.082031 11.078125-6.117188 0-11.078125-4.960937-11.078125-11.078125 0-6.117187 4.960937-11.078125 11.078125-11.078125 6.121094 0 11.082031 4.960938 11.082031 11.078125zm0 0"/><path d="m370.402344 502.839844c0 6.117187-4.957032 11.078125-11.074219 11.078125-6.121094 0-11.078125-4.960938-11.078125-11.078125 0-6.117188 4.957031-11.078125 11.078125-11.078125 6.117187 0 11.074219 4.960937 11.074219 11.078125zm0 0"/><path d="m402.058594 502.839844c0 6.117187-4.960938 11.078125-11.078125 11.078125-6.121094 0-11.082031-4.960938-11.082031-11.078125 0-6.117188 4.960937-11.078125 11.082031-11.078125 6.117187 0 11.078125 4.960937 11.078125 11.078125zm0 0"/></g></svg>