<svg height="682pt" viewBox="-62 -21 682 682.6676" width="682pt" xmlns="http://www.w3.org/2000/svg"><path d="m425.960938 13.28125c7.121093-8.417969 17.574218-13.28125 28.601562-13.28125 14.441406 0 27.679688 8.265625 33.796875 21.347656 24.613281 52.636719 67.007813 74.433594 67.007813 141.355469 0 66.640625-61.359376 112.5-61.359376 112.5l-105.160156-171.355469c0-40.097656 22.398438-73.164062 37.113282-90.566406zm0 0" fill="#de8957"/><path d="m396.148438 63.726562c-4.394532 12.203126-7.300782 25.703126-7.300782 40.121094l105.160156 171.355469s17.664063-13.203125 34.035157-35.734375c-15.539063-76.273438-65.011719-140.347656-131.894531-175.742188zm0 0" fill="#c76d33"/><path d="m450 56.542969c1.476562-1.9375 4.453125-1.738281 5.660156.375 8.421875 14.796875 17.507813 27.144531 25.777344 38.386719 17.765625 24.144531 28.488281 38.722656 28.488281 67.398437 0 41.992187-42.6875 75.789063-43.117187 76.109375l-32.527344-70.046875c-14.886719-70.96875 5.035156-98.183594 15.71875-112.222656zm0 0" fill="#ffb2c1"/><path d="m433.511719 87.84375c-5.199219 17.601562-7.183594 43.015625.769531 80.914062l32.527344 70.054688c.371094-.277344 32.230468-25.523438 40.925781-59.441406-17.398437-35.964844-42.945313-67.269532-74.222656-91.527344zm0 0" fill="#ff889e"/><path d="m126.984375 13.28125c-7.121094-8.417969-17.570313-13.28125-28.601563-13.28125-14.4375 0-27.675781 8.265625-33.792968 21.347656-24.617188 52.636719-67.007813 74.433594-67.007813 141.355469 0 66.640625 61.359375 112.5 61.359375 112.5l105.160156-171.355469c0-40.097656-22.398437-73.164062-37.117187-90.566406zm0 0" fill="#de8957"/><path d="m156.800781 63.726562c-66.886719 35.394532-116.355469 99.46875-131.894531 175.746094 16.375 22.527344 34.035156 35.730469 34.035156 35.730469l105.160156-171.355469c0-14.417968-2.90625-27.925781-7.300781-40.121094zm0 0" fill="#c76d33"/><path d="m102.949219 56.542969c-1.472657-1.9375-4.457031-1.738281-5.664063.375-8.421875 14.796875-17.507812 27.144531-25.777344 38.386719-17.765624 24.144531-28.488281 38.722656-28.488281 67.398437 0 41.988281 42.6875 75.789063 43.125 76.109375l32.519531-70.054688c14.890626-70.960937-5.03125-98.175781-15.714843-112.214843zm0 0" fill="#ffb2c1"/><path d="m45.210938 179.371094c8.699218 33.917968 40.5625 59.164062 40.933593 59.441406l32.519531-70.054688c7.953126-37.898437 5.976563-63.3125.773438-80.914062-31.277344 24.257812-56.828125 55.5625-74.226562 91.527344zm0 0" fill="#ff889e"/><path d="m155.703125 508.691406c-37.4375-67.496094-92.582031-117.460937-97.027344-206.363281-.21875-3.84375-.296875-7.695313-.296875-11.539063 0-120.441406 97.652344-218.09375 218.097656-218.09375 120.441407 0 218.089844 97.652344 218.089844 218.09375 0 3.335938-.273437 11.023438-.296875 11.539063-4.441406 88.902344-59.585937 138.867187-97.027343 206.363281zm0 0" fill="#e7e7e7"/><path d="m155.703125 508.691406h34.769531c-37.441406-67.496094-92.585937-117.460937-97.023437-206.355468-.222657-3.84375-.300781-7.703126-.300781-11.546876 0-114.585937 88.394531-208.542968 200.710937-217.398437-4.121094-.324219-8.238281-.480469-12.375-.625-1.636719-.039063-4.980469-.066406-5.007813-.066406-82.808593 0-154.839843 46.152343-191.773437 114.140625-18.988281 34.957031-28.304687 75.734375-26.027344 115.496094 3.609375 72.230468 40.695313 118.757812 74.550781 169.867187 7.890626 11.90625 15.546876 23.988281 22.476563 36.488281zm0 0" fill="#c7c5cb"/><path d="m397.242188 508.691406c-9.996094 17.988282-18.730469 37.242188-24.898438 58.804688-12.253906 42.863281-51.289062 72.503906-95.867188 72.503906-44.582031 0-83.621093-29.640625-95.871093-72.503906-6.167969-21.5625-14.902344-40.8125-24.902344-58.804688 0-107.984375 89.238281-44 84.191406-285.992187-.289062-14.136719 14.289063-24.183594 27.089844-18.171875 6.4375 3.011718 12.566406 2.996094 18.976563-.015625 12.804687-5.996094 27.378906 4.050781 27.097656 18.1875-5.050782 241.992187 84.183594 178.007812 84.183594 285.992187zm0 0" fill="#de8957"/><path d="m280.824219 639.902344c1.542969-.074219 3.085937-.175782 4.621093-.316406 2.835938-.257813 5.644532-.636719 8.414063-1.125-37.070313-6.566407-67.859375-33.78125-78.488281-70.964844-6.167969-21.5625-14.902344-40.816406-24.898438-58.804688-8.484375-15.296875-17.878906-29.691406-27.386718-43.847656-4.578126 10.992188-7.382813 24.722656-7.382813 43.847656 1.25 2.246094 15.210937 30.253906 19.816406 43.050782 5.15625 14.320312 8.507813 28.789062 16.746094 41.8125 9.238281 14.601562 22.265625 26.695312 37.515625 34.804687 15.585938 8.296875 33.40625 12.339844 51.042969 11.542969zm0 0" fill="#c76d33"/><g fill="#423e4f"><path d="m310.703125 522.320312c-.003906-3.355468-2.839844-6.027343-6.195313-6.027343h-56.070312c-3.355469 0-6.1875 2.671875-6.195312 6.027343v.058594c0 14.980469 15.328124 27.132813 34.234374 27.132813s34.230469-12.152344 34.230469-27.132813c-.003906-.019531-.003906-.039062-.003906-.058594zm0 0"/><path d="m321.992188 568.785156c-4.019532-3.511718-10.117188-3.101562-13.628907.910156-2.976562 3.410157-7.464843 5.367188-12.308593 5.367188s-9.332032-1.957031-12.308594-5.367188c-1.808594-2.058593-4.535156-3.296874-7.28125-3.289062-2.75.007812-5.449219 1.214844-7.261719 3.289062-2.976563 3.410157-7.464844 5.367188-12.308594 5.367188s-9.332031-1.957031-12.308593-5.367188c-3.511719-4.011718-9.609376-4.421874-13.628907-.910156-4.011719 3.511719-4.421875 9.609375-.914062 13.628906 6.648437 7.601563 16.433593 11.960938 26.851562 11.960938 7.082031 0 13.867188-2.015625 19.582031-5.699219 5.707032 3.683594 12.492188 5.699219 19.578126 5.699219 10.421874 0 20.207031-4.359375 26.851562-11.960938 3.511719-4.015624 3.101562-10.117187-.914062-13.628906zm0 0"/><path d="m172.207031 342.601562c-5.335937 0-9.65625 4.328126-9.65625 9.660157v21.636719c0 5.335937 4.320313 9.65625 9.65625 9.65625 5.332031 0 9.660157-4.320313 9.660157-9.65625v-21.636719c0-5.332031-4.328126-9.660157-9.660157-9.660157zm0 0"/></g><path d="m167.953125 391.6875h-20.488281c-5.332032 0-9.65625 4.328125-9.65625 9.660156 0 5.335938 4.324218 9.660156 9.65625 9.660156h20.488281c5.332031 0 9.660156-4.324218 9.660156-9.660156 0-5.332031-4.328125-9.660156-9.660156-9.660156zm0 0" fill="#ffb2c1"/><path d="m390.402344 373.898438v-21.636719c0-5.339844-4.328125-9.660157-9.660156-9.660157-5.332032 0-9.65625 4.320313-9.65625 9.660157v21.636719c0 5.328124 4.324218 9.65625 9.65625 9.65625 5.332031 0 9.660156-4.320313 9.660156-9.65625zm0 0" fill="#423e4f"/><path d="m405.484375 391.6875h-20.488281c-5.335938 0-9.660156 4.328125-9.660156 9.660156 0 5.335938 4.324218 9.660156 9.660156 9.660156h20.488281c5.332031 0 9.65625-4.324218 9.65625-9.660156 0-5.332031-4.324219-9.660156-9.65625-9.660156zm0 0" fill="#ffb2c1"/></svg>