<svg height="681pt" viewBox="-21 -26 681.33592 681" width="681pt" xmlns="http://www.w3.org/2000/svg"><path d="m178.09375 46.324219c-89.355469-57.554688-195.0625 8.339843-166.230469 131.898437 13.726563 61.773438-65.425781 123.570313 62.011719 182.589844zm0 0" fill="#de8957"/><path d="m460.65625 46.324219c89.351562-57.554688 195.0625 8.339843 166.234375 131.898437-13.730469 61.773438 65.421875 123.570313-62.011719 182.589844zm0 0" fill="#de8957"/><path d="m564.878906 360.8125c15.40625-7.136719 27.789063-14.3125 37.6875-21.527344-3.101562-61.484375-10.941406-127.316406-30.730468-186.800781-16.992188-51.054687-41.453126-92.460937-72.800782-123.332031-12.835937 3.390625-25.769531 9.054687-38.378906 17.171875zm0 0" fill="#c76d33"/><path d="m36.183594 339.285156c9.898437 7.214844 22.28125 14.390625 37.691406 21.527344l104.226562-314.488281c-12.613281-8.121094-25.542968-13.785157-38.378906-17.171875-31.355468 30.871094-55.8125 72.269531-72.804687 123.332031-19.792969 59.484375-27.628907 125.316406-30.734375 186.800781zm0 0" fill="#c76d33"/><path d="m450.21875 560.222656c1.015625-.140625 2.03125-.285156 3.046875-.46875 29.863281-5.148437 112.777344-26.3125 112.777344-102.847656 0-161.996094 2.664062-457.152344-246.667969-457.152344s-246.667969 295.15625-246.667969 457.152344c0 76.535156 82.917969 97.703125 112.777344 102.847656 1.015625.183594 2.03125.328125 3.042969.46875l34.066406-90.621094h186.699219zm0 0" fill="#e7e7e7"/><path d="m111.261719 456.90625c0-157.707031-2.511719-441.597656 227.394531-456.53125-6.257812-.4023438-12.675781-.621094-19.28125-.621094-249.332031 0-246.667969 295.15625-246.667969 457.152344 0 76.535156 82.917969 97.703125 112.777344 102.847656 1.015625.183594 2.03125.328125 3.042969.46875l3.246094-8.628906c-35.617188-12.039062-80.511719-38.375-80.511719-94.6875zm0 0" fill="#c7c5cb"/><path d="m281.238281 236.296875c0-43.699219-31.515625-79.128906-70.394531-79.128906-38.875 0-70.394531 35.429687-70.394531 79.128906s31.519531 79.125 70.394531 79.125c38.878906 0 70.394531-35.425781 70.394531-79.125zm0 0" fill="#5c586f"/><path d="m498.304688 236.296875c0-43.699219-31.519532-79.128906-70.394532-79.128906-38.878906 0-70.402344 35.429687-70.402344 79.128906s31.523438 79.125 70.402344 79.125c38.875 0 70.394532-35.425781 70.394532-79.125zm0 0" fill="#5c586f"/><path d="m350.9375 152.414062c-2.042969-15.859374-15.570312-27.734374-31.5625-27.734374s-29.519531 11.875-31.558594 27.734374c-15.59375 121.300782-67.242187 98.628907-99.28125 203.929688h261.683594c-32.042969-105.300781-83.6875-82.628906-99.28125-203.929688zm0 0" fill="#de8957"/><path d="m450.21875 560.222656c-29.804688 41.457032-77.3125 68.285156-130.84375 68.285156-53.527344 0-101.035156-26.828124-130.839844-68.285156l34.058594-90.621094h186.703125zm0 0" fill="#4f4c5f"/><path d="m482.742188 458.273438c0 38.238281-12.09375 73.527343-32.523438 101.949218-9.527344 1.277344-19.21875.878906-28.539062-1.570312-37.328126-9.796875-49.738282-44.09375-102.304688-44.09375-52.5625 0-64.972656 34.296875-102.304688 44.09375-9.316406 2.449218-19.007812 2.847656-28.535156 1.570312-20.429687-28.421875-32.527344-63.710937-32.527344-101.949218 0-74.761719 46.269532-138.285157 110.597657-161.140626h105.542969c64.328124 22.855469 110.59375 86.378907 110.59375 161.140626zm0 0" fill="#5c586f"/><g fill="#423e4f"><path d="m372.148438 297.132812c-4.328126 25.246094-26.304688 44.449219-52.773438 44.449219-26.464844 0-48.445312-19.203125-52.769531-44.449219 16.558593-5.890624 34.304687-9.085937 52.769531-9.085937s36.214844 3.195313 52.773438 9.085937zm0 0"/><path d="m202.609375 270.417969c-5.324219 0-9.640625-4.316407-9.640625-9.636719v-21.511719c0-5.320312 4.316406-9.640625 9.640625-9.640625s9.636719 4.320313 9.636719 9.640625v21.511719c0 5.320312-4.3125 9.636719-9.636719 9.636719zm0 0"/><path d="m436.144531 270.417969c-5.324219 0-9.640625-4.316407-9.640625-9.636719v-21.511719c0-5.320312 4.316406-9.640625 9.640625-9.640625 5.320313 0 9.640625 4.320313 9.640625 9.640625v21.511719c0 5.320312-4.320312 9.636719-9.640625 9.636719zm0 0"/><path d="m256.082031 432.976562c0 4.980469-4.039062 9.019532-9.023437 9.019532-4.980469 0-9.023438-4.039063-9.023438-9.019532 0-4.984374 4.042969-9.019531 9.023438-9.019531 4.984375 0 9.023437 4.035157 9.023437 9.019531zm0 0"/><path d="m216.496094 432.976562c0 4.980469-4.039063 9.019532-9.019532 9.019532-4.984374 0-9.027343-4.039063-9.027343-9.019532 0-4.984374 4.042969-9.019531 9.027343-9.019531 4.980469 0 9.019532 4.035157 9.019532 9.019531zm0 0"/><path d="m236.285156 452.765625c0 4.988281-4.039062 9.027344-9.019531 9.027344-4.984375 0-9.019531-4.039063-9.019531-9.027344 0-4.980469 4.035156-9.019531 9.019531-9.019531 4.980469 0 9.019531 4.039062 9.019531 9.019531zm0 0"/><path d="m400.714844 432.976562c0 4.980469-4.039063 9.019532-9.019532 9.019532-4.984374 0-9.023437-4.039063-9.023437-9.019532 0-4.984374 4.039063-9.019531 9.023437-9.019531 4.980469 0 9.019532 4.035157 9.019532 9.019531zm0 0"/><path d="m440.296875 432.976562c0 4.980469-4.035156 9.019532-9.019531 9.019532-4.980469 0-9.019532-4.039063-9.019532-9.019532 0-4.984374 4.039063-9.019531 9.019532-9.019531 4.984375 0 9.019531 4.035157 9.019531 9.019531zm0 0"/><path d="m420.507812 452.765625c0 4.988281-4.042968 9.027344-9.023437 9.027344-4.984375 0-9.019531-4.039063-9.019531-9.027344 0-4.980469 4.035156-9.019531 9.019531-9.019531 4.980469 0 9.023437 4.039062 9.023437 9.019531zm0 0"/></g></svg>