<svg height="682pt" viewBox="-21 -26 682.66748 682" width="682pt" xmlns="http://www.w3.org/2000/svg"><path d="m631.433594 133.25c-11.445313-12.941406-20.160156-31.542969-20.160156-58.203125 0-77.613281-79.476563-107.535156-150.980469-28.78125l67.835937 129.753906c31.148438 13.167969 59.546875 15.355469 78.394532 14.757813 13.832031-.433594 26.03125-9.171875 31.074218-22.054688 4.710938-12.050781 2.410156-25.78125-6.164062-35.472656zm0 0" fill="#77718c"/><path d="m8.5625 133.25c11.445312-12.941406 20.164062-31.542969 20.164062-58.203125 0-77.613281 79.476563-107.535156 150.980469-28.78125l-67.835937 129.753906c-31.144532 13.167969-59.546875 15.355469-78.394532 14.757813-13.828124-.433594-26.03125-9.171875-31.070312-22.054688-4.714844-12.050781-2.4179688-25.78125 6.15625-35.472656zm0 0" fill="#77718c"/><path d="m543.285156 97.589844c-13.789062-31.058594-31.929687-56.882813-54.097656-77.210938-9.632812 6.792969-19.335938 15.359375-28.894531 25.886719l67.835937 129.753906c14.804688 6.257813 28.96875 10.019531 41.800782 12.195313-6.136719-33.0625-14.699219-63.71875-26.644532-90.625zm0 0" fill="#5c586f"/><path d="m111.871094 176.019531 67.839844-129.753906c-9.558594-10.527344-19.261719-19.09375-28.902344-25.886719-22.160156 20.328125-40.300782 46.152344-54.09375 77.210938-11.414063 25.707031-20.265625 55.640625-26.765625 90.644531 12.863281-2.171875 27.070312-5.9375 41.921875-12.214844zm0 0" fill="#5c586f"/><path d="m528.140625 494.742188c11.292969-23.84375 18.09375-51.386719 18.09375-83.070313 0-249.664063-26.617187-409.558594-226.234375-409.558594-199.625 0-226.242188 159.894531-226.242188 409.558594 0 31.683594 6.8125 59.226563 18.101563 83.070313zm0 0" fill="#938ea3"/><path d="m339.316406 2.652344c-6.253906-.351563-12.6875-.539063-19.316406-.539063-199.625 0-226.242188 159.894531-226.242188 409.558594 0 31.683594 6.8125 59.226563 18.101563 83.070313h38.632813c-11.292969-23.84375-18.101563-51.386719-18.101563-83.070313 0-241.367187 24.894531-398.824219 206.925781-409.019531zm0 0" fill="#77718c"/><path d="m424.726562 564.558594c0-35.894532-46.886718-64.988282-104.726562-64.988282-57.84375 0-104.726562 29.09375-104.726562 64.988282 0 35.890625 46.882812 64.988281 104.726562 64.988281 57.839844 0 104.726562-29.097656 104.726562-64.988281zm0 0" fill="#c7c5cb"/><path d="m357.652344 418.410156c-.441406.175782-.910156.269532-1.378906.269532h-72.546876c-.46875 0-.9375-.09375-1.378906-.269532-106.65625-42.539062-177.753906 37.210938-175.160156 114.628906.085938 2.617188 2.777344 4.320313 5.199219 3.328126 7.445312-3.046876 22.589843-7.871094 39.804687-5.636719 2.464844.320312 3.980469 2.882812 3.011719 5.175781-3.613281 8.546875-9.421875 28.535156 3.855469 48.269531 1.40625 2.09375 4.445312 2.25 6.035156.292969 5.242188-6.46875 17.675781-19.117188 37.761719-23.847656 2.425781-.574219 4.738281 1.289062 4.660156 3.785156-.324219 10.394531.417969 35.433594 13.625 50.722656 1.777344 2.054688 5.074219 1.644532 6.25-.800781 6.464844-13.449219 29.742187-49.769531 92.609375-49.769531 62.859375 0 86.140625 36.320312 92.605469 49.769531 1.171875 2.445313 4.472656 2.855469 6.246093.800781 13.214844-15.289062 13.957032-40.328125 13.628907-50.722656-.078125-2.496094 2.234375-4.355469 4.664062-3.785156 20.085938 4.730468 32.519531 17.378906 37.757813 23.847656 1.589844 1.957031 4.632812 1.796875 6.039062-.292969 13.277344-19.734375 7.460938-39.722656 3.851563-48.269531-.964844-2.292969.542969-4.855469 3.007812-5.175781 17.21875-2.234375 32.363281 2.589843 39.804688 5.636719 2.429687.992187 5.113281-.710938 5.203125-3.328126 2.589844-77.417968-68.507813-157.167968-175.15625-114.628906zm0 0" fill="#e7e7e7"/><path d="m356.988281 418.671875c-.015625-3.621094-3.074219-6.503906-6.699219-6.503906h-60.578124c-3.628907 0-6.6875 2.882812-6.695313 6.503906v.070313c0 16.1875 16.558594 29.316406 36.984375 29.316406 20.429688 0 36.988281-13.128906 36.988281-29.316406 0-.019532 0-.042969 0-.070313zm0 0" fill="#423e4f"/><path d="m201.03125 356.839844c-5.332031 0-9.660156-4.328125-9.660156-9.660156v-20.574219c0-5.332031 4.328125-9.660157 9.660156-9.660157s9.65625 4.328126 9.65625 9.660157v20.574219c0 5.332031-4.320312 9.660156-9.65625 9.660156zm0 0" fill="#423e4f"/><path d="m196.441406 383.6875h-22.140625c-5.332031 0-9.65625-4.320312-9.65625-9.65625 0-5.332031 4.324219-9.660156 9.65625-9.660156h22.140625c5.332032 0 9.65625 4.328125 9.65625 9.660156 0 5.335938-4.324218 9.65625-9.65625 9.65625zm0 0" fill="#ffb2c1"/><path d="m438.96875 356.839844c-5.335938 0-9.65625-4.328125-9.65625-9.660156v-20.574219c0-5.332031 4.320312-9.660157 9.65625-9.660157 5.332031 0 9.660156 4.328126 9.660156 9.660157v20.574219c0 5.332031-4.328125 9.660156-9.660156 9.660156zm0 0" fill="#423e4f"/><path d="m465.699219 383.6875h-22.140625c-5.332032 0-9.65625-4.320312-9.65625-9.65625 0-5.332031 4.324218-9.660156 9.65625-9.660156h22.140625c5.332031 0 9.65625 4.328125 9.65625 9.660156 0 5.335938-4.324219 9.65625-9.65625 9.65625zm0 0" fill="#ffb2c1"/></svg>