<svg height="682pt" viewBox="-26 -21 682 682.66555" width="682pt" xmlns="http://www.w3.org/2000/svg"><path d="m577.15625 1.226562c6.1875.746094 11.726562 4.199219 15.050781 9.472657 14.589844 23.171875 49.957031 96.347656 14.828125 221.117187l-206.101562-172.535156s83.273437-69.253906 176.222656-58.054688zm0 0" fill="#de8957"/><path d="m53.378906 1.226562c-6.1875.746094-11.722656 4.199219-15.042968 9.476563-14.597657 23.167969-49.957032 96.34375-14.835938 221.113281l206.105469-172.535156s-83.273438-69.253906-176.226563-58.054688zm0 0" fill="#de8957"/><path d="m619.292969 172.589844c-15.050781-23.734375-33.332031-45.859375-54.660157-65.871094-35.292968-33.125-76.6875-58.371094-121.777343-74.816406-25.875 14.03125-41.921875 27.378906-41.921875 27.378906l206.101562 172.535156c5.976563-21.238281 9.914063-40.972656 12.257813-59.226562zm0 0" fill="#c76d33"/><path d="m23.5 231.816406 206.105469-172.535156s-16.050781-13.347656-41.925781-27.378906c-45.082032 16.445312-86.484376 41.691406-121.777344 74.816406-21.324219 20.011719-39.609375 42.136719-54.65625 65.871094 2.347656 18.253906 6.277344 37.988281 12.253906 59.226562zm0 0" fill="#c76d33"/><path d="m205.019531 102.339844-.003906.003906c.070313.058594.128906.101562.140625.113281zm-124.804687-48.230469c-1.070313 0-2.042969.625-2.484375 1.601563-11.648438 25.625-26.972657 81.125-2.125 169.386718l129.410156-122.753906c-3.183594-2.550781-61.21875-48.234375-124.78125-48.234375zm0 0" fill="#ffb2c1"/><path d="m425.378906 102.457031c.015625-.011719.070313-.054687.144532-.113281zm124.921875-48.347656c-63.5625 0-121.59375 45.683594-124.777343 48.234375l129.414062 122.753906c24.84375-88.261718 9.515625-143.761718-2.128906-169.386718-.445313-.976563-1.417969-1.601563-2.488282-1.601563zm0 0" fill="#ffb2c1"/><g fill="#ff889e"><path d="m566.761719 108.765625c-.710938-.679687-1.410157-1.375-2.128907-2.046875-18.492187-17.359375-38.667968-32.539062-60.160156-45.441406-43.304687 12.964844-76.5625 39.152344-78.949218 41.066406l129.414062 122.753906c13.65625-48.53125 15.164062-87.136718 11.824219-116.332031zm0 0"/><path d="m425.378906 102.457031c.015625-.011719.070313-.054687.144532-.113281zm0 0"/><path d="m126.070312 61.277344c-21.5 12.902344-41.675781 28.082031-60.167968 45.441406-.71875.671875-1.414063 1.367188-2.125 2.046875-3.339844 29.195313-1.835938 67.800781 11.828125 116.332031l129.410156-122.753906c-2.390625-1.914062-35.644531-28.101562-78.945313-41.066406zm0 0"/><path d="m205.019531 102.339844-.003906.003906c.070313.058594.125.101562.140625.113281zm0 0"/></g><path d="m137.074219 587.792969-.066407.410156c-82.734374-53.332031-137.007812-142.769531-137.007812-244.09375 0-163.417969 141.152344-295.882813 315.269531-295.882813 174.113281 0 315.265625 132.464844 315.265625 295.882813 0 101.367187-54.308594 190.832031-137.101562 244.160156l.027344-.476562zm0 0" fill="#de8957"/><path d="m137.007812 588.203125.066407-.410156h37.941406c-82.382813-53.375-136.382813-142.613281-136.382813-243.683594 0-157.328125 130.835938-285.945313 295.941407-295.316406-6.351563.363281-12.925781-.566407-19.304688-.566407-86.816406 0-172.753906 34.347657-233.371093 96.933594-50.882813 52.546875-81.898438 122.347656-81.898438 198.949219 0 99.007813 54.46875 190.890625 137.007812 244.09375zm0 0" fill="#c76d33"/><path d="m493.460938 587.792969-.027344.476562c-50.691406 32.636719-112.046875 51.730469-178.164063 51.730469-66.160156 0-127.558593-19.121094-178.261719-51.796875l.066407-.410156c-85.097657-132.207031-53.640625-255.992188 67.40625-255.992188 139.511719 0-32.824219-116.945312 110.789062-116.945312s-28.722656 116.945312 110.789063 116.945312c121.046875 0 152.503906 123.785157 67.402344 255.992188zm0 0" fill="#5c586f"/><path d="m315.296875 640c6.429687 0 12.867187-.1875 19.289063-.554688-58.78125-3.332031-113.214844-21.769531-158.945313-51.242187-26.679687-17.199219-50.402344-38.160156-70.292969-62.058594 7.734375 20.035157 18.269532 40.734375 31.730469 61.648438l-.066406.410156c50.699219 32.675781 112.097656 51.796875 178.285156 51.796875zm0 0" fill="#4f4c5f"/><path d="m351.335938 317.914062c-.011719-3.535156-2.996094-6.347656-6.53125-6.347656h-59.074219c-3.535157 0-6.515625 2.8125-6.527344 6.347656v.0625c0 15.785157 16.148437 28.589844 36.066406 28.589844 19.921875 0 36.066407-12.804687 36.066407-28.589844 0-.019531 0-.042968 0-.0625zm0 0" fill="#423e4f"/><path d="m371.089844 360.234375c-4.015625-3.511719-10.117188-3.101563-13.628906.910156-4.242188 4.859375-10.605469 7.644531-17.460938 7.644531-6.851562 0-13.21875-2.785156-17.460938-7.636718-1.910156-2.1875-4.839843-3.429688-7.738281-3.289063-2.570312.128907-5.109375 1.34375-6.804687 3.289063-4.242188 4.851562-10.609375 7.640625-17.460938 7.640625-6.855468 0-13.214844-2.789063-17.460937-7.640625-3.515625-4.019532-9.613281-4.429688-13.625-.917969-4.019531 3.507813-4.429688 9.613281-.917969 13.632813 7.914062 9.046874 19.578125 14.242187 32.003906 14.242187 9.03125 0 17.652344-2.753906 24.734375-7.730469 7.078125 4.976563 15.695313 7.730469 24.734375 7.730469 12.421875 0 24.085938-5.195313 32.003906-14.242187 3.507813-4.019532 3.097657-10.125-.917968-13.632813zm0 0" fill="#423e4f"/><path d="m189.683594 244.660156c-5.332032 0-9.660156 4.324219-9.660156 9.660156v21.425782c0 5.335937 4.328124 9.65625 9.660156 9.65625 5.332031 0 9.65625-4.320313 9.65625-9.65625v-21.425782c0-5.335937-4.324219-9.660156-9.65625-9.660156zm0 0" fill="#423e4f"/><path d="m185.203125 292.277344h-21.585937c-5.335938 0-9.65625 4.324218-9.65625 9.660156 0 5.332031 4.320312 9.65625 9.65625 9.65625h21.585937c5.332031 0 9.660156-4.324219 9.660156-9.65625 0-5.335938-4.328125-9.660156-9.660156-9.660156zm0 0" fill="#ffb2c1"/><path d="m450.511719 275.746094v-21.425782c0-5.335937-4.320313-9.660156-9.65625-9.660156-5.332031 0-9.660157 4.324219-9.660157 9.660156v21.425782c0 5.335937 4.328126 9.65625 9.660157 9.65625 5.335937 0 9.65625-4.320313 9.65625-9.65625zm0 0" fill="#423e4f"/><path d="m466.921875 292.277344h-21.585937c-5.335938 0-9.65625 4.324218-9.65625 9.660156 0 5.332031 4.320312 9.65625 9.65625 9.65625h21.585937c5.332031 0 9.660156-4.324219 9.660156-9.65625 0-5.335938-4.328125-9.660156-9.660156-9.660156zm0 0" fill="#ffb2c1"/></svg>