<svg height="682pt" viewBox="-21 -38 682.66617 682" width="682pt" xmlns="http://www.w3.org/2000/svg"><path d="m585.042969-.601562c3.65625.203124 7.070312 1.882812 9.507812 4.609374 13.164063 14.765626 52.726563 67.984376 30.714844 154.328126l-169.050781-85.316407s37.585937-78.679687 128.828125-73.621093zm0 0" fill="#938ea3"/><path d="m54.957031-.601562c-3.660156.203124-7.078125 1.882812-9.511719 4.609374-13.160156 14.765626-52.726562 67.984376-30.714843 154.328126l169.050781-85.316407s-37.585938-78.679687-128.824219-73.621093zm0 0" fill="#938ea3"/><path d="m74.476562 67.542969c-27.191406 12.355469-49.300781 29.71875-65.945312 51.679687.714844 12.167969 2.65625 25.207032 6.199219 39.113282l169.050781-85.316407s-5.566406-11.628906-17.585938-25.65625c-33.882812 1.148438-64.703124 7.910157-91.71875 20.179688zm0 0" fill="#77718c"/><path d="m565.511719 67.550781c-27.015625-12.277343-57.832031-19.039062-91.714844-20.1875-12.015625 14.027344-17.582031 25.65625-17.582031 25.65625l169.050781 85.316407c3.542969-13.898438 5.484375-26.933594 6.203125-39.09375-16.644531-21.972657-38.761719-39.335938-65.957031-51.691407zm0 0" fill="#77718c"/><path d="m78.792969 45.785156c-3.824219-.285156-7.515625 1.464844-9.613281 4.667969-12.28125 18.710937-29.082032 56.835937-14.78125 112.941406l107.285156-62.65625c-1.128906-2.265625-25.921875-50.628906-82.890625-54.953125zm0 0" fill="#ffb2c1"/><path d="m561.203125 45.785156c3.824219-.285156 7.515625 1.464844 9.617187 4.667969 12.277344 18.710937 29.082032 56.835937 14.777344 112.941406l-107.285156-62.65625c1.128906-2.265625 25.925781-50.628906 82.890625-54.953125zm0 0" fill="#ffb2c1"/><path d="m166.839844 450.304688-4.242188-200.292969h-115.511718l-18.816407 100.140625c-66.0625 115.960937 48.003907 199.351562 88.867188 224.433594 5.265625 3.238281 11.957031-1.050782 11.1875-7.179688-9.789063-78.136719 38.515625-117.101562 38.515625-117.101562zm0 0" fill="#c7c5cb"/><path d="m127.230469 554.878906c-48.316407-37.296875-116.761719-110.179687-62.90625-204.726562l21.394531-100.140625h-38.632812l-18.816407 100.140625c-66.058593 115.960937 48.007813 199.351562 88.867188 224.4375 5.269531 3.234375 11.957031-1.050782 11.191406-7.183594-.542969-4.296875-.894531-8.464844-1.097656-12.527344zm0 0" fill="#938ea3"/><path d="m611.726562 350.152344-18.8125-100.140625h-115.511718l-4.246094 200.292969s48.308594 38.964843 38.515625 117.101562c-.769531 6.132812 5.925781 10.417969 11.1875 7.183594 40.863281-25.085938 154.925781-108.476563 88.867187-224.4375zm0 0" fill="#c7c5cb"/><path d="m477.375 133.710938-157.375 37.816406-151.105469-43.566406c-42.96875 40.089843-70.125 96.976562-70.65625 160.085937-.585937 69.40625 30.714844 131.503906 80.132813 172.558594 14.140625 11.75 24.675781 27.265625 30.261718 44.777343 18.367188 57.605469 29.148438 99.105469 111.367188 99.105469 82.214844 0 92.996094-41.5 111.367188-99.105469 5.585937-17.515624 16.125-33.035156 30.265624-44.785156 48.957032-40.675781 80.136719-102.011718 80.136719-170.640625 0-60.953125-24.59375-116.15625-64.394531-156.246093zm0 0" fill="#938ea3"/><path d="m247.257812 505.382812c-5.578124-17.511718-16.113281-33.027343-30.253906-44.777343-49.417968-41.054688-80.722656-103.152344-80.136718-172.558594.496093-58.714844 24.050781-112.035156 61.925781-151.464844l-29.898438-8.621093c-42.96875 40.089843-70.125 96.980468-70.65625 160.085937-.585937 69.40625 30.714844 131.503906 80.132813 172.558594 14.140625 11.75 24.675781 27.265625 30.261718 44.78125 18.367188 57.605469 29.148438 99.101562 111.367188 99.101562 6.933594 0 13.347656-.304687 19.316406-.875-64.761718-6.246093-75.230468-45.484375-92.058594-98.230469zm0 0" fill="#77718c"/><path d="m112.65625 54.476562c-13.429688 3.273438-26.183594 7.617188-38.179688 13.066407-6.375 2.902343-12.464843 6.085937-18.285156 9.527343-7.226562 20.890626-11.105468 49.789063-1.792968 86.324219l107.285156-62.660156c-.871094-1.75-15.914063-31.054687-49.027344-46.257813zm0 0" fill="#ff889e"/><path d="m527.335938 54.476562c-33.109376 15.207032-48.152344 44.507813-49.023438 46.261719l107.285156 62.65625c9.3125-36.523437 5.4375-65.421875-1.785156-86.308593-5.824219-3.449219-11.914062-6.636719-18.300781-9.535157-11.996094-5.449219-24.75-9.796875-38.175781-13.074219zm0 0" fill="#ff889e"/><path d="m326.257812 102.28125c-4.003906 1.667969-8.515624 1.667969-12.519531 0-200.347656-83.558594-402.210937 12.191406-272.976562 275.164062 2.859375 5.828126 11.304687 5.445313 13.558593-.636718 19.152344-51.613282 91.167969-200.34375 256.734376-92.84375 5.433593 3.527344 12.453124 3.527344 17.890624 0 165.566407-107.5 237.582032 41.230468 256.730469 92.84375 2.261719 6.082031 10.699219 6.464844 13.566407.636718 129.226562-262.972656-72.636719-358.722656-272.984376-275.164062zm0 0" fill="#e7e7e7"/><path d="m196.230469 73.589844c-150.234375-9.972656-258.90625 93.375-155.46875 303.855468 2.859375 5.828126 11.304687 5.445313 13.558593-.636718 2.824219-7.597656 6.789063-17.300782 12.027344-27.984375-72.789062-173.535157 7.351563-266.621094 129.882813-275.234375zm0 0" fill="#c7c5cb"/><g fill="#423e4f"><path d="m347.601562 450.316406c-.003906-2.703125-2.289062-4.855468-4.996093-4.855468h-45.214844c-2.703125 0-4.988281 2.152343-4.996094 4.855468v.054688c0 12.082031 12.359375 21.875 27.605469 21.875 15.242188 0 27.601562-9.792969 27.601562-21.875 0-.019532 0-.035156 0-.054688zm0 0"/><path d="m357.273438 483.769531c-4.019532-3.511719-10.117188-3.101562-13.628907.917969-1.964843 2.246094-4.949219 3.535156-8.1875 3.535156s-6.21875-1.289062-8.1875-3.535156c-1.8125-2.070312-4.53125-3.289062-7.28125-3.289062-2.742187 0-5.453125 1.21875-7.261719 3.289062-1.960937 2.246094-4.949218 3.535156-8.1875 3.535156-3.238281 0-6.21875-1.289062-8.1875-3.535156-3.511718-4.019531-9.609374-4.429688-13.628906-.917969-4.011718 3.511719-4.421875 9.613281-.914062 13.628907 5.636718 6.445312 13.917968 10.140624 22.730468 10.140624 5.539063 0 10.863282-1.460937 15.460938-4.140624 4.59375 2.679687 9.921875 4.140624 15.457031 4.140624 8.8125 0 17.101563-3.695312 22.730469-10.140624 3.511719-4.015626 3.101562-10.117188-.914062-13.628907zm0 0"/><path d="m222.355469 365.902344c-5.332031 0-9.65625 4.324218-9.65625 9.660156v18.074219c0 5.332031 4.324219 9.660156 9.65625 9.660156 5.339843 0 9.660156-4.328125 9.660156-9.660156v-18.074219c0-5.335938-4.320313-9.660156-9.660156-9.660156zm0 0"/></g><path d="m218.027344 409.300781h-20.875c-5.335938 0-9.660156 4.328125-9.660156 9.660157 0 5.335937 4.324218 9.65625 9.660156 9.65625h20.875c5.335937 0 9.65625-4.320313 9.65625-9.65625 0-5.332032-4.320313-9.660157-9.65625-9.660157zm0 0" fill="#ffb2c1"/><path d="m427.296875 393.636719v-18.078125c0-5.332032-4.324219-9.660156-9.65625-9.660156-5.335937 0-9.660156 4.328124-9.660156 9.660156v18.078125c0 5.332031 4.324219 9.660156 9.660156 9.660156 5.332031 0 9.65625-4.328125 9.65625-9.660156zm0 0" fill="#423e4f"/><path d="m442.84375 409.300781h-20.871094c-5.339844 0-9.660156 4.328125-9.660156 9.660157 0 5.335937 4.320312 9.65625 9.660156 9.65625h20.871094c5.339844 0 9.660156-4.320313 9.660156-9.65625 0-5.332032-4.320312-9.660157-9.660156-9.660157zm0 0" fill="#ffb2c1"/></svg>