<svg height="681pt" viewBox="-21 -58 681.33655 681" width="681pt" xmlns="http://www.w3.org/2000/svg"><path d="m.0546875 97.976562c2.0507815 100.085938 55.2812505 66.539063 81.9335935 43.328126 15.898438-13.847657 39.871094-12.828126 54.667969 2.1875.234375.234374.464844.472656.695312.710937l29.902344-81.523437c-69.527344-70.371094-169.933594-98.4375-167.1992185 35.296874zm0 0" fill="#de8957"/><path d="m638.699219 97.976562c-2.050781 100.085938-55.285157 66.539063-81.933594 43.328126-15.902344-13.847657-39.875-12.828126-54.675781 2.1875-.226563.234374-.457032.472656-.691406.710937l-29.902344-81.523437c69.53125-70.371094 169.9375-98.4375 167.203125 35.296874zm0 0" fill="#de8957"/><path d="m500.378906 37.277344c-9.960937 7.550781-19.691406 16.101562-28.882812 25.402344l29.902344 81.523437c.234374-.238281.464843-.476563.691406-.710937 14.800781-15.015626 38.777344-16.039063 54.675781-2.1875 1.054687.917968 2.160156 1.859374 3.300781 2.804687-10.8125-40.597656-31.644531-77.148437-59.6875-106.832031zm0 0" fill="#c76d33"/><path d="m138.375 37.277344c-28.042969 29.683594-48.875 66.234375-59.695312 106.832031 1.140624-.945313 2.246093-1.886719 3.308593-2.804687 15.898438-13.851563 39.871094-12.828126 54.667969 2.1875.230469.234374.464844.46875.695312.710937l29.902344-81.523437c-9.1875-9.304688-18.917968-17.851563-28.878906-25.402344zm0 0" fill="#c76d33"/><path d="m192.972656 446.742188c-36.851562-60.042969-84.101562-118.636719-84.101562-238.5625 0-116.261719 94.242187-210.507813 210.503906-210.507813s210.507812 94.246094 210.507812 210.507813c0 119.921874-47.257812 178.519531-84.101562 238.5625zm0 0" fill="#de8957"/><path d="m134.578125 208.179688c0-111.945313 87.375-203.460938 197.648437-210.105469-2.023437-.125-4.054687-.214844-6.09375-.285157-2.253906-.070312-4.503906-.117187-6.757812-.117187-116.261719 0-210.503906 94.246094-210.503906 210.507813 0 119.921874 47.25 178.519531 84.101562 238.5625h25.707032c-36.851563-60.042969-84.101563-118.636719-84.101563-238.5625zm0 0" fill="#c76d33"/><path d="m445.78125 446.742188c-9.652344 15.714843-18.589844 31.527343-25.769531 48.566406-8.558594 20.257812-22.710938 37.023437-40.230469 48.699218-17.539062 11.691407-38.410156 18.3125-60.40625 18.3125-43.984375 0-83.53125-26.484374-100.632812-67.011718-7.183594-17.039063-16.121094-32.851563-25.769532-48.566406 0-144.453126 100.398438-87.496094 100.398438-221.226563v-101.542969c0-14.359375 11.644531-26.003906 26.003906-26.003906 7.183594 0 13.6875 2.910156 18.386719 7.617188 4.710937 4.703124 7.617187 11.203124 7.617187 18.386718v101.542969c0 133.730469 100.402344 76.773437 100.402344 221.226563zm0 0" fill="#e7e7e7"/><path d="m319.375 562.320312h.046875c1.210937 0 2.414063-.023437 3.621094-.0625 3.0625-.105468 6.136719-.339843 9.183593-.703124-38.703124-4.59375-72.363281-29.710938-87.78125-66.246094-7.179687-17.039063-16.121093-32.851563-25.765624-48.5625-7.425782-12.09375-15.269532-24.132813-23.066407-36.621094-1.695312 10.558594-2.640625 22.644531-2.640625 36.621094 9.644532 15.710937 18.585938 31.523437 25.769532 48.5625 17.101562 40.527344 56.648437 67.011718 100.632812 67.011718zm0 0" fill="#c7c5cb"/><g fill="#423e4f"><path d="m352.027344 423.335938c-.007813-3.203126-2.710938-5.746094-5.910156-5.746094h-53.480469c-3.203125 0-5.902344 2.542968-5.910157 5.746094v.058593c0 14.289063 14.617188 25.882813 32.648438 25.882813 18.039062 0 32.652344-11.59375 32.652344-25.882813 0-.019531 0-.039062 0-.058593zm0 0"/><path d="m363.074219 469.367188c-4.007813-3.503907-10.097657-3.09375-13.601563.910156-2.761718 3.160156-6.921875 4.972656-11.421875 4.972656-4.492187 0-8.660156-1.8125-11.417969-4.972656-1.792968-2.0625-4.535156-3.28125-7.265624-3.28125-2.730469 0-5.453126 1.226562-7.246094 3.28125-2.757813 3.160156-6.925782 4.972656-11.417969 4.972656-4.5 0-8.660156-1.8125-11.425781-4.972656-3.496094-4.003906-9.589844-4.414063-13.597656-.910156-4.007813 3.503906-4.417969 9.597656-.914063 13.601562 6.417969 7.34375 15.875 11.558594 25.933594 11.558594 6.742187 0 13.210937-1.898438 18.675781-5.359375 5.46875 3.460937 11.9375 5.359375 18.675781 5.359375 10.0625 0 19.519531-4.214844 25.9375-11.558594 3.503907-4.003906 3.09375-10.097656-.914062-13.601562zm0 0"/><path d="m193.296875 284.414062c-5.324219 0-9.640625 4.316407-9.640625 9.636719v18.164063c0 5.320312 4.316406 9.640625 9.640625 9.640625s9.636719-4.320313 9.636719-9.640625v-18.164063c0-5.320312-4.3125-9.636719-9.636719-9.636719zm0 0"/></g><path d="m192.953125 328.757812h-19.542969c-5.320312 0-9.636718 4.320313-9.636718 9.640626 0 5.328124 4.316406 9.640624 9.636718 9.640624h19.542969c5.328125 0 9.640625-4.3125 9.640625-9.640624 0-5.320313-4.3125-9.640626-9.640625-9.640626zm0 0" fill="#ffb2c1"/><path d="m445.453125 321.855469c5.328125 0 9.640625-4.320313 9.640625-9.640625v-18.164063c0-5.320312-4.3125-9.636719-9.640625-9.636719-5.320313 0-9.632813 4.316407-9.632813 9.636719v18.164063c0 5.320312 4.3125 9.640625 9.632813 9.640625zm0 0" fill="#423e4f"/><path d="m465.339844 328.757812h-19.546875c-5.320313 0-9.636719 4.320313-9.636719 9.640626 0 5.328124 4.316406 9.640624 9.636719 9.640624h19.546875c5.324218 0 9.640625-4.3125 9.640625-9.640624 0-5.320313-4.316407-9.640626-9.640625-9.640626zm0 0" fill="#ffb2c1"/></svg>