<svg height="682pt" viewBox="-21 -96 682.66829 682" width="682pt" xmlns="http://www.w3.org/2000/svg"><path d="m463.816406 42.0625c173.4375-127.34375 242.421875 240.574219 97.976563 160.390625zm0 0" fill="#f8b459"/><path d="m176.183594 42.0625c-173.433594-127.34375-242.421875 240.574219-97.976563 160.386719zm0 0" fill="#f8b459"/><path d="m520.3125 39.671875c-6.371094-6.367187-13.003906-12.390625-19.855469-18.074219-11.613281 4.386719-23.839843 11.066406-36.640625 20.464844l97.96875 160.390625c16.007813 8.882813 29.390625 12.253906 40.300782 11.421875-5.972657-65.8125-34.472657-126.898438-81.773438-174.203125zm0 0" fill="#f39c18"/><path d="m139.542969 21.597656c-6.851563 5.683594-13.484375 11.699219-19.855469 18.074219-47.300781 47.296875-75.800781 108.386719-81.777344 174.203125 10.914063.832031 24.296875-2.539062 40.296875-11.425781l97.976563-160.390625c-12.800782-9.394532-25.027344-16.074219-36.640625-20.460938zm0 0" fill="#f39c18"/><path d="m135.71875 400.90625c-37.589844-43.003906-60.371094-99.296875-60.371094-160.917969 0-135.128906 109.539063-244.652343 244.652344-244.652343 135.117188 0 244.652344 109.523437 244.652344 244.652343 0 61.621094-22.78125 117.914063-60.371094 160.917969zm0 0" fill="#f8b459"/><path d="m135.71875 400.90625h38.632812c-37.589843-43.003906-60.371093-99.296875-60.371093-160.917969 0-128.625 99.253906-234.046875 225.332031-243.898437-.800781.066406-1.636719-.109375-2.4375-.164063-5.554688-.382812-11.253906-.589843-16.875-.589843-31.667969 0-61.929688 6.015624-89.707031 16.964843-62.476563 24.640625-113.34375 75.515625-137.972657 137.972657-16.773437 42.527343-21.195312 89.882812-12.828124 134.804687 7.964843 42.742187 27.621093 83.105469 56.226562 115.828125zm0 0" fill="#f39c18"/><path d="m504.28125 400.90625c-44.859375 51.316406-110.785156 83.722656-184.28125 83.722656s-139.421875-32.40625-184.28125-83.722656c-13.457031-46.929688 2.664062-88.609375 60.359375-120.847656 95.195313-53.167969 46.316406-92.621094 123.921875-92.621094 77.613281 0 28.726562 39.453125 123.921875 92.621094 57.695313 32.238281 73.816406 73.917968 60.359375 120.847656zm0 0" fill="#de8957"/><path d="m328.242188 484.480469c3.695312-.144531 7.386718-.328125 11.074218-.617188-65.671875-5.132812-124.078125-36.179687-164.964844-82.957031-15.347656-17.558594-28.222656-37.335938-38.089843-58.785156-6.648438 18.328125-6.492188 38.042968-.542969 58.785156 8.40625 9.621094 17.566406 18.582031 27.367188 26.78125 17.96875 15.042969 38.136718 27.546875 59.941406 36.972656 30.402344 13.132813 63.714844 19.96875 96.972656 19.96875 2.75 0 5.5-.050781 8.242188-.148437zm0 0" fill="#c76d33"/><g fill="#423e4f"><path d="m351.992188 233.984375c-.007813-3.132813-2.65625-5.628906-5.789063-5.628906h-52.402344c-3.136719 0-5.78125 2.496093-5.792969 5.628906v.058594c0 14.003906 14.320313 25.359375 31.992188 25.359375 17.667969 0 31.992188-11.355469 31.992188-25.359375 0-.019531 0-.039063 0-.058594zm0 0"/><path d="m365.160156 279.773438c-4.011718-3.511719-10.117187-3.101563-13.625.910156-2.9375 3.359375-7.355468 5.285156-12.128906 5.285156-4.777344 0-9.199219-1.925781-12.136719-5.285156-1.800781-2.0625-4.515625-3.289063-7.257812-3.289063-2.746094 0-5.464844 1.210938-7.28125 3.289063-2.933594 3.359375-7.355469 5.285156-12.132813 5.285156-4.773437 0-9.195312-1.929688-12.128906-5.285156-3.511719-4.015625-9.609375-4.425782-13.628906-.917969-4.019532 3.511719-4.429688 9.617187-.914063 13.628906 6.601563 7.558594 16.324219 11.890625 26.671875 11.890625 7.015625 0 13.738282-1.996094 19.402344-5.636718 5.664062 3.640624 12.386719 5.636718 19.40625 5.636718 10.34375 0 20.070312-4.332031 26.671875-11.890625 3.511719-4.011719 3.101563-10.113281-.917969-13.621093zm0 0"/><path d="m209.601562 185.523438c-5.332031 0-9.660156 4.320312-9.660156 9.660156v18.867187c0 5.335938 4.328125 9.65625 9.660156 9.65625 5.332032 0 9.65625-4.320312 9.65625-9.65625v-18.867187c0-5.339844-4.324218-9.660156-9.65625-9.660156zm0 0"/></g><path d="m205.386719 229.023438h-20.304688c-5.332031 0-9.65625 4.324218-9.65625 9.65625 0 5.335937 4.324219 9.65625 9.65625 9.65625h20.304688c5.335937 0 9.65625-4.320313 9.65625-9.65625 0-5.332032-4.320313-9.65625-9.65625-9.65625zm0 0" fill="#ff889e"/><path d="m440.058594 214.050781v-18.867187c0-5.339844-4.324219-9.660156-9.65625-9.660156-5.332032 0-9.660156 4.320312-9.660156 9.660156v18.867187c0 5.335938 4.328124 9.65625 9.660156 9.65625 5.332031 0 9.65625-4.320312 9.65625-9.65625zm0 0" fill="#423e4f"/><path d="m454.917969 229.023438h-20.304688c-5.335937 0-9.65625 4.324218-9.65625 9.65625 0 5.335937 4.320313 9.65625 9.65625 9.65625h20.304688c5.332031 0 9.65625-4.320313 9.65625-9.65625 0-5.332032-4.324219-9.65625-9.65625-9.65625zm0 0" fill="#ff889e"/></svg>